<svg width="12" height="20" viewBox="0 0 12 20" fill="none" xmlns="http://www.w3.org/2000/svg">
<g clip-path="url(#clip0_1127_3632)">
<path d="M6.00734 10.3223C8.96395 10.3214 11.3588 8.00938 11.3578 5.15933C11.3569 2.30836 8.95918 -0.000919393 6.00353 2.74596e-07C3.04788 0.000919942 0.652072 2.31296 0.653026 5.16301C0.656841 8.01214 3.05265 10.3205 6.00734 10.3223ZM6.00734 3.02571C7.23195 3.02571 8.2248 3.98308 8.2248 5.16393C8.2248 6.34478 7.23195 7.30124 6.00734 7.30124C4.78274 7.30124 3.78989 6.34386 3.78989 5.16301C3.7918 3.98308 4.78369 3.02662 6.00734 3.02571ZM8.17139 14.5335C9.27296 14.2925 10.324 13.8723 11.2806 13.2919C12.0093 12.8386 12.2191 11.9023 11.7489 11.1997C11.2863 10.5081 10.3345 10.2994 9.60772 10.7307C7.40362 12.0596 4.60534 12.0596 2.40124 10.7307C1.66972 10.2883 0.703574 10.4998 0.242916 11.2043C-0.219649 11.9097 -0.00219583 12.8441 0.730279 13.2901C0.731233 13.2901 0.732187 13.291 0.732187 13.291C1.68784 13.8704 2.73886 14.2907 3.83948 14.5326L0.846636 17.4185C0.250546 18.0255 0.278205 18.9838 0.908629 19.5586C1.51426 20.1104 2.46037 20.1104 3.066 19.5586L6.00543 16.7223L8.94678 19.5586C9.55908 20.1481 10.55 20.1481 11.1623 19.5586C11.7737 18.9681 11.7737 18.0126 11.1623 17.4222L8.17139 14.5335Z" fill="#ACE42C"/>
</g>
<defs>
<clipPath id="clip0_1127_3632">
<rect width="12" height="20" fill="white"/>
</clipPath>
</defs>
</svg>
