<svg width="146" height="120" viewBox="0 0 146 120" fill="none" xmlns="http://www.w3.org/2000/svg">
<path opacity="0.5" d="M69.3236 70.3465L46.1953 56.87C44.4404 55.8437 44.6611 54.081 46.6864 52.865L68.8269 39.9463C70.8577 38.7638 73.926 38.6355 75.6864 39.6618L98.8147 53.1551C100.57 54.1814 100.349 55.9441 98.318 57.1545L76.161 70.062C74.1468 71.2446 71.0785 71.3729 69.3236 70.3465Z" fill="#0B0244"/>
<path d="M102.948 41.1846V36.354H90.6139L76.0284 27.8643C74.0803 26.7487 70.6809 26.8714 68.4349 28.1822L54.3957 36.354H42.0507V41.4579C41.9955 42.2277 42.4204 42.9696 43.353 43.5162L68.9867 58.4653C70.9348 59.5809 74.3342 59.4582 76.5802 58.1474L101.105 43.8342C102.396 43.0755 103.02 42.0994 102.948 41.1846Z" fill="#312A91"/>
<path opacity="0.5" d="M102.948 41.1846V36.354H90.6139L76.0284 27.8643C74.0803 26.7487 70.6809 26.8714 68.4349 28.1822L54.3957 36.354H42.0507V41.4579C41.9955 42.2277 42.4204 42.9696 43.353 43.5162L68.9867 58.4653C70.9348 59.5809 74.3342 59.4582 76.5802 58.1474L101.105 43.8342C102.396 43.0755 103.02 42.0994 102.948 41.1846Z" fill="url(#paint0_linear_1240_187)"/>
<path d="M76.0286 27.8643C74.9406 27.299 73.7238 27.0353 72.5022 27.1001V59.2462C73.9261 59.2269 75.3239 58.8574 76.5749 58.1696L101.099 43.8564C102.396 43.0978 103.02 42.1217 102.948 41.2069V36.354H90.6141L76.0286 27.8643Z" fill="url(#paint1_linear_1240_187)"/>
<path d="M68.9868 53.3559L43.3642 38.4068C41.4216 37.2912 41.6645 35.2886 43.916 33.9778L68.435 19.6646C70.681 18.3538 74.0804 18.2143 76.0285 19.3467L101.64 34.2958C103.588 35.4114 103.345 37.4139 101.088 38.7247L76.5748 53.0379C74.3288 54.3487 70.9294 54.4938 68.9868 53.3559Z" fill="#312A91"/>
<path opacity="0.5" d="M68.9868 53.3559L43.3642 38.4068C41.4216 37.2912 41.6645 35.2886 43.916 33.9778L68.435 19.6646C70.681 18.3538 74.0804 18.2143 76.0285 19.3467L101.64 34.2958C103.588 35.4114 103.345 37.4139 101.088 38.7247L76.5748 53.0379C74.3288 54.3487 70.9294 54.4938 68.9868 53.3559Z" fill="url(#paint2_linear_1240_187)"/>
<path d="M69.6655 50.0537L49.0261 38.0107C47.4589 37.0959 47.6575 35.495 49.4676 34.4408L69.224 22.9054C71.0341 21.8512 73.7768 21.734 75.3441 22.6488L95.9835 34.6974C97.5508 35.6122 97.3521 37.2075 95.542 38.2673L75.7856 49.7971C73.9534 50.8513 71.2328 50.9685 69.6655 50.0537Z" fill="#5CFFF3"/>
<path d="M49.4677 36.0026L69.2242 24.4673C71.0342 23.413 73.777 23.2959 75.3442 24.2163L95.9836 36.2592C96.3238 36.4441 96.6123 36.7127 96.8224 37.0401C97.275 36.1979 97.0156 35.2998 95.9836 34.6974L75.3442 22.6488C73.777 21.734 71.0342 21.8512 69.2242 22.9054L49.4677 34.4408C48.1047 35.2329 47.6577 36.3373 48.1874 37.2298C48.4939 36.7091 48.937 36.2843 49.4677 36.0026Z" fill="#42E8E0"/>
<path opacity="0.5" d="M69.8422 53.3558L44.225 38.4067C42.277 37.2911 41.8134 35.6177 44.7769 33.9778L69.2958 19.6646C70.484 19.0098 71.8064 18.6431 73.1588 18.5936C71.5167 18.5044 69.882 18.875 68.4349 19.6646L43.9105 34.0001C41.6644 35.3109 41.4216 37.2967 43.3586 38.429L68.9868 53.3558C70.1433 53.9569 71.4435 54.2178 72.7394 54.1089C71.7286 54.0908 70.7362 53.8328 69.8422 53.3558Z" fill="url(#paint3_linear_1240_187)"/>
<path opacity="0.5" d="M101.099 40.8834L76.5749 55.1966C74.3289 56.5074 70.9294 56.6524 68.9814 55.5145L43.3643 40.5654C42.4316 40.0076 42.0067 39.2769 42.0619 38.5127V39.5781C42.0067 40.3479 42.4316 41.0898 43.3643 41.6364L68.9869 56.5743C70.935 57.6899 74.3344 57.5672 76.5804 56.2564L101.105 41.9432C102.402 41.1846 103.025 40.2084 102.954 39.2936V38.2394C103.02 39.1486 102.396 40.1359 101.099 40.8834Z" fill="url(#paint4_linear_1240_187)"/>
<path d="M96.6514 39.4777C96.7125 39.4987 96.7654 39.5386 96.803 39.5916C96.8405 39.6446 96.8607 39.7081 96.8607 39.7733C96.8607 39.8385 96.8405 39.9021 96.803 39.9551C96.7654 40.0081 96.7125 40.0479 96.6514 40.069C96.4939 40.1489 96.32 40.1906 96.1437 40.1906C95.9674 40.1906 95.7936 40.1489 95.636 40.069C95.575 40.0479 95.522 40.0081 95.4845 39.9551C95.4469 39.9021 95.4268 39.8385 95.4268 39.7733C95.4268 39.7081 95.4469 39.6446 95.4845 39.5916C95.522 39.5386 95.575 39.4987 95.636 39.4777C95.7929 39.3955 95.967 39.3527 96.1437 39.3527C96.3204 39.3527 96.4945 39.3955 96.6514 39.4777Z" fill="#FCCC6B"/>
<path d="M98.2351 38.5573C98.5166 38.7191 98.5166 38.9812 98.2351 39.1486C98.079 39.2298 97.9058 39.2722 97.7302 39.2722C97.5545 39.2722 97.3814 39.2298 97.2252 39.1486C96.9438 38.9812 96.9438 38.7191 97.2252 38.5573C97.3814 38.4761 97.5545 38.4337 97.7302 38.4337C97.9058 38.4337 98.079 38.4761 98.2351 38.5573Z" fill="#FCCC6B"/>
<path d="M99.8025 37.637C99.8636 37.658 99.9166 37.6978 99.9541 37.7509C99.9916 37.8039 100.012 37.8674 100.012 37.9326C100.012 37.9978 99.9916 38.0613 99.9541 38.1144C99.9166 38.1674 99.8636 38.2072 99.8025 38.2282C99.6463 38.3095 99.4732 38.3518 99.2976 38.3518C99.1219 38.3518 98.9488 38.3095 98.7926 38.2282C98.5112 38.0609 98.5112 37.7987 98.7926 37.637C98.9488 37.5557 99.1219 37.5134 99.2976 37.5134C99.4732 37.5134 99.6463 37.5557 99.8025 37.637Z" fill="#FCCC6B"/>
<path opacity="0.5" d="M27.2776 94.9176L4.1493 81.4132C2.3944 80.3869 2.60963 78.5963 4.64045 77.4082L26.7809 64.4895C28.8117 63.307 31.88 63.1731 33.6405 64.1995L56.7632 77.6983C58.5236 78.7246 58.3029 80.4873 56.272 81.6977L34.1316 94.6332C32.1008 95.8157 29.0325 95.944 27.2776 94.9176Z" fill="#0B0244"/>
<path d="M60.902 65.7558V60.9196H48.568L33.9825 52.4075C32.0344 51.2919 28.635 51.4147 26.389 52.7255L12.3498 60.9196H0.00475215V66.0291C-0.0504334 66.7988 0.374495 67.5407 1.30713 68.0874L26.9353 83.0309C28.8778 84.1465 32.2773 84.0238 34.5288 82.7129L59.0533 68.4053C60.3446 67.6467 60.9737 66.665 60.902 65.7558Z" fill="#312A91"/>
<path opacity="0.5" d="M60.902 65.7558V60.9196H48.568L33.9825 52.4075C32.0344 51.2919 28.635 51.4147 26.389 52.7255L12.3498 60.9196H0.00475215V66.0291C-0.0504334 66.7988 0.374495 67.5407 1.30713 68.0874L26.9353 83.0309C28.8778 84.1465 32.2773 84.0238 34.5288 82.7129L59.0533 68.4053C60.3446 67.6467 60.9737 66.665 60.902 65.7558Z" fill="url(#paint5_linear_1240_187)"/>
<path d="M33.9827 52.4076C32.8956 51.8397 31.6781 51.5759 30.4563 51.6434V83.7895C31.881 83.771 33.2795 83.3995 34.529 82.7074L59.0534 68.4054C60.3503 67.6467 60.9794 66.665 60.9077 65.7558V60.9196H48.5682L33.9827 52.4076Z" fill="url(#paint6_linear_1240_187)"/>
<path d="M26.9355 77.927L1.31833 63.0058C-0.62972 61.8902 -0.381385 59.8876 1.87018 58.5768L26.3891 44.2357C28.6352 42.9249 32.0125 42.7799 33.9827 43.9178L59.6053 58.8669C61.5533 59.9825 61.3105 61.985 59.0534 63.2958L34.529 77.609C32.2774 78.9199 28.878 79.0593 26.9355 77.927Z" fill="#312A91"/>
<path opacity="0.5" d="M26.9355 77.927L1.31833 63.0058C-0.62972 61.8902 -0.381385 59.8876 1.87018 58.5768L26.3891 44.2357C28.6352 42.9249 32.0125 42.7799 33.9827 43.9178L59.6053 58.8669C61.5533 59.9825 61.3105 61.985 59.0534 63.2958L34.529 77.609C32.2774 78.9199 28.878 79.0593 26.9355 77.927Z" fill="url(#paint7_linear_1240_187)"/>
<path d="M27.5975 74.6248L6.95815 62.5763C5.39088 61.6615 5.58403 60.0662 7.39964 59.0064L27.1561 47.4766C28.9661 46.4224 31.7034 46.3052 33.2761 47.22L53.91 59.263C55.4828 60.1778 55.2841 61.7786 53.474 62.8329L33.7342 74.3682C31.9241 75.4225 29.1869 75.5396 27.5975 74.6248Z" fill="#5CFFF3"/>
<path d="M7.42172 60.5682L27.1781 49.0608C28.9882 48.0065 31.7254 47.8894 33.2982 48.8042L53.9321 60.8471C54.2741 61.0339 54.5643 61.3043 54.7764 61.6336C55.229 60.7913 54.9641 59.8877 53.9321 59.2853L33.2982 47.22C31.7254 46.3052 28.9882 46.4224 27.1781 47.4766L7.42172 59.0064C6.05311 59.804 5.60611 60.9085 6.14141 61.7954C6.45051 61.2768 6.89299 60.8527 7.42172 60.5682Z" fill="#42E8E0"/>
<path opacity="0.5" d="M27.7963 77.927L2.17918 63.0058C0.231127 61.8902 -0.232431 60.2168 2.73103 58.5769L27.25 44.2358C28.4371 43.5785 29.7602 43.2117 31.113 43.1648C29.4782 43.0797 27.8518 43.4502 26.4111 44.2358L1.86462 58.5434C-0.381433 59.8542 -0.629768 61.8344 1.31276 62.9723L26.9299 77.9215C28.0864 78.5167 29.3832 78.7773 30.677 78.6745C29.6723 78.6555 28.6858 78.3996 27.7963 77.927Z" fill="url(#paint8_linear_1240_187)"/>
<path opacity="0.5" d="M59.0533 65.4546L34.5288 79.7678C32.2773 81.0786 28.8778 81.218 26.9353 80.0857L1.31817 65.1366C0.385532 64.5788 -0.0393963 63.8481 0.0157893 63.0783H0.00475215V64.1214C-0.0504334 64.8912 0.374495 65.6331 1.30713 66.1797L26.9243 81.1288C28.8668 82.2444 32.2662 82.1217 34.5178 80.8108L59.0533 66.5144C60.3501 65.7558 60.9793 64.7796 60.9075 63.8648V62.805C60.9737 63.7198 60.3446 64.6792 59.0533 65.4546Z" fill="url(#paint9_linear_1240_187)"/>
<path d="M54.6054 64.0433C54.6664 64.0644 54.7194 64.1042 54.757 64.1572C54.7945 64.2102 54.8147 64.2738 54.8147 64.3389C54.8147 64.4041 54.7945 64.4677 54.757 64.5207C54.7194 64.5737 54.6664 64.6135 54.6054 64.6346C54.4485 64.7167 54.2744 64.7596 54.0977 64.7596C53.921 64.7596 53.7469 64.7167 53.59 64.6346C53.3085 64.4728 53.3085 64.2107 53.59 64.0433C53.7475 63.9633 53.9214 63.9217 54.0977 63.9217C54.274 63.9217 54.4479 63.9633 54.6054 64.0433Z" fill="#FCCC6B"/>
<path d="M56.1782 63.1285C56.231 63.153 56.2758 63.1922 56.3072 63.2417C56.3386 63.2911 56.3553 63.3486 56.3553 63.4074C56.3553 63.4661 56.3386 63.5236 56.3072 63.5731C56.2758 63.6225 56.231 63.6618 56.1782 63.6863C56.022 63.7675 55.8489 63.8099 55.6732 63.8099C55.4976 63.8099 55.3245 63.7675 55.1683 63.6863C55.1154 63.6618 55.0707 63.6225 55.0393 63.5731C55.0079 63.5236 54.9912 63.4661 54.9912 63.4074C54.9912 63.3486 55.0079 63.2911 55.0393 63.2417C55.0707 63.1922 55.1154 63.153 55.1683 63.1285C55.3245 63.0473 55.4976 63.0049 55.6732 63.0049C55.8489 63.0049 56.022 63.0473 56.1782 63.1285Z" fill="#FCCC6B"/>
<path d="M57.7566 62.2082C58.0381 62.3699 58.0381 62.6321 57.7566 62.7994C57.5991 62.8794 57.4252 62.9211 57.2489 62.9211C57.0726 62.9211 56.8988 62.8794 56.7412 62.7994C56.6802 62.7784 56.6272 62.7386 56.5897 62.6856C56.5522 62.6325 56.532 62.569 56.532 62.5038C56.532 62.4386 56.5522 62.3751 56.5897 62.3221C56.6272 62.269 56.6802 62.2292 56.7412 62.2082C56.8981 62.126 57.0722 62.0831 57.2489 62.0831C57.4256 62.0831 57.5997 62.126 57.7566 62.2082Z" fill="#FCCC6B"/>
<path opacity="0.5" d="M111.369 94.7113L88.241 81.2125C86.4861 80.1861 86.7068 78.4235 88.7321 77.213L110.878 64.2943C112.903 63.1062 115.977 62.9779 117.732 64.0043L140.86 77.5087C142.615 78.535 142.395 80.2977 140.369 81.5081L118.223 94.4268C116.198 95.6093 113.135 95.7376 111.369 94.7113Z" fill="#0B0244"/>
<path d="M144.994 65.5494V60.7132H132.66L118.102 52.2012C116.154 51.0855 112.754 51.2083 110.508 52.5247L96.4691 60.7132H84.0965V65.8227C84.0414 66.5925 84.4663 67.3343 85.3989 67.8754L111.016 82.8245C112.964 83.9401 116.364 83.8174 118.61 82.5066L143.134 68.1989C144.442 67.4682 145.066 66.4586 144.994 65.5494Z" fill="#312A91"/>
<path opacity="0.5" d="M144.994 65.5494V60.7132H132.66L118.102 52.2012C116.154 51.0855 112.754 51.2083 110.508 52.5247L96.4691 60.7132H84.0965V65.8227C84.0414 66.5925 84.4663 67.3343 85.3989 67.8754L111.016 82.8245C112.964 83.9401 116.364 83.8174 118.61 82.5066L143.134 68.1989C144.442 67.4682 145.066 66.4586 144.994 65.5494Z" fill="url(#paint10_linear_1240_187)"/>
<path d="M118.102 52.2012C117.014 51.6378 115.797 51.3761 114.576 51.4426V83.5887C116 83.5653 117.397 83.194 118.648 82.5066L143.173 68.1989C144.47 67.4403 145.093 66.4586 145.022 65.5494V60.7132H132.66L118.102 52.2012Z" fill="url(#paint11_linear_1240_187)"/>
<path d="M111.027 77.7206L85.4101 62.7715C83.4675 61.6559 83.7104 59.6534 85.9619 58.3091L110.481 44.0405C112.727 42.7297 116.126 42.5847 118.074 43.7226L143.692 58.6717C145.634 59.7873 145.391 61.7898 143.14 63.1006L118.615 77.4138C116.375 78.7135 112.975 78.853 111.027 77.7206Z" fill="#312A91"/>
<path opacity="0.5" d="M111.027 77.7206L85.4101 62.7715C83.4675 61.6559 83.7104 59.6534 85.9619 58.3091L110.481 44.0405C112.727 42.7297 116.126 42.5847 118.074 43.7226L143.692 58.6717C145.634 59.7873 145.391 61.7898 143.14 63.1006L118.615 77.4138C116.375 78.7135 112.975 78.853 111.027 77.7206Z" fill="url(#paint12_linear_1240_187)"/>
<path d="M111.711 74.4128L91.061 62.3699C89.4938 61.4551 89.6924 59.8598 91.5025 58.7999L111.259 47.2702C113.069 46.2159 115.812 46.0988 117.379 47.0136L138.018 59.0565C139.586 59.9713 139.387 61.5722 137.577 62.6265L117.832 74.1618C116.021 75.2161 113.279 75.3276 111.711 74.4128Z" fill="#5CFFF3"/>
<path d="M91.5136 60.3618L111.27 48.832C113.08 47.7778 115.823 47.6606 117.39 48.5754L138.03 60.6184C138.369 60.8069 138.657 61.077 138.868 61.4049C139.321 60.557 139.061 59.659 138.03 59.0565L117.39 47.0136C115.823 46.0988 113.08 46.2159 111.27 47.2702L91.5136 58.7999C90.1506 59.5976 89.7036 60.7021 90.2333 61.589C90.5424 61.0704 90.9849 60.6463 91.5136 60.3618Z" fill="#42E8E0"/>
<path opacity="0.5" d="M111.888 77.7206L86.2709 62.7715C84.3284 61.6559 83.8593 59.9825 86.8228 58.3091L111.342 44.0405C112.529 43.3832 113.852 43.0164 115.205 42.9695C113.562 42.8747 111.926 43.2456 110.481 44.0405L85.9564 58.3482C83.7103 59.6646 83.4675 61.6448 85.4045 62.8106L111.022 77.7597C112.18 78.3554 113.479 78.616 114.774 78.5127C113.764 78.4808 112.775 78.2095 111.888 77.7206Z" fill="url(#paint13_linear_1240_187)"/>
<path opacity="0.5" d="M143.145 65.237L118.621 79.5502C116.375 80.8611 112.975 81.0005 111.027 79.8682L85.4099 64.9191C84.4773 64.3613 84.0523 63.6306 84.1075 62.8608V63.9206C84.0523 64.6904 84.4773 65.4323 85.4099 65.9789L111.027 80.9224C112.975 82.038 116.375 81.9153 118.621 80.6045L143.145 66.2968C144.442 65.5382 145.065 64.5565 144.994 63.6473V62.5875C145.065 63.5134 144.442 64.4896 143.145 65.237Z" fill="url(#paint14_linear_1240_187)"/>
<path d="M138.697 63.837C138.979 64.0043 138.979 64.2665 138.697 64.4282C138.54 64.5082 138.366 64.5498 138.189 64.5498C138.013 64.5498 137.839 64.5082 137.682 64.4282C137.621 64.4072 137.568 64.3674 137.53 64.3143C137.493 64.2613 137.472 64.1978 137.472 64.1326C137.472 64.0674 137.493 64.0039 137.53 63.9508C137.568 63.8978 137.621 63.858 137.682 63.837C137.839 63.757 138.013 63.7153 138.189 63.7153C138.366 63.7153 138.54 63.757 138.697 63.837Z" fill="#FCCC6B"/>
<path d="M140.276 62.9165C140.337 62.9376 140.39 62.9774 140.427 63.0304C140.465 63.0834 140.485 63.147 140.485 63.2122C140.485 63.2774 140.465 63.3409 140.427 63.3939C140.39 63.4469 140.337 63.4868 140.276 63.5078C140.119 63.59 139.945 63.6329 139.768 63.6329C139.591 63.6329 139.417 63.59 139.26 63.5078C138.979 63.3461 138.979 63.0839 139.26 62.9165C139.418 62.8366 139.592 62.7949 139.768 62.7949C139.944 62.7949 140.118 62.8366 140.276 62.9165Z" fill="#FCCC6B"/>
<path d="M141.832 61.9962C142.113 62.1635 142.113 62.4257 141.832 62.5874C141.676 62.6687 141.503 62.711 141.327 62.711C141.151 62.711 140.978 62.6687 140.822 62.5874C140.54 62.4257 140.54 62.1635 140.822 61.9962C140.978 61.9149 141.151 61.8726 141.327 61.8726C141.503 61.8726 141.676 61.9149 141.832 61.9962Z" fill="#FCCC6B"/>
<path opacity="0.5" d="M70.2781 47.1363L54.0866 37.6872C52.856 36.9676 52.9829 35.7181 54.4343 34.8982L69.9304 25.8562C71.3542 25.0251 73.5009 24.9358 74.7315 25.6554L90.9175 35.1157C92.1481 35.8353 91.9936 37.0903 90.5753 37.9047L75.0571 46.9355C73.6554 47.7611 71.5087 47.8559 70.2781 47.1363Z" fill="#0B0244"/>
<path opacity="0.5" d="M102.948 36.3429C102.954 36.2518 102.954 36.1606 102.948 36.0695V22.5707L81.7291 22.6656L76.0285 19.3187C74.0859 18.2031 70.6865 18.3259 68.435 19.6367L63.1371 22.7269L42.0563 22.8441V36.3429C42.0011 37.1126 42.426 37.8545 43.3642 38.4012L68.9868 53.3503C70.9349 54.4659 74.3343 54.3431 76.5803 53.0323L101.105 38.7191C102.275 38.0386 102.893 37.174 102.954 36.3429H102.948Z" fill="#5CFFF3"/>
<path d="M102.948 22.5763V17.7457H90.6139L76.0284 9.23366C74.0803 8.11805 70.6809 8.24077 68.4349 9.55161L54.3957 17.7457H42.0507V22.844C41.9955 23.6138 42.4204 24.3557 43.353 24.9023L68.9867 39.857C70.9348 40.9726 74.3342 40.8499 76.5802 39.5391L101.105 25.2258C102.396 24.4728 103.02 23.4911 102.948 22.5763Z" fill="#312A91"/>
<path opacity="0.5" d="M102.948 22.5763V17.7457H90.6139L76.0284 9.23366C74.0803 8.11805 70.6809 8.24077 68.4349 9.55161L54.3957 17.7457H42.0507V22.844C41.9955 23.6138 42.4204 24.3557 43.353 24.9023L68.9867 39.857C70.9348 40.9726 74.3342 40.8499 76.5802 39.5391L101.105 25.2258C102.396 24.4728 103.02 23.4911 102.948 22.5763Z" fill="url(#paint15_linear_1240_187)"/>
<path d="M76.0286 9.23366C74.941 8.66775 73.7235 8.40585 72.5022 8.47505V40.6156C73.9261 40.5963 75.3239 40.2268 76.5749 39.5391L101.099 25.2259C102.396 24.4728 103.02 23.4911 102.948 22.5763V17.7457H90.6141L76.0286 9.23366Z" fill="url(#paint16_linear_1240_187)"/>
<path d="M68.9868 34.7476L43.3642 19.804C41.4216 18.6884 41.6645 16.6803 43.916 15.3695L68.435 1.08977C70.681 -0.226647 74.0804 -0.366097 76.0285 0.766241L101.64 15.7153C103.588 16.8309 103.345 18.839 101.088 20.1499L76.5748 34.4296C74.3288 35.7404 70.9294 35.8855 68.9868 34.7476Z" fill="#312A91"/>
<path opacity="0.5" d="M68.9868 34.7476L43.3642 19.804C41.4216 18.6884 41.6645 16.6803 43.916 15.3695L68.435 1.08977C70.681 -0.226647 74.0804 -0.366097 76.0285 0.766241L101.64 15.7153C103.588 16.8309 103.345 18.839 101.088 20.1499L76.5748 34.4296C74.3288 35.7404 70.9294 35.8855 68.9868 34.7476Z" fill="url(#paint17_linear_1240_187)"/>
<path opacity="0.5" d="M69.8422 34.7476L44.225 19.804C42.277 18.6884 41.8134 17.015 44.7769 15.3695L69.2958 1.08977C70.4826 0.430734 71.8056 0.0620205 73.1588 0.0132113C71.5159 -0.0769524 69.8806 0.295744 68.4349 1.08977L43.9105 15.3695C41.6644 16.6803 41.4216 18.6661 43.3586 19.804L68.9868 34.7476C70.1436 35.348 71.4431 35.6107 72.7394 35.5062C71.7282 35.4861 70.7358 35.2263 69.8422 34.7476Z" fill="url(#paint18_linear_1240_187)"/>
<path opacity="0.5" d="M101.099 22.2862L76.5749 36.5883C74.3289 37.8991 70.9294 38.0442 68.9814 36.9062L43.3643 21.9627C42.4316 21.4049 42.0067 20.6742 42.0619 19.9044V20.9643C42.0067 21.7284 42.4316 22.4703 43.3643 23.017L68.9869 37.9661C70.935 39.0817 74.3344 38.959 76.5804 37.6481L101.105 23.3349C102.402 22.5819 103.025 21.6001 102.954 20.6909V19.6311C103.02 20.5403 102.396 21.5221 101.099 22.2862Z" fill="url(#paint19_linear_1240_187)"/>
<path opacity="0.5" d="M28.2324 71.7075L12.0409 62.2584C10.8103 61.5388 10.9648 60.2837 12.3886 59.4693L27.8847 50.4106C29.303 49.5851 31.4552 49.4958 32.6858 50.2098L48.8717 59.659C50.1024 60.3786 49.9755 61.628 48.5296 62.448L33.028 71.5067C31.6097 72.3323 29.463 72.4215 28.2324 71.7075Z" fill="#0B0244"/>
<path opacity="0.5" d="M60.902 60.9197C60.9075 60.8286 60.9075 60.7373 60.902 60.6463V47.1475L39.6832 47.2423L33.9825 43.8955C32.0344 42.7799 28.635 42.9026 26.389 44.2135L21.0911 47.3037L0.00475215 47.4208V60.9197C-0.0504334 61.6894 0.374495 62.4313 1.30713 62.9779L26.9243 77.927C28.8668 79.0426 32.2662 78.9199 34.5178 77.6091L59.0533 63.2959C60.2232 62.6154 60.8468 61.7508 60.9075 60.9197H60.902Z" fill="#5CFFF3"/>
<path d="M60.902 47.1475V42.3169H48.568L33.9825 33.8048C32.0344 32.6892 28.635 32.8119 26.389 34.1228L12.3498 42.3169H0.00475215V47.4208C-0.0504334 48.1905 0.374495 48.9324 1.30713 49.4791L26.9243 64.4282C28.8668 65.5438 32.2662 65.4211 34.5178 64.1102L59.0533 49.797C60.3446 49.0607 60.9737 48.0623 60.902 47.1475Z" fill="#312A91"/>
<path opacity="0.5" d="M60.902 47.1475V42.3169H48.568L33.9825 33.8048C32.0344 32.6892 28.635 32.8119 26.389 34.1228L12.3498 42.3169H0.00475215V47.4208C-0.0504334 48.1905 0.374495 48.9324 1.30713 49.4791L26.9243 64.4282C28.8668 65.5438 32.2662 65.4211 34.5178 64.1102L59.0533 49.797C60.3446 49.0607 60.9737 48.0623 60.902 47.1475Z" fill="url(#paint20_linear_1240_187)"/>
<path d="M33.9827 33.8049C32.8951 33.239 31.6776 32.9771 30.4563 33.0463V65.1868C31.8793 65.171 33.2771 64.8053 34.529 64.1214L59.0534 49.7971C60.3503 49.0385 60.9794 48.0623 60.9077 47.1475V42.317H48.5682L33.9827 33.8049Z" fill="url(#paint21_linear_1240_187)"/>
<path d="M26.9355 59.3187L1.31833 44.3696C-0.62972 43.254 -0.381385 41.2515 1.87018 39.9407L26.3891 25.633C28.6352 24.3222 32.0346 24.1828 33.9827 25.3151L59.6053 40.2586C61.5533 41.3742 61.3105 43.3767 59.0534 44.6876L34.529 59.0008C32.2774 60.3116 28.878 60.4566 26.9355 59.3187Z" fill="#312A91"/>
<path opacity="0.5" d="M26.9355 59.3187L1.31833 44.3696C-0.62972 43.254 -0.381385 41.2515 1.87018 39.9407L26.3891 25.633C28.6352 24.3222 32.0346 24.1828 33.9827 25.3151L59.6053 40.2586C61.5533 41.3742 61.3105 43.3767 59.0534 44.6876L34.529 59.0008C32.2774 60.3116 28.878 60.4566 26.9355 59.3187Z" fill="url(#paint22_linear_1240_187)"/>
<path d="M27.5977 56.0166L6.98037 43.9736C5.4131 43.0588 5.60625 41.458 7.42185 40.4037L27.1783 28.8739C28.9884 27.8141 31.7256 27.697 33.2984 28.6173L53.9322 40.6603C55.505 41.5751 55.3063 43.1704 53.4963 44.2302L33.7343 55.7544C31.9242 56.8142 29.187 56.9314 27.5977 56.0166Z" fill="#5CFFF3"/>
<path d="M7.42172 41.9655L27.1781 30.4358C28.9882 29.376 31.7254 29.2644 33.2982 30.1792L53.9321 42.2221C54.2748 42.4054 54.5655 42.6742 54.7764 43.0031C55.229 42.1608 54.9641 41.2627 53.9321 40.6603L33.2982 28.6173C31.7254 27.697 28.9882 27.8141 27.1781 28.8739L7.42172 40.4037C6.05311 41.1958 5.60611 42.3002 6.14141 43.1927C6.44785 42.672 6.891 42.2472 7.42172 41.9655Z" fill="#42E8E0"/>
<path opacity="0.5" d="M27.7963 59.3188L2.17918 44.3697C0.231127 43.254 -0.232431 41.5806 2.73103 39.9407L27.25 25.6331C28.4381 24.9783 29.7606 24.6116 31.113 24.5621C29.4708 24.4729 27.8362 24.8435 26.3891 25.6331L1.86462 39.9407C-0.381433 41.2515 -0.629768 43.2373 1.31276 44.3697L26.9299 59.3188C28.0846 59.9193 29.3828 60.1802 30.677 60.0718C29.6718 60.0511 28.6854 59.7932 27.7963 59.3188Z" fill="url(#paint23_linear_1240_187)"/>
<path opacity="0.5" d="M59.0533 46.8295L34.5288 61.1595C32.2773 62.4703 28.8778 62.6153 26.9353 61.4774L1.31817 46.5283C0.385532 45.9705 -0.0393963 45.2454 0.0157893 44.4756H0.00475215V45.5298C-0.0504334 46.2996 0.374495 47.0415 1.30713 47.5881L26.9243 62.5372C28.8668 63.6528 32.2662 63.5301 34.5178 62.2193L59.0533 47.9061C60.3501 47.153 60.9793 46.1713 60.9075 45.2565V44.2023C60.9737 45.1115 60.3446 46.0932 59.0533 46.8295Z" fill="url(#paint24_linear_1240_187)"/>
<path d="M54.6054 45.4406C54.6664 45.4616 54.7194 45.5015 54.757 45.5545C54.7945 45.6075 54.8147 45.671 54.8147 45.7362C54.8147 45.8014 54.7945 45.865 54.757 45.918C54.7194 45.971 54.6664 46.0108 54.6054 46.0319C54.4479 46.1118 54.274 46.1535 54.0977 46.1535C53.9214 46.1535 53.7475 46.1118 53.59 46.0319C53.3085 45.8645 53.3085 45.6024 53.59 45.4406C53.7475 45.3606 53.9214 45.319 54.0977 45.319C54.274 45.319 54.4479 45.3606 54.6054 45.4406Z" fill="#FCCC6B"/>
<path d="M56.1781 44.5202C56.2392 44.5413 56.2921 44.5811 56.3297 44.6341C56.3672 44.6871 56.3874 44.7507 56.3874 44.8158C56.3874 44.881 56.3672 44.9446 56.3297 44.9976C56.2921 45.0506 56.2392 45.0904 56.1781 45.1115C56.0219 45.1927 55.8488 45.2351 55.6732 45.2351C55.4975 45.2351 55.3244 45.1927 55.1682 45.1115C55.1072 45.0904 55.0542 45.0506 55.0167 44.9976C54.9792 44.9446 54.959 44.881 54.959 44.8158C54.959 44.7507 54.9792 44.6871 55.0167 44.6341C55.0542 44.5811 55.1072 44.5413 55.1682 44.5202C55.3244 44.439 55.4975 44.3966 55.6732 44.3966C55.8488 44.3966 56.0219 44.439 56.1781 44.5202Z" fill="#FCCC6B"/>
<path d="M57.7566 43.5999C57.8177 43.6209 57.8707 43.6608 57.9082 43.7138C57.9457 43.7668 57.9659 43.8303 57.9659 43.8955C57.9659 43.9607 57.9457 44.0243 57.9082 44.0773C57.8707 44.1303 57.8177 44.1701 57.7566 44.1912C57.5991 44.2711 57.4252 44.3128 57.2489 44.3128C57.0726 44.3128 56.8988 44.2711 56.7412 44.1912C56.6802 44.1701 56.6272 44.1303 56.5897 44.0773C56.5522 44.0243 56.532 43.9607 56.532 43.8955C56.532 43.8303 56.5522 43.7668 56.5897 43.7138C56.6272 43.6608 56.6802 43.6209 56.7412 43.5999C56.8988 43.5199 57.0726 43.4783 57.2489 43.4783C57.4252 43.4783 57.5991 43.5199 57.7566 43.5999Z" fill="#FCCC6B"/>
<path opacity="0.5" d="M112.324 71.4956L96.1327 62.052C94.9075 61.3324 95.0566 60.0774 96.4803 59.263L111.976 50.2043C113.4 49.3787 115.547 49.2839 116.778 50.0035L132.969 59.4526C134.194 60.1722 134.04 61.4217 132.621 62.2416L117.125 71.2836C115.701 72.1259 113.555 72.2152 112.324 71.4956Z" fill="#0B0244"/>
<path opacity="0.5" d="M144.994 60.7244C145.002 60.6335 145.002 60.542 144.994 60.4511V46.9523L123.775 47.0471L118.074 43.7003C116.132 42.5847 112.732 42.7074 110.481 44.0182L105.183 47.1084L84.1022 47.2033V60.7021C84.047 61.4719 84.4664 62.2137 85.4046 62.7604L111.016 77.7095C112.964 78.8251 116.364 78.7024 118.61 77.3915L143.134 63.0783C144.304 62.3978 144.922 61.5332 144.983 60.7021L144.994 60.7244Z" fill="#5CFFF3"/>
<path d="M144.994 46.9411V42.1105H132.66L118.102 33.5985C116.154 32.4829 112.754 32.6056 110.508 33.9164L96.4416 42.1105H84.0965V47.2144C84.0414 47.9842 84.4663 48.7261 85.3989 49.2727L111.016 64.2162C112.964 65.3318 116.364 65.2147 118.61 63.8983L143.145 49.6185C144.442 48.832 145.066 47.8559 144.994 46.9411Z" fill="#312A91"/>
<path opacity="0.5" d="M144.994 46.9411V42.1105H132.66L118.102 33.5985C116.154 32.4829 112.754 32.6056 110.508 33.9164L96.4416 42.1105H84.0965V47.2144C84.0414 47.9842 84.4663 48.7261 85.3989 49.2727L111.016 64.2162C112.964 65.3318 116.364 65.2147 118.61 63.8983L143.145 49.6185C144.442 48.832 145.066 47.8559 144.994 46.9411Z" fill="url(#paint25_linear_1240_187)"/>
<path d="M118.102 33.5985C117.014 33.0332 115.797 32.7695 114.576 32.8343V64.9805C116 64.962 117.399 64.5904 118.648 63.8983L143.145 49.6186C144.442 48.86 145.066 47.8838 144.994 46.969V42.1106H132.66L118.102 33.5985Z" fill="url(#paint26_linear_1240_187)"/>
<path d="M111.027 59.1012L85.4101 44.1521C83.4675 43.0365 83.7104 41.034 85.9619 39.7231L110.486 25.4099C112.732 24.0991 116.132 23.954 118.08 25.092L143.697 40.0411C145.64 41.1567 145.397 43.1592 143.145 44.47L118.621 58.7832C116.375 60.1052 112.975 60.2502 111.027 59.1012Z" fill="#312A91"/>
<path opacity="0.5" d="M111.027 59.1012L85.4101 44.1521C83.4675 43.0365 83.7104 41.034 85.9619 39.7231L110.486 25.4099C112.732 24.0991 116.132 23.954 118.08 25.092L143.697 40.0411C145.64 41.1567 145.397 43.1592 143.145 44.47L118.621 58.7832C116.375 60.1052 112.975 60.2502 111.027 59.1012Z" fill="url(#paint27_linear_1240_187)"/>
<path opacity="0.5" d="M111.888 59.1012L86.2709 44.1521C84.3284 43.0365 83.8593 41.3631 86.8228 39.7232L111.347 25.41C112.534 24.7527 113.857 24.3859 115.21 24.339C113.575 24.2539 111.949 24.6244 110.508 25.41L85.9564 39.7343C83.7103 41.0452 83.4675 43.0309 85.4045 44.1633L111.027 59.1012C112.185 59.6969 113.484 59.9575 114.78 59.8543C113.771 59.8353 112.78 59.5774 111.888 59.1012Z" fill="url(#paint28_linear_1240_187)"/>
<path opacity="0.5" d="M143.145 46.6399L118.621 60.9531C116.375 62.264 112.975 62.409 111.027 61.2711L85.4099 46.322C84.4773 45.7642 84.0523 45.0334 84.1075 44.2693V45.3235C84.0523 46.0933 84.4773 46.8351 85.4099 47.3818L111.027 62.3309C112.975 63.4465 116.375 63.3238 118.621 62.0129L143.145 47.6997C144.442 46.9411 145.065 45.965 144.994 45.0502V43.9904C145.065 44.9052 144.442 45.8869 143.145 46.6399Z" fill="url(#paint29_linear_1240_187)"/>
<path opacity="0.5" d="M69.3236 119.282L46.1953 105.784C44.4404 104.757 44.6611 102.967 46.6864 101.784L68.8269 88.8599C70.8577 87.6774 73.926 87.5491 75.6864 88.5755L98.8147 102.052C100.57 103.078 100.349 104.869 98.318 106.057L76.161 118.992C74.1468 120.175 71.0785 120.303 69.3236 119.282Z" fill="#0B0244"/>
<path d="M102.948 90.115V85.2844H90.6139L76.0284 76.7724C74.0803 75.6567 70.6809 75.7795 68.4349 77.0903L54.3957 85.2844H42.0507V90.3939C41.9955 91.1581 42.4204 91.9 43.353 92.4466L68.9867 107.396C70.9348 108.511 74.3342 108.389 76.5802 107.078L101.105 92.7646C102.396 92.0115 103.02 91.0298 102.948 90.115Z" fill="#312A91"/>
<path opacity="0.5" d="M102.948 90.115V85.2844H90.6139L76.0284 76.7724C74.0803 75.6567 70.6809 75.7795 68.4349 77.0903L54.3957 85.2844H42.0507V90.3939C41.9955 91.1581 42.4204 91.9 43.353 92.4466L68.9867 107.396C70.9348 108.511 74.3342 108.389 76.5802 107.078L101.105 92.7646C102.396 92.0115 103.02 91.0298 102.948 90.115Z" fill="url(#paint30_linear_1240_187)"/>
<path d="M76.0286 76.7724C74.941 76.2065 73.7235 75.9446 72.5022 76.0138V108.154C73.9261 108.135 75.3239 107.766 76.5749 107.078L101.099 92.7646C102.396 92.0116 103.02 91.0298 102.948 90.115V85.2845H90.6141L76.0286 76.7724Z" fill="url(#paint31_linear_1240_187)"/>
<path d="M68.9868 102.286L43.3642 87.3427C41.4216 86.2271 41.6645 84.219 43.916 82.9081L68.435 68.5838C70.681 67.2674 74.0804 67.1279 76.0285 68.2658L101.64 83.2094C103.588 84.325 103.345 86.3331 101.088 87.6439L76.5638 101.952C74.3288 103.285 70.9294 103.424 68.9868 102.286Z" fill="#312A91"/>
<path opacity="0.5" d="M68.9868 102.286L43.3642 87.3427C41.4216 86.2271 41.6645 84.219 43.916 82.9081L68.435 68.5838C70.681 67.2674 74.0804 67.1279 76.0285 68.2658L101.64 83.2094C103.588 84.325 103.345 86.3331 101.088 87.6439L76.5638 101.952C74.3288 103.285 70.9294 103.424 68.9868 102.286Z" fill="url(#paint32_linear_1240_187)"/>
<path d="M69.6655 98.984L49.0261 86.9411C47.4589 86.0263 47.6575 84.4254 49.4676 83.3712L69.224 71.8414C71.0341 70.7816 73.7768 70.67 75.3441 71.5848L95.9835 83.6445C97.5508 84.5593 97.3521 86.1602 95.542 87.2144L75.7856 98.7051C73.9534 99.7873 71.2328 99.8988 69.6655 98.984Z" fill="#5CFFF3"/>
<path d="M49.4677 84.933L69.2242 73.4032C71.0342 72.3434 73.777 72.2318 75.3442 73.1466L95.9836 85.1896C96.3229 85.3781 96.611 85.6483 96.8224 85.9761C97.275 85.1282 97.0156 84.2302 95.9836 83.6278L75.3442 71.5848C73.777 70.67 71.0342 70.7816 69.2242 71.8414L49.4677 83.3712C48.1047 84.1688 47.6577 85.2677 48.1874 86.1602C48.4965 85.6416 48.939 85.2175 49.4677 84.933Z" fill="#42E8E0"/>
<path opacity="0.5" d="M69.8422 102.286L44.225 87.3427C42.277 86.2271 41.8134 84.5537 44.7769 82.9081L69.2958 68.5838C70.4826 67.9248 71.8056 67.556 73.1588 67.5072C71.5159 67.4171 69.8806 67.7898 68.4349 68.5838L43.9105 82.9081C41.6644 84.219 41.4216 86.2048 43.3586 87.3427L68.9868 102.286C70.1436 102.887 71.4431 103.149 72.7394 103.045C71.7278 103.028 70.7348 102.768 69.8422 102.286Z" fill="url(#paint33_linear_1240_187)"/>
<path opacity="0.5" d="M101.099 89.8194L76.5749 104.127C74.3289 105.443 70.9294 105.583 68.9814 104.445L43.3643 89.5014C42.4316 88.9436 42.0067 88.2129 42.0619 87.4431V88.5029C42.0067 89.2727 42.4316 90.0146 43.3643 90.5556L68.9869 105.505C70.935 106.62 74.3344 106.498 76.5804 105.187L101.099 90.8959C102.396 90.1373 103.02 89.1556 102.948 88.2463V87.1865C103.02 88.1069 102.396 89.0607 101.099 89.8194Z" fill="url(#paint34_linear_1240_187)"/>
<path d="M96.6514 88.4081C96.7125 88.4292 96.7654 88.469 96.803 88.522C96.8405 88.575 96.8607 88.6386 96.8607 88.7038C96.8607 88.7689 96.8405 88.8325 96.803 88.8855C96.7654 88.9385 96.7125 88.9783 96.6514 88.9994C96.4939 89.0794 96.32 89.121 96.1437 89.121C95.9674 89.121 95.7936 89.0794 95.636 88.9994C95.575 88.9783 95.522 88.9385 95.4845 88.8855C95.4469 88.8325 95.4268 88.7689 95.4268 88.7038C95.4268 88.6386 95.4469 88.575 95.4845 88.522C95.522 88.469 95.575 88.4292 95.636 88.4081C95.7936 88.3281 95.9674 88.2865 96.1437 88.2865C96.32 88.2865 96.4939 88.3281 96.6514 88.4081Z" fill="#FCCC6B"/>
<path d="M98.2353 87.4877C98.2963 87.5088 98.3493 87.5486 98.3868 87.6016C98.4243 87.6546 98.4445 87.7182 98.4445 87.7834C98.4445 87.8485 98.4243 87.9121 98.3868 87.9651C98.3493 88.0181 98.2963 88.0579 98.2353 88.079C98.0791 88.1602 97.906 88.2026 97.7303 88.2026C97.5547 88.2026 97.3815 88.1602 97.2254 88.079C97.1643 88.0579 97.1113 88.0181 97.0738 87.9651C97.0363 87.9121 97.0161 87.8485 97.0161 87.7834C97.0161 87.7182 97.0363 87.6546 97.0738 87.6016C97.1113 87.5486 97.1643 87.5088 97.2254 87.4877C97.3815 87.4065 97.5547 87.3641 97.7303 87.3641C97.906 87.3641 98.0791 87.4065 98.2353 87.4877Z" fill="#FCCC6B"/>
<path d="M99.8024 86.5673C99.8634 86.5884 99.9164 86.6282 99.9539 86.6812C99.9915 86.7342 100.012 86.7978 100.012 86.863C100.012 86.9281 99.9915 86.9917 99.9539 87.0447C99.9164 87.0977 99.8634 87.1375 99.8024 87.1586C99.6462 87.2398 99.4731 87.2822 99.2974 87.2822C99.1218 87.2822 98.9487 87.2398 98.7925 87.1586C98.7315 87.1375 98.6785 87.0977 98.641 87.0447C98.6034 86.9917 98.5833 86.9281 98.5833 86.863C98.5833 86.7978 98.6034 86.7342 98.641 86.6812C98.6785 86.6282 98.7315 86.5884 98.7925 86.5673C98.9487 86.4861 99.1218 86.4437 99.2974 86.4437C99.4731 86.4437 99.6462 86.4861 99.8024 86.5673Z" fill="#FCCC6B"/>
<path opacity="0.5" d="M70.2781 96.0667L54.0866 86.6231C52.856 85.9036 52.9829 84.6485 54.4343 83.8341L69.9304 74.7922C71.3542 73.961 73.5009 73.8718 74.7315 74.5913L90.9175 84.0405C92.1481 84.7545 91.9936 86.0096 90.5753 86.8295L75.0571 95.8659C73.6554 96.697 71.5087 96.7863 70.2781 96.0667Z" fill="#0B0244"/>
<path opacity="0.5" d="M102.948 85.2845C102.953 85.1934 102.953 85.1021 102.948 85.0111V71.5123L81.729 71.6071L76.0284 68.2603C74.0803 67.1447 70.6809 67.2619 68.4349 68.5783L63.137 71.6685L42.0507 71.7633V85.2621C41.9955 86.0319 42.4204 86.7738 43.353 87.3204L68.9867 102.286C70.9348 103.402 74.3342 103.285 76.5802 101.968L101.105 87.6607C102.269 86.9802 102.893 86.1156 102.953 85.2845H102.948Z" fill="#5CFFF3"/>
<path d="M102.948 71.5123V66.6761H90.6139L76.0284 58.1696C74.0803 57.054 70.6809 57.1712 68.4349 58.4876L54.3957 66.6761H42.0507V71.7856C41.9955 72.5554 42.4204 73.2972 43.353 73.8383L68.9867 88.7874C70.9348 89.903 74.3342 89.7803 76.5802 88.4694L101.099 74.1618C102.396 73.4032 103.02 72.4215 102.948 71.5123Z" fill="#312A91"/>
<path opacity="0.5" d="M102.948 71.5123V66.6761H90.6139L76.0284 58.1696C74.0803 57.054 70.6809 57.1712 68.4349 58.4876L54.3957 66.6761H42.0507V71.7856C41.9955 72.5554 42.4204 73.2972 43.353 73.8383L68.9867 88.7874C70.9348 89.903 74.3342 89.7803 76.5802 88.4694L101.099 74.1618C102.396 73.4032 103.02 72.4215 102.948 71.5123Z" fill="url(#paint35_linear_1240_187)"/>
<path d="M76.0286 58.1697C74.9415 57.6018 73.724 57.338 72.5022 57.4055V89.5516C73.9262 89.5282 75.3235 89.1569 76.5749 88.4695L101.099 74.1619C102.396 73.4032 103.02 72.4215 102.948 71.5123V66.6762H90.6141L76.0286 58.1697Z" fill="url(#paint36_linear_1240_187)"/>
<path d="M68.9869 83.6836L43.3698 68.7345C41.4273 67.6189 41.6701 65.6164 43.9217 64.3055L68.4351 49.9923C70.6811 48.6815 74.0805 48.5364 76.0286 49.6744L101.64 64.6235C103.588 65.7391 103.345 67.7416 101.088 69.0524L76.5749 83.3656C74.3289 84.6765 70.9295 84.8159 68.9869 83.6836Z" fill="#312A91"/>
<path opacity="0.5" d="M68.9869 83.6836L43.3698 68.7345C41.4273 67.6189 41.6701 65.6164 43.9217 64.3055L68.4351 49.9923C70.6811 48.6815 74.0805 48.5364 76.0286 49.6744L101.64 64.6235C103.588 65.7391 103.345 67.7416 101.088 69.0524L76.5749 83.3656C74.3289 84.6765 70.9295 84.8159 68.9869 83.6836Z" fill="url(#paint37_linear_1240_187)"/>
<path opacity="0.5" d="M69.8422 83.6835L44.225 68.7344C42.277 67.6188 41.8134 65.9454 44.7769 64.3055L69.3013 49.9923C70.4885 49.335 71.8115 48.9682 73.1643 48.9213C71.5201 48.8281 69.8826 49.1989 68.4349 49.9923L43.9105 64.3055C41.6644 65.6163 41.4216 67.5965 43.3586 68.7344L68.9868 83.6835C70.1451 84.2792 71.4438 84.5398 72.7394 84.4366C71.7286 84.4185 70.7362 84.1605 69.8422 83.6835Z" fill="url(#paint38_linear_1240_187)"/>
<path opacity="0.5" d="M101.099 71.2111L76.5749 85.5243C74.3289 86.8351 70.9294 86.9746 68.9814 85.8423L43.3643 70.8932C42.4316 70.3354 42.0067 69.6046 42.0619 68.8349V69.8947C42.0067 70.6645 42.4316 71.4063 43.3643 71.953L68.9869 86.8965C70.935 88.0121 74.3344 87.895 76.5804 86.5786L101.105 72.2709C102.402 71.5123 103.025 70.5362 102.954 69.6214V68.5839C103.02 69.4763 102.396 70.4525 101.099 71.2111Z" fill="url(#paint39_linear_1240_187)"/>
<path opacity="0.2" d="M70.4658 67.7583C70.5801 67.7989 70.6791 67.8744 70.7491 67.9743C70.8192 68.0742 70.8568 68.1936 70.8568 68.3161C70.8568 68.4385 70.8192 68.558 70.7491 68.6579C70.6791 68.7578 70.5801 68.8333 70.4658 68.8739C70.1668 69.0251 69.8371 69.1038 69.5028 69.1038C69.1685 69.1038 68.8388 69.0251 68.5398 68.8739C68.428 68.8308 68.3317 68.7545 68.2637 68.6548C68.1958 68.5552 68.1594 68.4371 68.1594 68.3161C68.1594 68.1951 68.1958 68.077 68.2637 67.9773C68.3317 67.8777 68.428 67.8013 68.5398 67.7583C68.8388 67.6071 69.1685 67.5284 69.5028 67.5284C69.8371 67.5284 70.1668 67.6071 70.4658 67.7583Z" fill="#5CFFF3"/>
<path opacity="0.6" d="M73.4678 66.0068C73.5797 66.0498 73.676 66.1262 73.7439 66.2258C73.8118 66.3254 73.8482 66.4436 73.8482 66.5646C73.8482 66.6856 73.8118 66.8037 73.7439 66.9033C73.676 67.0029 73.5797 67.0793 73.4678 67.1224C73.1696 67.2761 72.8396 67.3563 72.5048 67.3563C72.17 67.3563 71.84 67.2761 71.5418 67.1224C71.4275 67.0818 71.3285 67.0063 71.2585 66.9064C71.1885 66.8064 71.1509 66.687 71.1509 66.5646C71.1509 66.4421 71.1885 66.3227 71.2585 66.2228C71.3285 66.1228 71.4275 66.0474 71.5418 66.0068C71.8408 65.8556 72.1705 65.7769 72.5048 65.7769C72.8391 65.7769 73.1688 65.8556 73.4678 66.0068Z" fill="#5CFFF3"/>
<path d="M76.4644 64.2609C77.0162 64.5676 77.0162 65.0697 76.4644 65.3765C76.1662 65.5302 75.8362 65.6104 75.5014 65.6104C75.1666 65.6104 74.8366 65.5302 74.5384 65.3765C74.4241 65.3358 74.3251 65.2604 74.2551 65.1605C74.1851 65.0605 74.1475 64.9411 74.1475 64.8187C74.1475 64.6962 74.1851 64.5768 74.2551 64.4769C74.3251 64.3769 74.4241 64.3015 74.5384 64.2609C74.8366 64.1071 75.1666 64.0269 75.5014 64.0269C75.8362 64.0269 76.1662 64.1071 76.4644 64.2609Z" fill="#5CFFF3"/>
<path opacity="0.5" d="M72.3365 80.0077C71.4589 80.0434 70.5869 79.8513 69.8035 79.4499L50.8638 68.3663C50.5603 68.2233 50.3006 68.0001 50.1122 67.7203C49.9237 67.4405 49.8135 67.1145 49.7932 66.7766C49.7932 66.0347 50.3451 65.2984 51.2667 64.7518L69.4006 54.1535C71.1114 53.1551 73.7161 53.0379 75.2062 53.9192L94.1458 64.9693C94.4491 65.1135 94.7082 65.3379 94.8957 65.6187C95.0832 65.8996 95.1921 66.2264 95.2109 66.5646C95.2109 67.3009 94.6591 68.0428 93.743 68.5839L75.609 79.1821C74.6055 79.7344 73.4791 80.0186 72.3365 80.0077ZM69.9966 79.0817C71.3763 79.8905 73.81 79.7845 75.4159 78.8474L93.5498 68.2492C94.361 67.7751 94.8246 67.1336 94.8246 66.5758C94.8032 66.307 94.7111 66.0489 94.5578 65.8282C94.4045 65.6075 94.1956 65.4323 93.9527 65.3207L75.013 54.2762C73.6278 53.4674 71.1942 53.5734 69.5938 54.5105L51.4598 65.1088C50.6486 65.5829 50.1795 66.2244 50.1795 66.7822C50.2027 67.0498 50.2963 67.3062 50.4506 67.5249C50.6049 67.7436 50.8142 67.9167 51.057 68.0261L69.9966 79.0817Z" fill="#0B0244"/>
<path opacity="0.5" d="M114.382 55.6484C113.5 55.673 112.626 55.4695 111.844 55.0571L92.9097 44.0071C92.6058 43.8631 92.3459 43.639 92.1574 43.3582C91.969 43.0774 91.859 42.7504 91.8391 42.4118C91.8391 41.6755 92.391 40.9392 93.3126 40.3925L111.441 29.7943C113.152 28.7958 115.762 28.6787 117.252 29.56L136.192 40.6101C136.494 40.7538 136.753 40.9774 136.94 41.2571C137.128 41.5369 137.237 41.8625 137.257 42.1998C137.257 42.9417 136.705 43.678 135.789 44.2246L117.655 54.8229C116.651 55.3752 115.525 55.6593 114.382 55.6484ZM112.031 54.7225C113.417 55.5257 115.85 55.4197 117.456 54.4882L135.59 43.8899C136.401 43.4158 136.865 42.7743 136.865 42.2165C136.843 41.9487 136.75 41.6918 136.597 41.4721C136.444 41.2525 136.235 41.0782 135.993 40.9671L117.059 29.9114C115.674 29.1082 113.24 29.2086 111.634 30.1457L93.5057 40.7439C92.689 41.2181 92.2254 41.8595 92.2254 42.4173C92.2468 42.6861 92.3389 42.9442 92.4922 43.1649C92.6455 43.3856 92.8545 43.5608 93.0973 43.6724L112.031 54.7225Z" fill="#0B0244"/>
<path opacity="0.5" d="M72.3366 31.1609C71.4408 31.185 70.5538 30.9777 69.7594 30.5584L50.8198 19.4972C50.504 19.3443 50.2348 19.1082 50.0406 18.8137C49.8464 18.5192 49.7343 18.1773 49.7161 17.8238C49.7161 17.0485 50.2679 16.2899 51.2281 15.7265L69.3621 5.12824C71.0949 4.11304 73.7383 4.01264 75.2504 4.89396L94.1846 15.9831C94.5018 16.134 94.7723 16.3697 94.9668 16.6646C95.1613 16.9594 95.2724 17.3024 95.2883 17.6565C95.2883 18.4262 94.7364 19.1904 93.7762 19.7482L75.6477 30.3465C74.6299 30.8965 73.4907 31.1767 72.3366 31.1609ZM70.0354 30.0955C71.3985 30.8875 73.7935 30.7816 75.3773 29.8612L93.5058 19.263C94.2949 18.8 94.7419 18.2143 94.7419 17.6509C94.7221 17.396 94.634 17.1513 94.4873 16.943C94.3405 16.7347 94.1405 16.5707 93.9086 16.4684L74.969 5.41272C73.6114 4.62064 71.2163 4.72662 69.6325 5.65257L51.4986 16.2508C50.7149 16.7082 50.2624 17.266 50.2624 17.8238C50.2855 18.0771 50.3749 18.3196 50.5213 18.5264C50.6678 18.7332 50.866 18.897 51.0957 19.0008L70.0354 30.0955Z" fill="#0B0244"/>
<defs>
<linearGradient id="paint0_linear_1240_187" x1="28.5909" y1="43.1536" x2="89.4881" y2="43.1536" gradientUnits="userSpaceOnUse">
<stop stop-color="#42E8E0"/>
<stop offset="0.1" stop-color="#3CCACE"/>
<stop offset="0.34" stop-color="#2F87A5"/>
<stop offset="0.56" stop-color="#255385"/>
<stop offset="0.75" stop-color="#1E2D6E"/>
<stop offset="0.91" stop-color="#1A1660"/>
<stop offset="1" stop-color="#180D5B"/>
</linearGradient>
<linearGradient id="paint1_linear_1240_187" x1="72.5022" y1="43.148" x2="102.954" y2="43.148" gradientUnits="userSpaceOnUse">
<stop stop-color="#2B237C"/>
<stop offset="1" stop-color="#180D5B"/>
</linearGradient>
<linearGradient id="paint2_linear_1240_187" x1="42.0508" y1="36.354" x2="102.959" y2="36.354" gradientUnits="userSpaceOnUse">
<stop stop-color="#42E8E0"/>
<stop offset="0.1" stop-color="#3CCACE"/>
<stop offset="0.34" stop-color="#2F87A5"/>
<stop offset="0.56" stop-color="#255385"/>
<stop offset="0.75" stop-color="#1E2D6E"/>
<stop offset="0.91" stop-color="#1A1660"/>
<stop offset="1" stop-color="#180D5B"/>
</linearGradient>
<linearGradient id="paint3_linear_1240_187" x1="42.0507" y1="36.354" x2="73.1367" y2="36.354" gradientUnits="userSpaceOnUse">
<stop stop-color="#42E8E0"/>
<stop offset="0.1" stop-color="#3CCACE"/>
<stop offset="0.34" stop-color="#2F87A5"/>
<stop offset="0.56" stop-color="#255385"/>
<stop offset="0.75" stop-color="#1E2D6E"/>
<stop offset="0.91" stop-color="#1A1660"/>
<stop offset="1" stop-color="#180D5B"/>
</linearGradient>
<linearGradient id="paint4_linear_1240_187" x1="50.3342" y1="54.265" x2="101.64" y2="21.0886" gradientUnits="userSpaceOnUse">
<stop stop-color="#42E8E0"/>
<stop offset="0.1" stop-color="#3CCACE"/>
<stop offset="0.34" stop-color="#2F87A5"/>
<stop offset="0.56" stop-color="#255385"/>
<stop offset="0.75" stop-color="#1E2D6E"/>
<stop offset="0.91" stop-color="#1A1660"/>
<stop offset="1" stop-color="#180D5B"/>
</linearGradient>
<linearGradient id="paint5_linear_1240_187" x1="-13.455" y1="67.7248" x2="47.4422" y2="67.7248" gradientUnits="userSpaceOnUse">
<stop stop-color="#42E8E0"/>
<stop offset="0.1" stop-color="#3CCACE"/>
<stop offset="0.34" stop-color="#2F87A5"/>
<stop offset="0.56" stop-color="#255385"/>
<stop offset="0.75" stop-color="#1E2D6E"/>
<stop offset="0.91" stop-color="#1A1660"/>
<stop offset="1" stop-color="#180D5B"/>
</linearGradient>
<linearGradient id="paint6_linear_1240_187" x1="30.4563" y1="67.7193" x2="60.9077" y2="67.7193" gradientUnits="userSpaceOnUse">
<stop stop-color="#2B237C"/>
<stop offset="1" stop-color="#180D5B"/>
</linearGradient>
<linearGradient id="paint7_linear_1240_187" x1="0.00491375" y1="60.9196" x2="60.9077" y2="60.9196" gradientUnits="userSpaceOnUse">
<stop stop-color="#42E8E0"/>
<stop offset="0.1" stop-color="#3CCACE"/>
<stop offset="0.34" stop-color="#2F87A5"/>
<stop offset="0.56" stop-color="#255385"/>
<stop offset="0.75" stop-color="#1E2D6E"/>
<stop offset="0.91" stop-color="#1A1660"/>
<stop offset="1" stop-color="#180D5B"/>
</linearGradient>
<linearGradient id="paint8_linear_1240_187" x1="0.00486604" y1="60.9252" x2="31.0909" y2="60.9252" gradientUnits="userSpaceOnUse">
<stop stop-color="#42E8E0"/>
<stop offset="0.1" stop-color="#3CCACE"/>
<stop offset="0.34" stop-color="#2F87A5"/>
<stop offset="0.56" stop-color="#255385"/>
<stop offset="0.75" stop-color="#1E2D6E"/>
<stop offset="0.91" stop-color="#1A1660"/>
<stop offset="1" stop-color="#180D5B"/>
</linearGradient>
<linearGradient id="paint9_linear_1240_187" x1="8.2881" y1="78.8362" x2="59.5887" y2="45.6598" gradientUnits="userSpaceOnUse">
<stop stop-color="#42E8E0"/>
<stop offset="0.1" stop-color="#3CCACE"/>
<stop offset="0.34" stop-color="#2F87A5"/>
<stop offset="0.56" stop-color="#255385"/>
<stop offset="0.75" stop-color="#1E2D6E"/>
<stop offset="0.91" stop-color="#1A1660"/>
<stop offset="1" stop-color="#180D5B"/>
</linearGradient>
<linearGradient id="paint10_linear_1240_187" x1="70.6368" y1="67.5128" x2="131.54" y2="67.5128" gradientUnits="userSpaceOnUse">
<stop stop-color="#42E8E0"/>
<stop offset="0.1" stop-color="#3CCACE"/>
<stop offset="0.34" stop-color="#2F87A5"/>
<stop offset="0.56" stop-color="#255385"/>
<stop offset="0.75" stop-color="#1E2D6E"/>
<stop offset="0.91" stop-color="#1A1660"/>
<stop offset="1" stop-color="#180D5B"/>
</linearGradient>
<linearGradient id="paint11_linear_1240_187" x1="114.548" y1="67.5128" x2="144.999" y2="67.5128" gradientUnits="userSpaceOnUse">
<stop stop-color="#2B237C"/>
<stop offset="1" stop-color="#180D5B"/>
</linearGradient>
<linearGradient id="paint12_linear_1240_187" x1="84.0967" y1="60.7132" x2="145.005" y2="60.7132" gradientUnits="userSpaceOnUse">
<stop stop-color="#42E8E0"/>
<stop offset="0.1" stop-color="#3CCACE"/>
<stop offset="0.34" stop-color="#2F87A5"/>
<stop offset="0.56" stop-color="#255385"/>
<stop offset="0.75" stop-color="#1E2D6E"/>
<stop offset="0.91" stop-color="#1A1660"/>
<stop offset="1" stop-color="#180D5B"/>
</linearGradient>
<linearGradient id="paint13_linear_1240_187" x1="84.0966" y1="60.7132" x2="115.183" y2="60.7132" gradientUnits="userSpaceOnUse">
<stop stop-color="#42E8E0"/>
<stop offset="0.1" stop-color="#3CCACE"/>
<stop offset="0.34" stop-color="#2F87A5"/>
<stop offset="0.56" stop-color="#255385"/>
<stop offset="0.75" stop-color="#1E2D6E"/>
<stop offset="0.91" stop-color="#1A1660"/>
<stop offset="1" stop-color="#180D5B"/>
</linearGradient>
<linearGradient id="paint14_linear_1240_187" x1="92.3798" y1="78.6299" x2="143.686" y2="45.4534" gradientUnits="userSpaceOnUse">
<stop stop-color="#42E8E0"/>
<stop offset="0.1" stop-color="#3CCACE"/>
<stop offset="0.34" stop-color="#2F87A5"/>
<stop offset="0.56" stop-color="#255385"/>
<stop offset="0.75" stop-color="#1E2D6E"/>
<stop offset="0.91" stop-color="#1A1660"/>
<stop offset="1" stop-color="#180D5B"/>
</linearGradient>
<linearGradient id="paint15_linear_1240_187" x1="28.5909" y1="24.5453" x2="89.4881" y2="24.5453" gradientUnits="userSpaceOnUse">
<stop stop-color="#42E8E0"/>
<stop offset="0.1" stop-color="#3CCACE"/>
<stop offset="0.34" stop-color="#2F87A5"/>
<stop offset="0.56" stop-color="#255385"/>
<stop offset="0.75" stop-color="#1E2D6E"/>
<stop offset="0.91" stop-color="#1A1660"/>
<stop offset="1" stop-color="#180D5B"/>
</linearGradient>
<linearGradient id="paint16_linear_1240_187" x1="72.5022" y1="24.5453" x2="102.954" y2="24.5453" gradientUnits="userSpaceOnUse">
<stop stop-color="#2B237C"/>
<stop offset="1" stop-color="#180D5B"/>
</linearGradient>
<linearGradient id="paint17_linear_1240_187" x1="42.0508" y1="17.7457" x2="102.959" y2="17.7457" gradientUnits="userSpaceOnUse">
<stop stop-color="#42E8E0"/>
<stop offset="0.1" stop-color="#3CCACE"/>
<stop offset="0.34" stop-color="#2F87A5"/>
<stop offset="0.56" stop-color="#255385"/>
<stop offset="0.75" stop-color="#1E2D6E"/>
<stop offset="0.91" stop-color="#1A1660"/>
<stop offset="1" stop-color="#180D5B"/>
</linearGradient>
<linearGradient id="paint18_linear_1240_187" x1="42.0507" y1="17.7457" x2="73.1367" y2="17.7457" gradientUnits="userSpaceOnUse">
<stop stop-color="#42E8E0"/>
<stop offset="0.1" stop-color="#3CCACE"/>
<stop offset="0.34" stop-color="#2F87A5"/>
<stop offset="0.56" stop-color="#255385"/>
<stop offset="0.75" stop-color="#1E2D6E"/>
<stop offset="0.91" stop-color="#1A1660"/>
<stop offset="1" stop-color="#180D5B"/>
</linearGradient>
<linearGradient id="paint19_linear_1240_187" x1="50.3342" y1="35.6568" x2="101.64" y2="2.48036" gradientUnits="userSpaceOnUse">
<stop stop-color="#42E8E0"/>
<stop offset="0.1" stop-color="#3CCACE"/>
<stop offset="0.34" stop-color="#2F87A5"/>
<stop offset="0.56" stop-color="#255385"/>
<stop offset="0.75" stop-color="#1E2D6E"/>
<stop offset="0.91" stop-color="#1A1660"/>
<stop offset="1" stop-color="#180D5B"/>
</linearGradient>
<linearGradient id="paint20_linear_1240_187" x1="-13.455" y1="49.1165" x2="47.4422" y2="49.1165" gradientUnits="userSpaceOnUse">
<stop stop-color="#42E8E0"/>
<stop offset="0.1" stop-color="#3CCACE"/>
<stop offset="0.34" stop-color="#2F87A5"/>
<stop offset="0.56" stop-color="#255385"/>
<stop offset="0.75" stop-color="#1E2D6E"/>
<stop offset="0.91" stop-color="#1A1660"/>
<stop offset="1" stop-color="#180D5B"/>
</linearGradient>
<linearGradient id="paint21_linear_1240_187" x1="30.4563" y1="49.1166" x2="60.9077" y2="49.1166" gradientUnits="userSpaceOnUse">
<stop stop-color="#2B237C"/>
<stop offset="1" stop-color="#180D5B"/>
</linearGradient>
<linearGradient id="paint22_linear_1240_187" x1="0.00491375" y1="42.3169" x2="60.9077" y2="42.3169" gradientUnits="userSpaceOnUse">
<stop stop-color="#42E8E0"/>
<stop offset="0.1" stop-color="#3CCACE"/>
<stop offset="0.34" stop-color="#2F87A5"/>
<stop offset="0.56" stop-color="#255385"/>
<stop offset="0.75" stop-color="#1E2D6E"/>
<stop offset="0.91" stop-color="#1A1660"/>
<stop offset="1" stop-color="#180D5B"/>
</linearGradient>
<linearGradient id="paint23_linear_1240_187" x1="0.00486604" y1="42.3169" x2="31.0909" y2="42.3169" gradientUnits="userSpaceOnUse">
<stop stop-color="#42E8E0"/>
<stop offset="0.1" stop-color="#3CCACE"/>
<stop offset="0.34" stop-color="#2F87A5"/>
<stop offset="0.56" stop-color="#255385"/>
<stop offset="0.75" stop-color="#1E2D6E"/>
<stop offset="0.91" stop-color="#1A1660"/>
<stop offset="1" stop-color="#180D5B"/>
</linearGradient>
<linearGradient id="paint24_linear_1240_187" x1="8.2881" y1="60.2279" x2="59.5887" y2="27.0515" gradientUnits="userSpaceOnUse">
<stop stop-color="#42E8E0"/>
<stop offset="0.1" stop-color="#3CCACE"/>
<stop offset="0.34" stop-color="#2F87A5"/>
<stop offset="0.56" stop-color="#255385"/>
<stop offset="0.75" stop-color="#1E2D6E"/>
<stop offset="0.91" stop-color="#1A1660"/>
<stop offset="1" stop-color="#180D5B"/>
</linearGradient>
<linearGradient id="paint25_linear_1240_187" x1="70.6368" y1="48.9101" x2="131.54" y2="48.9101" gradientUnits="userSpaceOnUse">
<stop stop-color="#42E8E0"/>
<stop offset="0.1" stop-color="#3CCACE"/>
<stop offset="0.34" stop-color="#2F87A5"/>
<stop offset="0.56" stop-color="#255385"/>
<stop offset="0.75" stop-color="#1E2D6E"/>
<stop offset="0.91" stop-color="#1A1660"/>
<stop offset="1" stop-color="#180D5B"/>
</linearGradient>
<linearGradient id="paint26_linear_1240_187" x1="114.548" y1="48.9046" x2="144.999" y2="48.9046" gradientUnits="userSpaceOnUse">
<stop stop-color="#2B237C"/>
<stop offset="1" stop-color="#180D5B"/>
</linearGradient>
<linearGradient id="paint27_linear_1240_187" x1="84.0967" y1="42.1105" x2="145.005" y2="42.1105" gradientUnits="userSpaceOnUse">
<stop stop-color="#42E8E0"/>
<stop offset="0.1" stop-color="#3CCACE"/>
<stop offset="0.34" stop-color="#2F87A5"/>
<stop offset="0.56" stop-color="#255385"/>
<stop offset="0.75" stop-color="#1E2D6E"/>
<stop offset="0.91" stop-color="#1A1660"/>
<stop offset="1" stop-color="#180D5B"/>
</linearGradient>
<linearGradient id="paint28_linear_1240_187" x1="84.0966" y1="42.1106" x2="115.183" y2="42.1106" gradientUnits="userSpaceOnUse">
<stop stop-color="#42E8E0"/>
<stop offset="0.1" stop-color="#3CCACE"/>
<stop offset="0.34" stop-color="#2F87A5"/>
<stop offset="0.56" stop-color="#255385"/>
<stop offset="0.75" stop-color="#1E2D6E"/>
<stop offset="0.91" stop-color="#1A1660"/>
<stop offset="1" stop-color="#180D5B"/>
</linearGradient>
<linearGradient id="paint29_linear_1240_187" x1="92.3798" y1="60.0216" x2="143.686" y2="26.8452" gradientUnits="userSpaceOnUse">
<stop stop-color="#42E8E0"/>
<stop offset="0.1" stop-color="#3CCACE"/>
<stop offset="0.34" stop-color="#2F87A5"/>
<stop offset="0.56" stop-color="#255385"/>
<stop offset="0.75" stop-color="#1E2D6E"/>
<stop offset="0.91" stop-color="#1A1660"/>
<stop offset="1" stop-color="#180D5B"/>
</linearGradient>
<linearGradient id="paint30_linear_1240_187" x1="28.5909" y1="92.084" x2="89.4881" y2="92.084" gradientUnits="userSpaceOnUse">
<stop stop-color="#42E8E0"/>
<stop offset="0.1" stop-color="#3CCACE"/>
<stop offset="0.34" stop-color="#2F87A5"/>
<stop offset="0.56" stop-color="#255385"/>
<stop offset="0.75" stop-color="#1E2D6E"/>
<stop offset="0.91" stop-color="#1A1660"/>
<stop offset="1" stop-color="#180D5B"/>
</linearGradient>
<linearGradient id="paint31_linear_1240_187" x1="72.5022" y1="92.0841" x2="102.954" y2="92.0841" gradientUnits="userSpaceOnUse">
<stop stop-color="#2B237C"/>
<stop offset="1" stop-color="#180D5B"/>
</linearGradient>
<linearGradient id="paint32_linear_1240_187" x1="42.0508" y1="85.2844" x2="102.959" y2="85.2844" gradientUnits="userSpaceOnUse">
<stop stop-color="#42E8E0"/>
<stop offset="0.1" stop-color="#3CCACE"/>
<stop offset="0.34" stop-color="#2F87A5"/>
<stop offset="0.56" stop-color="#255385"/>
<stop offset="0.75" stop-color="#1E2D6E"/>
<stop offset="0.91" stop-color="#1A1660"/>
<stop offset="1" stop-color="#180D5B"/>
</linearGradient>
<linearGradient id="paint33_linear_1240_187" x1="42.0507" y1="85.2844" x2="73.1367" y2="85.2844" gradientUnits="userSpaceOnUse">
<stop stop-color="#42E8E0"/>
<stop offset="0.1" stop-color="#3CCACE"/>
<stop offset="0.34" stop-color="#2F87A5"/>
<stop offset="0.56" stop-color="#255385"/>
<stop offset="0.75" stop-color="#1E2D6E"/>
<stop offset="0.91" stop-color="#1A1660"/>
<stop offset="1" stop-color="#180D5B"/>
</linearGradient>
<linearGradient id="paint34_linear_1240_187" x1="50.3342" y1="103.195" x2="101.64" y2="70.0246" gradientUnits="userSpaceOnUse">
<stop stop-color="#42E8E0"/>
<stop offset="0.1" stop-color="#3CCACE"/>
<stop offset="0.34" stop-color="#2F87A5"/>
<stop offset="0.56" stop-color="#255385"/>
<stop offset="0.75" stop-color="#1E2D6E"/>
<stop offset="0.91" stop-color="#1A1660"/>
<stop offset="1" stop-color="#180D5B"/>
</linearGradient>
<linearGradient id="paint35_linear_1240_187" x1="28.5909" y1="73.4757" x2="89.4881" y2="73.4757" gradientUnits="userSpaceOnUse">
<stop stop-color="#42E8E0"/>
<stop offset="0.1" stop-color="#3CCACE"/>
<stop offset="0.34" stop-color="#2F87A5"/>
<stop offset="0.56" stop-color="#255385"/>
<stop offset="0.75" stop-color="#1E2D6E"/>
<stop offset="0.91" stop-color="#1A1660"/>
<stop offset="1" stop-color="#180D5B"/>
</linearGradient>
<linearGradient id="paint36_linear_1240_187" x1="72.5022" y1="73.4758" x2="102.954" y2="73.4758" gradientUnits="userSpaceOnUse">
<stop stop-color="#2B237C"/>
<stop offset="1" stop-color="#180D5B"/>
</linearGradient>
<linearGradient id="paint37_linear_1240_187" x1="42.0509" y1="66.6762" x2="102.959" y2="66.6762" gradientUnits="userSpaceOnUse">
<stop stop-color="#42E8E0"/>
<stop offset="0.1" stop-color="#3CCACE"/>
<stop offset="0.34" stop-color="#2F87A5"/>
<stop offset="0.56" stop-color="#255385"/>
<stop offset="0.75" stop-color="#1E2D6E"/>
<stop offset="0.91" stop-color="#1A1660"/>
<stop offset="1" stop-color="#180D5B"/>
</linearGradient>
<linearGradient id="paint38_linear_1240_187" x1="42.0507" y1="66.6762" x2="73.1367" y2="66.6762" gradientUnits="userSpaceOnUse">
<stop stop-color="#42E8E0"/>
<stop offset="0.1" stop-color="#3CCACE"/>
<stop offset="0.34" stop-color="#2F87A5"/>
<stop offset="0.56" stop-color="#255385"/>
<stop offset="0.75" stop-color="#1E2D6E"/>
<stop offset="0.91" stop-color="#1A1660"/>
<stop offset="1" stop-color="#180D5B"/>
</linearGradient>
<linearGradient id="paint39_linear_1240_187" x1="50.3342" y1="84.5928" x2="101.64" y2="51.4164" gradientUnits="userSpaceOnUse">
<stop stop-color="#42E8E0"/>
<stop offset="0.1" stop-color="#3CCACE"/>
<stop offset="0.34" stop-color="#2F87A5"/>
<stop offset="0.56" stop-color="#255385"/>
<stop offset="0.75" stop-color="#1E2D6E"/>
<stop offset="0.91" stop-color="#1A1660"/>
<stop offset="1" stop-color="#180D5B"/>
</linearGradient>
</defs>
</svg>
