<svg width="104" height="111" viewBox="0 0 104 111" fill="none" xmlns="http://www.w3.org/2000/svg">
<mask id="mask0_1240_421" style="mask-type:alpha" maskUnits="userSpaceOnUse" x="0" y="0" width="104" height="111">
<rect width="104" height="111" rx="4" fill="#D9D9D9"/>
</mask>
<g mask="url(#mask0_1240_421)">
<g opacity="0.11">
<path d="M34.3638 107.365C35.7667 106.584 37.3489 106.174 38.9582 106.174C40.5675 106.174 42.1497 106.584 43.5527 107.365L98.3503 137.907C98.5454 138.014 98.7079 138.171 98.8211 138.362C98.9343 138.552 98.994 138.769 98.994 138.99C98.994 139.211 98.9343 139.428 98.8211 139.619C98.7079 139.809 98.5454 139.966 98.3503 140.073L43.0984 170.948C41.8592 171.635 40.4625 171.996 39.0421 171.996C37.6217 171.996 36.225 171.635 34.9857 170.948L-20.35 140.108C-20.5468 140.001 -20.7109 139.844 -20.8253 139.653C-20.9397 139.462 -21 139.244 -21 139.021C-21 138.799 -20.9397 138.581 -20.8253 138.39C-20.7109 138.199 -20.5468 138.042 -20.35 137.935L34.3638 107.365Z" fill="url(#paint0_linear_1240_421)"/>
</g>
<g opacity="0.11">
<path d="M34.3638 98.4367C35.7667 97.6558 37.3489 97.2456 38.9582 97.2456C40.5675 97.2456 42.1497 97.6558 43.5527 98.4367L98.3503 128.979C98.5452 129.087 98.7075 129.245 98.8204 129.436C98.9334 129.627 98.9929 129.844 98.9929 130.066C98.9929 130.287 98.9334 130.504 98.8204 130.695C98.7075 130.886 98.5452 131.044 98.3503 131.152L43.0985 162.02C41.8602 162.711 40.4632 163.073 39.0421 163.073C37.621 163.073 36.2239 162.711 34.9857 162.02L-20.35 131.173C-20.5468 131.066 -20.7109 130.909 -20.8253 130.718C-20.9397 130.527 -21 130.309 -21 130.086C-21 129.864 -20.9397 129.646 -20.8253 129.455C-20.7109 129.264 -20.5468 129.107 -20.35 129L34.3638 98.4367Z" fill="url(#paint1_linear_1240_421)"/>
</g>
<g opacity="0.11">
<path d="M34.3636 89.5018C35.7665 88.7209 37.3487 88.3107 38.958 88.3107C40.5673 88.3107 42.1495 88.7209 43.5524 89.5018L98.3501 120.051C98.5451 120.158 98.7077 120.315 98.8209 120.506C98.9341 120.696 98.9937 120.913 98.9937 121.134C98.9937 121.355 98.9341 121.572 98.8209 121.763C98.7077 121.953 98.5451 122.11 98.3501 122.217L43.0982 153.085C41.86 153.776 40.4629 154.138 39.0418 154.138C37.6208 154.138 36.2237 153.776 34.9855 153.085L-20.3502 122.273C-20.5472 122.167 -20.7117 122.011 -20.8263 121.82C-20.941 121.629 -21.0015 121.411 -21.0015 121.19C-21.0015 120.968 -20.941 120.75 -20.8263 120.559C-20.7117 120.369 -20.5472 120.212 -20.3502 120.106L34.3636 89.5018Z" fill="url(#paint2_linear_1240_421)"/>
</g>
<g opacity="0.11">
<path d="M34.3636 80.5667C35.7665 79.7858 37.3487 79.3756 38.958 79.3756C40.5673 79.3756 42.1495 79.7858 43.5524 80.5667L98.3501 111.116C98.5451 111.223 98.7077 111.38 98.8209 111.571C98.9341 111.761 98.9937 111.978 98.9937 112.199C98.9937 112.42 98.9341 112.637 98.8209 112.828C98.7077 113.018 98.5451 113.175 98.3501 113.282L43.0982 144.15C41.8589 144.837 40.4623 145.198 39.0418 145.198C37.6214 145.198 36.2248 144.837 34.9855 144.15L-20.3502 113.275C-20.5472 113.17 -20.7117 113.013 -20.8263 112.823C-20.941 112.632 -21.0015 112.414 -21.0015 112.192C-21.0015 111.97 -20.941 111.753 -20.8263 111.562C-20.7117 111.371 -20.5472 111.215 -20.3502 111.109L34.3636 80.5667Z" fill="url(#paint3_linear_1240_421)"/>
</g>
<path opacity="0.5" d="M-20.3501 111.137L34.3637 80.5667C35.7666 79.7858 37.3488 79.3756 38.9581 79.3756C40.5674 79.3756 42.1496 79.7858 43.5525 80.5667L98.3502 111.116C98.5459 111.222 98.7093 111.378 98.8236 111.568C98.9379 111.758 98.9988 111.975 99 112.196V139.001C99.001 139.222 98.941 139.44 98.8265 139.63C98.712 139.82 98.5473 139.976 98.3502 140.08L43.0983 170.948C41.859 171.635 40.4623 171.996 39.0419 171.996C37.6215 171.996 36.2249 171.635 34.9856 170.948L-20.3501 140.108C-20.5469 140.001 -20.711 139.844 -20.8254 139.653C-20.9397 139.462 -21 139.244 -21 139.021V112.223C-21 112.001 -20.9397 111.783 -20.8254 111.592C-20.711 111.401 -20.5469 111.244 -20.3501 111.137Z" fill="url(#paint4_linear_1240_421)"/>
<g opacity="0.11">
<path d="M34.3636 80.5667C35.7665 79.7858 37.3487 79.3756 38.958 79.3756C40.5673 79.3756 42.1495 79.7858 43.5524 80.5667L98.3501 111.116C98.5451 111.223 98.7077 111.38 98.8209 111.571C98.9341 111.761 98.9937 111.978 98.9937 112.199C98.9937 112.42 98.9341 112.637 98.8209 112.828C98.7077 113.018 98.5451 113.175 98.3501 113.282L43.0982 144.15C41.8589 144.837 40.4623 145.198 39.0418 145.198C37.6214 145.198 36.2248 144.837 34.9855 144.15L-20.3502 113.275C-20.5472 113.17 -20.7117 113.013 -20.8263 112.823C-20.941 112.632 -21.0015 112.414 -21.0015 112.192C-21.0015 111.97 -20.941 111.753 -20.8263 111.562C-20.7117 111.371 -20.5472 111.215 -20.3502 111.109L34.3636 80.5667Z" fill="url(#paint5_linear_1240_421)"/>
</g>
<g opacity="0.5">
<path opacity="0.67" d="M38.8146 131.657C58.211 131.657 73.9348 122.665 73.9348 111.573C73.9348 100.48 58.211 91.488 38.8146 91.488C19.4182 91.488 3.69434 100.48 3.69434 111.573C3.69434 122.665 19.4182 131.657 38.8146 131.657Z" fill="#0F054C"/>
<path opacity="0.67" d="M38.8144 128.169C54.8417 128.169 67.8344 120.739 67.8344 111.573C67.8344 102.407 54.8417 94.9762 38.8144 94.9762C22.7871 94.9762 9.79443 102.407 9.79443 111.573C9.79443 120.739 22.7871 128.169 38.8144 128.169Z" fill="#0F054C"/>
<path opacity="0.9" d="M38.8145 124.695C51.492 124.695 61.7691 118.82 61.7691 111.573C61.7691 104.326 51.492 98.4506 38.8145 98.4506C26.137 98.4506 15.8599 104.326 15.8599 111.573C15.8599 118.82 26.137 124.695 38.8145 124.695Z" fill="#080344"/>
</g>
<path d="M37.9902 98.5129L37.9273 98.7829L37.8435 98.6029C37.8435 98.6029 37.4103 99.9871 37.7806 100.728C38.2602 101.634 38.824 102.493 39.4646 103.295C40.2473 104.285 41.4841 106.341 41.8125 106.756C43.0689 107.952 44.6815 108.714 46.4104 108.929C48.7793 109.164 49.3872 107.849 49.2055 107.137C49.0238 106.424 47.7311 104.541 46.3405 102.984C45.4014 101.9 44.5794 100.722 43.8879 99.468L37.9902 98.5129Z" fill="#160A5B"/>
<path d="M45.1107 92.2839C45.0708 92.9773 45.1013 93.6729 45.2016 94.3602C45.3553 94.9624 48.8422 95.1562 50.093 95.3084C51.4991 95.5905 52.8666 96.0366 54.1668 96.6373C54.8656 96.9556 59.3657 97.4193 59.9177 95.8067C60.4697 94.1941 57.6467 92.8376 55.7251 92.4154C53.8035 91.9933 50.68 91.0312 50.68 91.0312L45.1107 92.2839Z" fill="#160A5B"/>
<path d="M33.0361 63.1328C33.0578 66.4494 33.4944 69.7505 34.3358 72.9606C35.1712 76.1238 35.5916 79.3804 35.5866 82.65C35.5866 82.65 34.0983 89.1004 35.405 93.5021C36.7117 97.9039 37.8227 99.1358 37.8227 99.1358C38.17 99.5918 38.6133 99.9674 39.1218 100.237C39.6303 100.506 40.1919 100.663 40.7676 100.696C41.3432 100.728 41.9193 100.637 42.4557 100.427C42.9921 100.218 43.4761 99.8952 43.8741 99.4819C43.8741 99.4819 41.9455 93.4329 41.7149 88.6228C42.7188 86.4818 43.4804 84.2372 43.9859 81.9302C43.9859 81.9302 44.475 86.941 44.7685 88.9689C44.7685 88.9689 44.475 91.938 45.2926 93.1215C46.1101 94.305 49.8066 94.6718 50.9806 92.5886C52.1545 90.5053 50.0023 91.5158 50.6591 81.9095C50.6591 81.9095 54.0552 77.8053 54.5513 70.2545C55.0474 62.7037 54.9915 59.7138 54.5513 58.2466C54.1111 56.7793 46.5713 51.4709 46.5713 51.4709L42.3158 56.724L33.0361 63.1328Z" fill="#24126A"/>
<path d="M44.1953 83.7919C44.4059 83.1092 44.5809 82.4161 44.7194 81.7156C44.7194 81.7156 45.2085 86.7264 45.502 88.7542C45.502 88.7542 45.2085 91.7303 46.0261 92.9068C46.5502 93.682 48.2691 94.0972 49.7366 93.7443C48.1643 94.4779 45.9283 94.0557 45.3133 93.1491C44.4958 91.9448 44.7893 88.9965 44.7893 88.9965C44.6146 87.7438 44.363 85.4321 44.1953 83.7919Z" fill="url(#paint6_linear_1240_421)"/>
<path d="M33.0361 63.1328L42.3368 56.7447L46.5923 51.4917L46.9207 51.727L43.0495 56.5233L33.7419 62.8906C33.7683 66.2072 34.2072 69.508 35.0486 72.7184C35.8839 75.8816 36.3043 79.1382 36.2994 82.4078C36.2994 82.4078 34.811 88.8581 36.1177 93.2599C37.4244 97.6616 38.5355 98.8936 38.5355 98.8936C38.5355 98.8936 40.1426 100.935 42.4905 100.389C39.7653 101.607 37.8227 99.1358 37.8227 99.1358C37.8227 99.1358 36.7117 97.8969 35.405 93.5021C34.0983 89.1073 35.5866 82.65 35.5866 82.65C35.5916 79.3804 35.1712 76.1238 34.3358 72.9606C33.4944 69.7504 33.0578 66.4493 33.0361 63.1328Z" fill="url(#paint7_linear_1240_421)"/>
<path d="M49.8136 71.5557C51.0365 70.1715 51.7283 65.6729 51.7283 65.6729C51.7283 65.6729 49.8136 69.424 48.437 70.5175C47.0335 71.7599 46.0563 73.4051 45.642 75.2238C45.3974 76.608 44.0068 81.9372 44.0068 81.9372C44.0068 81.9372 44.496 86.948 44.7895 88.9758C44.7895 88.9758 44.496 91.9449 45.3135 93.1284C45.5226 93.398 45.7998 93.608 46.1171 93.7375C46.1171 93.6821 45.9145 87.1072 46.1171 84.318C46.3198 81.5288 48.5838 72.9814 49.8136 71.5557Z" fill="#160A5B"/>
<path d="M21.7091 32.6874C21.7091 32.6874 18.4598 38.8332 18.1314 39.3038C17.8029 39.7745 11.7236 47.2838 11.1436 51.6163C11.1436 51.6163 10.6825 53.2981 12.7788 54.7792C14.8751 56.2603 25.4265 62.7522 26.0834 62.856C26.7402 62.9598 30.5625 61.1465 30.7302 57.0908C30.7302 57.0908 22.4498 53.3604 20.6539 51.4917C20.6539 51.4917 23.8753 46.2525 25.4545 44.7091C25.8962 44.1526 26.1591 43.4775 26.2092 42.7713C26.4401 41.0626 26.2378 39.3238 25.6205 37.7119C25.0032 36.1001 23.9904 34.6658 22.6734 33.5387L21.7091 32.6874Z" fill="#4846A5"/>
<path d="M46.0122 18.2916C46.0122 18.2916 51.0364 20.0911 52.7554 19.4751C54.4743 18.8591 58.6879 18.3332 61.5878 16.769C64.4877 15.2049 77.1215 12.042 78.9942 11.9243C78.9942 11.9243 79.0292 12.0004 78.7147 12.125C78.2593 12.1815 77.8306 12.369 77.4817 12.6642C77.1327 12.9594 76.8787 13.3494 76.7512 13.7861C76.5308 14.9119 76.7614 16.0785 77.394 17.0389C77.6037 17.1566 77.7294 16.6514 78.9383 16.1115C79.5457 15.8109 80.2097 15.6388 80.8879 15.6063L81.3491 16.1669L81.6286 16.5821C81.6286 16.5821 81.0206 18.3124 79.4135 18.4577C77.8063 18.6031 67.3876 22.7764 66.7378 22.9702C66.0879 23.164 57.3463 26.7629 55.7112 27.3443C54.7076 27.695 53.7353 28.1279 52.8043 28.6385C52.8043 28.6385 47.7032 25.3787 47.5355 25.3787C47.3678 25.3787 46.0122 18.2916 46.0122 18.2916Z" fill="#24126A"/>
<path d="M91.8724 8.76833C91.4811 8.35307 86.7365 9.66806 86.7365 9.66806C86.2217 9.51831 85.6866 9.44827 85.1503 9.46043C84.3676 9.46043 82.2364 11.073 81.4887 11.4191C80.6814 11.6875 79.8433 11.8549 78.9941 11.9174C74.8015 12.7617 77.1423 17.2119 77.317 17.1497C77.4917 17.0874 78.6307 16.3468 78.9941 16.16C79.3165 16.0265 79.6546 15.9335 80.0003 15.8831C80.5239 16.1556 81.0683 16.387 81.6285 16.5752C82.525 16.7081 83.4411 16.5606 84.2488 16.153C85.0714 15.8193 85.9524 15.65 86.8413 15.6547C86.9321 15.7101 87.2256 15.8554 87.2256 15.8554C87.2583 15.9806 87.3193 16.0968 87.4041 16.1951C87.4888 16.2934 87.5951 16.3714 87.7148 16.423C88.0921 16.5337 88.5044 15.6478 88.6651 15.5509C88.9609 15.3897 89.2316 15.1869 89.4687 14.9488C89.6828 13.8964 89.7858 12.8248 89.7761 11.7513C89.6783 11.2945 88.6301 10.7754 88.6301 10.7754C88.6301 10.7754 91.2645 9.91722 91.4811 9.86877C91.6978 9.82033 92.2638 9.20436 91.8724 8.76833ZM87.1977 13.5023C86.8923 13.5581 86.5912 13.6344 86.2963 13.7307C85.9504 13.9178 85.5651 14.0221 85.1712 14.0352C85.1712 14.0352 84.6821 13.267 85.0454 13.004C85.4088 12.741 85.7442 12.5057 85.7442 12.5057C85.7442 12.5057 86.3941 12.388 86.3941 12.305C86.4997 12.3798 86.6244 12.4239 86.754 12.4325C86.8836 12.4411 87.013 12.4137 87.1278 12.3534C87.2363 12.5105 87.3782 12.6421 87.5436 12.739C87.709 12.8359 87.8939 12.8956 88.0851 12.914C87.8097 13.1468 87.5126 13.3531 87.1977 13.53V13.5023Z" fill="#FCD1C5"/>
<path d="M54.5723 58.2673C54.1251 56.7932 46.5923 51.4917 46.5923 51.4917L44.496 54.1009L42.6862 60.925L33.0361 63.8249C33.0361 63.8249 33.5462 68.4897 41.4214 67.9775C49.2965 67.4653 50.191 61.5548 50.191 61.5548C50.191 61.5548 51.0574 63.4858 54.9286 63.991C54.9776 60.842 54.8588 59.2294 54.5723 58.2673Z" fill="#160A5B"/>
<path d="M31.2472 22.1191L29.9265 25.4134C29.9265 25.4134 23.5398 30.7565 21.709 32.6874C21.709 32.6874 24.8674 38.5356 25.4544 44.7092C26.7933 45.7481 28.0631 46.8716 29.2557 48.0728C30.1362 49.1317 32.3722 54.0387 33.085 55.6513C33.7977 57.2639 31.8062 62.1362 31.8062 62.1362C31.8062 62.1362 34.5175 66.9809 38.8848 66.8287C43.2521 66.6764 46.2289 64.088 46.7809 59.4993C47.3329 54.9107 47.1722 54.2463 47.1722 54.2463C47.1722 54.2463 49.1358 59.88 52.1125 59.88C55.0893 59.88 59.799 54.9868 59.799 54.9868C59.799 54.9868 62.9854 52.2185 62.6919 50.9242C62.3984 49.63 55.1871 38.7018 54.7958 36.9023C54.4045 35.1028 52.7833 28.6386 52.7833 28.6386L46.0123 18.2917L41.8895 18.4579L31.2472 22.1191Z" fill="#453C9E"/>
<path d="M39.0943 65.6659C43.287 65.5136 46.1519 63.1259 46.8856 58.9041C46.8856 59.0978 46.8367 59.2916 46.8158 59.4993C46.2288 64.0879 43.287 66.6694 38.8847 66.8286C34.4824 66.9878 31.8062 62.1362 31.8062 62.1362C31.8062 62.1362 31.9529 61.7763 32.1485 61.2364C32.8054 62.2261 35.307 65.8043 39.0943 65.6659Z" fill="url(#paint8_linear_1240_421)"/>
<path d="M31.2471 22.119C31.2671 23.4573 31.5273 24.7814 32.0157 26.0294C32.8053 27.9742 35.4397 38.944 41.3723 42.6813L43.6573 44.0655V37.1445C43.6573 37.1445 43.6153 32.8535 42.6021 30.1266C41.956 28.1762 41.6236 26.1373 41.6168 24.0846C41.6168 24.0846 39.9538 23.6416 39.9538 23.6693C39.9538 23.697 31.2471 22.119 31.2471 22.119Z" fill="#F0F6FF"/>
<path d="M38.5631 27.2129C38.5631 27.2129 39.6182 27.6281 40.0724 26.9637C40.5924 26.1859 40.8694 25.2735 40.869 24.3407C40.869 24.3407 43.6641 24.4791 44.2371 23.0533C44.8101 21.6276 44.1882 21.2539 44.0973 20.8109C44.0091 19.976 43.8238 19.1538 43.5453 18.3609L43.5034 17.9941C43.5034 17.9941 44.0764 17.5235 43.8178 17.0252C43.5593 16.5269 42.022 14.9489 41.8613 14.7136C41.7005 14.4782 41.9032 12.5265 41.3092 11.5714C40.7703 10.7745 40.1847 10.0096 39.5553 9.28057C39.5553 9.28057 33.5738 4.76809 28.8641 9.28057C24.1544 13.7931 31.2469 22.119 31.2469 22.119C31.2469 22.119 31.8199 24.8044 33.1895 25.8702C34.5591 26.936 38.5631 27.2129 38.5631 27.2129Z" fill="#FCD1C5"/>
<path d="M34.2029 16.2084C34.2052 16.0415 34.1793 15.8754 34.126 15.717C33.9306 15.2065 33.9198 14.6448 34.0957 14.1273C34.2715 13.6099 34.623 13.1689 35.0903 12.8794C36.8861 11.6128 40.0586 10.4709 39.9817 9.20434C39.9048 7.9378 34.8457 4.80259 31.1492 6.48439C27.4527 8.16619 23.9868 12.4018 26.5164 16.8936C29.0459 21.3853 31.254 22.1189 31.254 22.1189C31.254 22.1189 32.0087 21.9666 31.3379 21.2192C30.6671 20.4717 29.4302 18.5823 30.4504 17.994C31.4707 17.4057 33.2455 18.6861 33.4691 18.9629C33.5649 19.0832 33.6513 19.2104 33.7277 19.3436C33.7917 19.447 33.8916 19.5238 34.0087 19.5594C34.1257 19.5951 34.2519 19.5873 34.3636 19.5374L34.4544 19.4959C34.5657 19.4457 34.654 19.356 34.7018 19.2446C34.7497 19.1331 34.7536 19.0079 34.713 18.8937L34.2588 17.7656C34.1942 17.593 34.1634 17.4098 34.1679 17.2258L34.2029 16.2084Z" fill="#AA8383"/>
<path d="M38.3956 28.4794C37.485 29.1877 36.7649 30.1078 36.2993 31.1578C36.9545 30.4807 37.7082 29.9045 38.5354 29.4483C38.5354 29.4483 40.1006 30.1404 40.1006 30.6318C40.1453 32.2576 40.3182 33.8774 40.6177 35.4765C40.9881 37.013 40.9461 42.3975 40.9461 42.3975L41.9384 43.0342L42.4066 40.6742L42.2319 35.6426L41.3095 31.0609C41.2574 30.448 41.1734 29.8381 41.0579 29.2338C40.9811 29.1369 38.3956 28.4794 38.3956 28.4794Z" fill="#C4CCD6"/>
<path d="M38.3955 28.4793C38.3955 28.4793 39.9188 26.9152 40.6874 26.8806C40.9101 26.8495 41.137 26.8759 41.3463 26.9571C41.5556 27.0383 41.7403 27.1717 41.8823 27.3443C41.8823 27.4342 42.623 29.8843 42.623 29.8843C43.5359 32.8859 43.9697 36.0103 43.9088 39.1446C43.776 44.1346 43.6572 44.0654 43.6572 44.0654L41.7705 42.9096C42.046 40.3335 41.8687 37.7296 41.2465 35.2134C40.2193 31.0608 41.1277 30.4656 40.6385 30.0365C40.1494 29.6074 38.1789 28.9845 38.3955 28.4793Z" fill="#24126A"/>
<path d="M29.2554 48.0727C30.1359 49.1316 32.323 54.0317 33.0358 55.6443C33.1703 55.9642 33.2369 56.3082 33.2314 56.6547L33.5249 56.8416L34.4752 55.935C34.4752 55.935 33.6227 52.9451 32.2462 49.2424C30.8696 45.5396 25.4541 44.7091 25.4541 44.7091C26.793 45.748 28.0628 46.8716 29.2554 48.0727Z" fill="#24126A"/>
<path d="M30.7092 57.2153C31.3284 56.3307 32.0302 55.5058 32.8055 54.7515C32.8055 54.7515 32.6937 55.3674 33.5741 55.7481C34.4546 56.1287 39.0804 57.859 39.2342 58.0597C39.3879 58.2604 39.2342 58.5165 38.9267 58.5719C39.3658 58.7242 39.8204 58.8286 40.2823 58.8833C40.6736 58.8833 41.1977 59.3539 40.9322 59.7692C40.6667 60.1844 40.45 60.1498 40.45 60.1498C40.45 60.1498 40.5688 60.6066 40.2823 60.7104C39.9617 60.7856 39.6335 60.825 39.3041 60.8281C39.3438 60.9469 39.3412 61.0756 39.2967 61.1928C39.2522 61.3099 39.1685 61.4084 39.0595 61.4717C38.318 61.6538 37.5634 61.7787 36.8024 61.8455C36.8024 61.8455 35.342 61.7001 34.9228 61.6932C34.5035 61.6863 32.6028 62.1362 31.7923 62.0254C30.512 61.7293 29.2573 61.3336 28.0399 60.8419C27.7324 60.6758 30.7092 57.2153 30.7092 57.2153Z" fill="#FCD1C5"/>
<path d="M29.6257 26.4792L29.8214 29.4207L31.4635 29.919L30.3595 30.7979C30.3595 30.7979 34.8176 40.605 40.4916 43.7056C40.4916 43.7056 35.0622 41.8369 29.9262 30.8879C29.9262 30.8879 30.4643 30.272 30.625 30.092L29.479 29.6006L29.6257 26.4792Z" fill="#24126A"/>
<path d="M44.1675 26.1677C44.1675 26.1677 46.1869 36.1686 44.468 43.7055C44.468 43.7055 46.5643 40.0789 44.6636 26.1677H44.1675Z" fill="#24126A"/>
<path d="M89.6713 11.5368C89.3719 11.2246 89.0195 10.9669 88.6301 10.7755C88.6301 10.7755 86.4849 11.6199 86.1145 11.786C86.1145 11.7998 88.3226 11.5783 89.6713 11.5368Z" fill="#E2B1A6"/>
<path d="M77.317 17.1636C77.5907 17.0232 77.8566 16.8684 78.1136 16.6999C76.6811 14.8381 78.2534 12.1528 78.2604 12.1389C75.0949 13.3362 77.1563 17.2258 77.317 17.1636Z" fill="#E2B1A6"/>
<path d="M28.0049 60.8419C28.2076 60.9527 29.7309 61.4856 30.8 61.8039C30.8 61.8039 31.4988 59.0978 31.3521 58.1912C31.2053 57.2845 30.807 57.0769 30.807 57.0769C30.7707 57.1204 30.738 57.1667 30.7092 57.2153C30.7092 57.2153 27.7324 60.6758 28.0049 60.8419Z" fill="#E2B1A6"/>
<path d="M30.7088 57.0908C30.8353 57.5675 30.8456 58.0671 30.7386 58.5485C30.6317 59.0299 30.4107 59.4791 30.0939 59.8592C29.0038 61.0704 28.8781 61.2434 28.8781 61.2434H27.6482C27.4131 60.6081 27.2285 59.9555 27.0962 59.2917C27.215 59.2225 30.7088 57.0908 30.7088 57.0908Z" fill="#4846A5"/>
<path d="M42.3994 29.0953C42.3994 29.0953 43.6083 35.9471 43.3358 38.4664C43.1693 40.2076 43.111 41.9573 43.1611 43.7056L43.5454 44.0239L43.6572 44.0931C43.6572 44.0931 43.776 44.1347 43.9227 39.1446C43.9836 36.0104 43.5498 32.8859 42.637 29.8843L42.3994 29.0953Z" fill="#24126A"/>
<path d="M42.798 100.236C43.1835 100.022 43.5444 99.7667 43.8741 99.4749C43.8741 99.4749 41.9454 93.4259 41.7149 88.6159C42.7183 86.477 43.4799 84.2348 43.9859 81.9302C43.8182 82.5531 41.8406 85.9443 40.9462 89.4118C40.0518 92.8792 42.798 100.236 42.798 100.236Z" fill="#160A5B"/>
<path d="M34.0142 21.0117C34.0142 21.1847 34.5662 23.6209 35.5864 24.7698C36.2475 25.5157 36.8702 26.2942 37.4521 27.1022C38.109 27.1852 38.5632 27.2129 38.5632 27.2129C38.5632 27.2129 39.6183 27.6282 40.0725 26.9638C40.5925 26.1859 40.8695 25.2736 40.8691 24.3407C40.8691 24.3407 37.0818 23.9601 35.6353 22.9911C34.8644 22.5549 34.2862 21.8488 34.0142 21.0117Z" fill="#E2B1A6"/>
<path d="M32.6445 54.7722C32.6445 54.7722 32.8542 55.1875 32.8891 55.2221C32.924 55.2567 32.9799 54.9037 32.9799 54.9037C32.9799 54.9037 32.8052 54.5646 32.7983 54.5646C32.7913 54.5646 32.6445 54.7722 32.6445 54.7722Z" fill="#1B2B3A"/>
<path d="M43.6572 44.0654C43.6572 44.0654 46.2986 52.2391 47.1511 54.2185L47.0952 56.1841C47.0952 56.1841 43.762 46.0656 43.6572 44.0654Z" fill="#24126A"/>
<path d="M46.2077 47.0069C46.2459 47.1159 46.2616 47.2314 46.2541 47.3465C46.2465 47.4616 46.2158 47.574 46.1637 47.6772C46.1116 47.7804 46.0392 47.8722 45.9508 47.9473C45.8623 48.0223 45.7596 48.0791 45.6487 48.1143C45.42 48.172 45.1776 48.1392 44.9728 48.0229C44.768 47.9067 44.617 47.716 44.5516 47.4914C44.5145 47.3823 44.4995 47.2671 44.5075 47.1523C44.5155 47.0375 44.5464 46.9253 44.5983 46.8224C44.6503 46.7195 44.7223 46.6277 44.8103 46.5525C44.8982 46.4772 45.0003 46.42 45.1107 46.384C45.3394 46.3263 45.5818 46.3591 45.7866 46.4754C45.9914 46.5916 46.1424 46.7823 46.2077 47.0069Z" fill="#24126A"/>
<path d="M47.5495 50.5296C47.5877 50.6386 47.6034 50.754 47.5959 50.8692C47.5883 50.9843 47.5576 51.0967 47.5055 51.1999C47.4534 51.3031 47.381 51.3949 47.2926 51.47C47.2041 51.545 47.1014 51.6018 46.9905 51.637C46.7626 51.6968 46.5202 51.6658 46.3151 51.5506C46.11 51.4355 45.9586 51.2454 45.8934 51.021C45.8553 50.912 45.8395 50.7966 45.8471 50.6814C45.8546 50.5663 45.8853 50.4539 45.9374 50.3507C45.9895 50.2475 46.0619 50.1557 46.1504 50.0806C46.2388 50.0056 46.3415 49.9488 46.4524 49.9136C46.6804 49.852 46.9237 49.8821 47.1292 49.9975C47.3348 50.113 47.4859 50.3042 47.5495 50.5296Z" fill="#24126A"/>
<path d="M34.2586 17.7657C34.1941 17.593 34.1633 17.4099 34.1678 17.2258V16.2431C34.1702 16.0761 34.1442 15.91 34.0909 15.7517C34.0218 15.5567 33.9749 15.3548 33.9512 15.1495C33.9512 15.1495 29.8354 18.0494 27.229 18.1602C29.4231 21.5584 31.226 22.1536 31.226 22.1536C31.226 22.1536 31.9807 22.0013 31.3098 21.2539C30.639 20.5064 29.4022 18.617 30.4224 18.0287C31.4426 17.4404 33.2175 18.7208 33.4411 18.9976C33.5368 19.1179 33.6232 19.2451 33.6996 19.3783C33.7636 19.4817 33.8635 19.5584 33.9806 19.5941C34.0977 19.6298 34.2239 19.6219 34.3355 19.5721L34.4264 19.5305C34.5376 19.4803 34.6259 19.3907 34.6738 19.2792C34.7216 19.1678 34.7256 19.0426 34.6849 18.9284L34.2586 17.7657Z" fill="#936D6D"/>
<path d="M34.685 92.0557C34.685 92.0557 33.4412 104.79 30.7929 109.614C28.1445 114.438 27.3689 123.498 26.8029 125.214C26.2369 126.931 24.5039 129.422 21.7578 129.948C19.0116 130.474 18.5644 128.668 18.6972 127.581C18.8299 126.495 19.5986 124.75 19.6056 123.574C19.5716 122.816 19.4664 122.063 19.2911 121.325C19.2911 121.325 16.1466 122.217 15.6715 119.857C15.7977 119.517 15.8958 119.168 15.965 118.812C16.0069 118.459 15.6994 109.933 15.6226 108.901C15.7373 105.745 16.206 102.612 17.0201 99.558C17.8866 96.8312 17.6001 91.0452 17.6001 91.0452L26.5164 89.8479L34.685 92.0557Z" fill="#24126A"/>
<path d="M16.9921 99.5718C17.8586 96.8449 17.5721 91.059 17.5721 91.059L18.3548 90.9482C18.3548 91.7511 18.5714 96.838 17.7818 99.3365C16.9838 102.392 16.5292 105.525 16.4261 108.68C16.503 109.711 16.8244 118.224 16.7825 118.577C16.7134 118.93 16.6152 119.277 16.489 119.615C16.9642 121.968 20.1087 121.068 20.1087 121.068C20.2832 121.809 20.3885 122.565 20.4231 123.325C20.4231 124.494 19.6545 126.245 19.5217 127.325C19.3889 128.405 19.8361 130.218 22.5823 129.685C22.665 129.666 22.7466 129.643 22.8269 129.616C22.4822 129.761 22.1242 129.872 21.7578 129.948C19.0116 130.474 18.5644 128.668 18.6972 127.581C18.8299 126.494 19.5986 124.75 19.6056 123.574C19.5688 122.78 19.4636 121.99 19.2911 121.214C19.2911 121.214 16.1466 122.217 15.6715 119.83C15.7963 119.499 15.8944 119.158 15.965 118.812C16.0069 118.459 15.6994 109.933 15.6226 108.901C15.7292 105.751 16.1885 102.622 16.9921 99.5718Z" fill="url(#paint9_linear_1240_421)"/>
<path d="M20.2276 91.9795C20.2811 93.2461 20.585 94.49 21.1221 95.6407C21.1221 95.6407 21.1221 102.403 21.8208 105.835C21.8208 105.835 20.6679 112.715 19.9342 114.881C19.2005 117.047 19.2983 121.325 19.2983 121.325C19.0174 121.411 18.7259 121.46 18.4318 121.47C17.9147 121.47 17.8798 113.054 18.6694 111.566C19.459 110.078 20.0669 103.517 19.7455 101.517C19.4241 99.5164 19.5568 93.8343 19.1655 92.8239C19.0548 92.5523 19.0431 92.2511 19.1324 91.972C19.2217 91.6928 19.4063 91.4532 19.6547 91.2943L20.2276 91.9795Z" fill="#160A5B"/>
<path d="M27.7534 46.0518C28.5221 46.6291 29.145 47.3753 29.573 48.2316C30.001 49.0879 30.2225 50.0309 30.2201 50.9864L28.2915 50.585C28.2915 50.585 28.8645 47.1314 27.7534 46.0518Z" fill="#160A5B"/>
<path d="M26.7401 94.7549C20.8076 94.9279 17.6142 92.3879 17.6142 92.3879C17.6142 91.5851 17.5723 91.0591 17.5723 91.0591L26.5165 89.8479L34.6852 92.0557C34.6852 92.0557 34.4406 94.568 33.9305 97.7794C32.4771 97.9316 31.0516 94.478 31.0516 94.478L26.9847 94.7272C26.9847 94.7272 32.6657 94.5888 26.7401 94.7549Z" fill="#160A5B"/>
<path d="M33.5389 92.2425C33.5389 92.2425 20.6465 97.3571 14.4135 87.6678C14.238 87.3828 14.1505 87.0532 14.1619 86.7196L14.2458 84.4702C14.2541 84.1859 14.2115 83.9024 14.12 83.6328C13.9182 83.0546 13.8748 82.4336 13.9942 81.8334C14.4764 79.321 15.7831 72.4762 16.0905 70.5798C16.4609 68.2613 15.1961 58.9941 13.0509 54.9799C10.9057 50.9657 16.3631 42.1276 16.3631 42.1276C16.7859 41.5154 17.3938 41.0516 18.0993 40.8029C18.8049 40.5543 19.5719 40.5334 20.2902 40.7434C20.2902 40.7434 17.8095 42.4252 19.1651 44.2039C20.5208 45.9826 24.6086 47.4083 24.6086 47.4083C24.6086 47.4083 32.1413 51.2149 34.7268 55.8312C35.3106 57.582 35.6354 59.4073 35.6911 61.2503C35.7679 64.3163 35.4186 71.6664 35.5513 72.6838C35.6841 73.7012 36.0824 80.7122 36.0405 81.0444C35.9985 81.3766 33.5389 92.2425 33.5389 92.2425Z" fill="#453C9E"/>
<path d="M19.0743 42.0584C18.9886 41.8362 18.9488 41.5992 18.9572 41.3614C18.9656 41.1236 19.022 40.89 19.1232 40.6742C19.5164 40.6544 19.9103 40.6964 20.2902 40.7988C19.8059 41.1361 19.3928 41.564 19.0743 42.0584Z" fill="url(#paint10_linear_1240_421)"/>
<path d="M29.6331 93.2876C29.6331 93.2876 22.0375 73.4451 22.4008 66.2127C22.7502 59.2225 33.5043 80.4699 33.5043 80.4699L33.5602 92.2356C32.2844 92.6982 30.9704 93.0502 29.6331 93.2876Z" fill="#24126A"/>
<path d="M14.33 81.695C14.4205 81.9624 14.463 82.2435 14.4558 82.5255L14.3789 84.761C14.3625 85.0942 14.4477 85.4246 14.6235 85.7091C20.8426 95.3016 33.686 90.2424 33.686 90.2424C33.686 90.2424 35.4539 82.4424 36.0059 79.9163C36.0059 80.5322 36.0478 80.9613 36.0059 81.0375C35.964 81.3627 33.5043 92.2425 33.5043 92.2425C33.5043 92.2425 20.6469 97.3572 14.4139 87.6678C14.2384 87.3828 14.1509 87.0532 14.1623 86.7196L14.2462 84.4703C14.2545 84.186 14.2119 83.9024 14.1204 83.6328C13.9186 83.0546 13.8752 82.4337 13.9946 81.8334C14.0435 81.5704 14.1064 81.252 14.1693 80.906C14.1933 81.174 14.2472 81.4386 14.33 81.695Z" fill="url(#paint11_linear_1240_421)"/>
<path d="M13.2397 53.2357C15.336 57.2222 16.6358 66.4272 16.2654 68.7318L16.1257 69.5416C16.1257 66.2195 14.9308 58.5511 13.0301 55.0075C12.4431 53.9002 12.4571 52.3914 12.7646 50.7996C12.7127 51.6383 12.8762 52.4764 13.2397 53.2357Z" fill="url(#paint12_linear_1240_421)"/>
<path d="M33.7279 69.8462C33.4531 68.245 33.3012 66.6254 33.2737 65.0015C33.2737 62.1777 32.4212 57.4991 27.1455 58.3089C19.6896 59.437 22.876 69.5486 23.7215 71.3134C24.567 73.0783 27.8093 81.0997 27.984 81.5565C28.1587 82.0133 33.3017 91.9795 35.1394 94.3811C35.1769 94.4359 35.226 94.4821 35.2832 94.5163C35.3405 94.5505 35.4046 94.572 35.471 94.5792C35.5375 94.5865 35.6048 94.5793 35.6682 94.5582C35.7316 94.5372 35.7896 94.5027 35.8382 94.4572C36.5859 93.8412 38.2699 92.3809 38.4865 91.4535C38.766 90.2562 37.6899 85.9167 37.6899 85.9167C37.6899 85.9167 34.7272 75.1269 34.4826 74.6216C34.3009 74.241 34.2031 72.4415 33.7279 69.8462Z" fill="#4846A5"/>
<path d="M27.6274 46.2802C27.8094 45.8998 28.083 45.5695 28.4242 45.3185C28.7654 45.0674 29.1637 44.9033 29.584 44.8406C30.9815 44.7022 31.7292 44.3354 31.8689 43.844C31.9608 43.2244 32.1201 42.6164 32.3441 42.0307C32.6313 41.1994 32.8327 40.3415 32.9451 39.4699C32.9451 39.4284 33.9792 39.1308 34.0351 38.6879C34.091 38.2449 33.546 36.66 33.6019 36.5424C33.9382 35.9818 34.1257 35.3461 34.1469 34.6945C34.0967 33.7465 33.8963 32.8123 33.553 31.9261C33.1407 31.0056 30.2408 25.4134 22.7011 28.2925C15.1613 31.1717 20.8773 37.4006 20.1226 41.4424C20.1226 41.4424 19.4238 42.2868 20.6816 43.7264C21.9394 45.1659 25.5451 45.4497 27.6274 46.2802Z" fill="#FCD1C5"/>
<path d="M20.6819 43.7055C19.445 42.2659 20.1228 41.4215 20.1228 41.4215C20.2238 40.8305 20.2238 40.2269 20.1228 39.6359L23.1136 40.1827C23.1136 40.1827 27.5158 36.39 27.2084 38.4248C26.9009 40.4595 27.9141 40.8194 27.9141 40.8194L27.0057 41.9337C26.7751 42.2244 26.9149 42.5566 27.1036 42.875C28.3613 44.9513 31.415 44.3353 31.422 44.3353C30.8445 44.6359 30.2078 44.8083 29.5562 44.8405C29.136 44.9032 28.7377 45.0673 28.3965 45.3184C28.0553 45.5694 27.7817 45.8997 27.5997 46.2801C25.5453 45.4496 21.9327 45.145 20.6819 43.7055Z" fill="#E2B1A6"/>
<path d="M33.8815 29.8083C33.8815 29.8083 34.4056 31.3032 33.5531 31.933C32.7006 32.5628 31.925 33.158 31.925 33.158V35.0682C31.9242 35.3419 31.8415 35.6093 31.6874 35.8364L30.6113 37.4421C30.4018 37.7512 30.2899 38.1149 30.2899 38.4872V39.2623C30.289 39.3733 30.2474 39.4801 30.1728 39.5629C30.0982 39.6457 29.9958 39.6987 29.8846 39.7122H29.6051C29.5457 39.7189 29.4857 39.7137 29.4284 39.6971C29.3711 39.6804 29.3177 39.6525 29.2715 39.6151C29.2253 39.5777 29.1871 39.5315 29.1591 39.4792C29.1312 39.427 29.1141 39.3697 29.1089 39.3108L28.9901 38.238C28.9901 38.238 28.4241 37.366 27.1873 38.4041L26.0693 38.8401C25.9102 38.9003 25.7656 38.993 25.6452 39.1122C25.5248 39.2315 25.4312 39.3746 25.3705 39.5322C25.0561 40.3628 24.3922 42.003 23.8961 42.3006C23.1973 42.6675 20.6119 41.3663 20.2625 40.7849C19.9131 40.2036 19.0326 36.3624 18.4876 34.5561C17.9426 32.7497 18.264 28.2233 23.8821 27.0675C29.5002 25.9117 33.1059 28.1472 33.8815 29.8083Z" fill="#AA8383"/>
<path d="M20.2905 40.771C19.9411 40.1966 19.0607 36.3485 18.5156 34.5421C20.0484 35.4579 21.7446 36.0735 23.5118 36.3554C26.3069 36.7707 31.8971 33.6978 31.8971 33.6978V35.082C31.8963 35.3557 31.8137 35.623 31.6595 35.8502L30.5834 37.4559C30.3739 37.7649 30.262 38.1287 30.262 38.5009V39.2761C30.2611 39.387 30.2195 39.4939 30.1449 39.5766C30.0703 39.6594 29.9679 39.7125 29.8567 39.7259H29.5772C29.5178 39.7326 29.4578 39.7275 29.4005 39.7108C29.3432 39.6942 29.2899 39.6663 29.2436 39.6289C29.1974 39.5915 29.1592 39.5453 29.1313 39.493C29.1033 39.4407 29.0863 39.3834 29.081 39.3245L28.9623 38.2518C28.9623 38.2518 28.3963 37.3797 27.1594 38.4179L25.5453 39.0546C25.5453 39.0546 24.567 41.913 23.8962 42.2798C23.2253 42.6466 20.6399 41.3524 20.2905 40.771Z" fill="#936D6D"/>
<path d="M20.1784 40.958C20.1784 40.958 17.9913 42.2592 19.0814 44.1071C20.1714 45.955 28.0955 49.2701 28.4868 49.7546C28.4868 49.7546 28.8013 46.9862 27.788 46.0519C27.788 46.0519 21.7227 44.903 20.8003 43.408C19.878 41.9131 20.1784 40.958 20.1784 40.958Z" fill="#F0F6FF"/>
<path d="M20.1784 40.958C20.1784 40.958 19.8081 41.92 20.7444 43.408C21.4432 44.5431 25.1048 45.4843 26.8377 45.8581C26.8377 45.8581 26.1879 46.211 25.1117 47.9828C22.68 46.7647 19.7242 45.2144 19.0814 44.1071C17.9913 42.2592 20.1784 40.958 20.1784 40.958Z" fill="#C4CCD6"/>
<path d="M18.7041 46.8684C18.7041 46.8684 22.198 48.8201 23.9449 49.706C25.6918 50.5919 27.5506 51.7823 27.5506 51.7823L28.2493 51.1456L29.0389 52.8343C30.4638 53.654 31.7966 54.6215 33.0149 55.7204C33.9853 56.7418 34.7849 57.91 35.3838 59.1809C35.3838 59.1809 32.0017 54.8829 29.3394 53.6441L28.6406 53.298L28.2353 51.9623L27.5855 52.6544C27.5855 52.6544 19.7732 48.0311 18.7041 46.8684Z" fill="#24126A"/>
<path d="M27.7949 104.797C27.8823 104.516 28.0439 104.263 28.2631 104.064L42.7766 92.2979C43.1609 91.9865 43.5312 92.2218 43.6011 92.8239L45.2991 106.555C45.3376 106.868 45.3069 107.186 45.2092 107.485C45.1115 107.785 44.949 108.061 44.7331 108.292L32.5535 118.466L32.9728 122.432L29.3112 120.812C29.2075 120.729 29.1245 120.624 29.0687 120.504C29.013 120.384 28.986 120.252 28.9898 120.12L27.6342 105.773C27.6194 105.44 27.6742 105.108 27.7949 104.797Z" fill="url(#paint13_linear_1240_421)"/>
<path d="M46.7386 93.6197L43.2866 92.1871L43.1748 92.1387C43.1005 92.1278 43.0247 92.1339 42.9532 92.1567C42.8817 92.1795 42.8165 92.2184 42.7626 92.2702L28.2491 104.036C28.0301 104.236 27.8665 104.489 27.7739 104.769L28.298 105.012L31.2538 106.396L43.9854 95.8898L46.7386 93.6197Z" fill="#453C9E"/>
<path d="M48.3109 109.815L33.5039 122.314C33.0916 122.66 32.7073 122.397 32.6444 121.733L31.1979 107.309C31.1678 106.994 31.2064 106.675 31.3113 106.375C31.4162 106.076 31.5848 105.802 31.8059 105.572L46.2844 93.7236C46.6618 93.4121 47.0391 93.6544 47.116 94.2565L48.8769 108.057C48.92 108.373 48.8916 108.695 48.7937 108.999C48.6958 109.303 48.5309 109.582 48.3109 109.815Z" fill="#24126A"/>
<path d="M30.772 120.888L29.3744 106.507C29.3434 106.192 29.3817 105.874 29.4867 105.575C29.5916 105.277 29.7607 105.004 29.9824 104.776L44.4749 92.9553C44.5711 92.8695 44.6949 92.8205 44.8243 92.8169C44.7434 92.7916 44.6572 92.7886 44.5747 92.8081C44.4923 92.8276 44.4167 92.8689 44.3561 92.9276L29.8566 104.749C29.6357 104.977 29.4671 105.25 29.3622 105.548C29.2573 105.847 29.2186 106.164 29.2487 106.479L30.6462 120.861C30.6881 121.318 30.8698 121.601 31.1214 121.608C30.9327 121.532 30.8069 121.262 30.772 120.888Z" fill="#160A5B"/>
<path d="M36.0827 99.7102L35.328 99.3434C35.1837 99.2631 35.0153 99.2361 34.8529 99.2673H34.79C34.7201 99.2673 34.6782 99.3642 34.6921 99.4749V99.6133L36.7884 100.645V100.513C36.7746 100.385 36.7181 100.266 36.6277 100.174L36.5579 100.098C36.4238 99.9419 36.2629 99.8106 36.0827 99.7102Z" fill="#160A5B"/>
<path d="M35.8172 101.489L36.8444 100.651L34.7201 99.3226L33.7139 100.139L35.8172 101.489Z" fill="#160A5B"/>
<path d="M35.0623 100.548L34.3007 100.181C34.1555 100.103 33.9888 100.074 33.8255 100.098H33.7696C33.6927 100.098 33.6508 100.195 33.6648 100.305V100.437L35.803 101.475V101.344C35.7834 101.216 35.7249 101.098 35.6353 101.004L35.5654 100.928C35.4214 100.773 35.2511 100.645 35.0623 100.548Z" fill="url(#paint14_linear_1240_421)"/>
<path d="M34.608 100.901L34.5381 100.299L34.608 100.326L34.6708 100.935L34.608 100.901Z" fill="#722318"/>
<path d="M34.5381 100.298L35.5932 99.4749L35.6491 99.5025L34.608 100.326L34.5381 100.298Z" fill="#722318"/>
<path d="M40.6946 95.9729L39.94 95.613C39.7949 95.535 39.6281 95.5059 39.4648 95.5299H39.4089C39.332 95.5299 39.2971 95.6268 39.3041 95.7376V95.8691L41.4004 96.8865V96.755C41.3781 96.6319 41.3226 96.5171 41.2397 96.4227L41.1698 96.3466C41.0351 96.1951 40.8742 96.0686 40.6946 95.9729Z" fill="#160A5B"/>
<path d="M40.4427 97.717L41.4559 96.8864L39.3386 95.5784L38.3394 96.3812L40.4427 97.717Z" fill="#160A5B"/>
<path d="M39.6815 96.7827L38.9268 96.4228C38.7817 96.3448 38.6149 96.3157 38.4516 96.3397H38.3957C38.3189 96.3397 38.2839 96.4366 38.2909 96.5474V96.6789L40.4292 97.7032V97.5717C40.4166 97.4457 40.3597 97.3281 40.2684 97.2395L40.1986 97.1633C40.0514 97.0059 39.8761 96.8769 39.6815 96.7827Z" fill="url(#paint15_linear_1240_421)"/>
<path d="M39.2339 97.1356L39.1641 96.5334L39.227 96.5681L39.2968 97.1633L39.2339 97.1356Z" fill="#722318"/>
<path d="M39.1641 96.5405L40.2052 95.7307L40.2611 95.7515L39.227 96.5682L39.1641 96.5405Z" fill="#722318"/>
<path d="M34.133 97.4194L34.4056 99.9802L35.1043 99.4265L34.8388 96.9349C34.8249 96.7414 34.8547 96.5471 34.9261 96.3664C34.9974 96.1856 35.1084 96.0229 35.2511 95.8899L38.1999 93.5021C38.4654 93.2876 38.71 93.4052 38.7519 93.7651L39.0384 96.2221L39.7372 95.6753L39.4437 93.1491C39.3529 92.3602 38.8078 92.0972 38.2278 92.5678L35.0764 95.1147C34.756 95.4052 34.5051 95.7628 34.3419 96.1615C34.1787 96.5602 34.1074 96.9899 34.133 97.4194Z" fill="#453C9E"/>
<path d="M39.2269 93.329L38.004 93.2045L34.5102 96.3743L34.3564 98.3398L34.4263 99.9732L35.2159 100.354V98.2776L35.2579 96.8934L35.9566 95.8829C35.9566 95.8829 37.2773 94.8517 37.2843 94.824C37.2913 94.7963 39.2269 93.329 39.2269 93.329Z" fill="#453C9E"/>
<path d="M39.8072 96.6026L39.0246 96.222L38.8149 94.4087L39.5626 94.471L39.7862 94.5056L39.8072 96.6026Z" fill="#453C9E"/>
<path d="M39.7931 92.7685L38.9546 92.3671C38.9546 92.3671 39.1712 92.81 39.1782 92.81L39.4577 92.9069L39.7931 92.7685Z" fill="#453C9E"/>
<path d="M34.9016 97.8001L35.1812 100.361L35.8799 99.8072L35.6074 97.3156C35.5935 97.121 35.6232 96.9257 35.6945 96.7439C35.7658 96.562 35.8768 96.398 36.0197 96.2636L38.9685 93.8966C39.234 93.6821 39.4786 93.7998 39.5205 94.1596L39.807 96.6235L40.5058 96.0698L40.2123 93.5437C40.1145 92.7547 39.5764 92.4917 38.9895 92.9623L35.845 95.5092C35.5281 95.7994 35.2793 96.155 35.1163 96.5508C34.9533 96.9467 34.88 97.3731 34.9016 97.8001Z" fill="#160A5B"/>
<path d="M38.2207 91.3428C38.4457 92.3733 38.5651 93.4237 38.577 94.478C38.1569 95.3998 37.4115 96.1381 36.4807 96.5543C35.733 96.7758 36.0405 95.9176 35.8728 95.3777C35.7611 94.8126 35.7142 94.2368 35.733 93.6613L38.2207 91.3428Z" fill="#FCD1C5"/>
<path d="M35.7051 93.6475L38.2207 91.3428C38.2207 91.3428 38.3185 91.8618 38.4233 92.4778C37.8324 93.5925 36.9105 94.5008 35.782 95.0801C35.7198 94.6052 35.6941 94.1263 35.7051 93.6475Z" fill="#E2B1A6"/>
<path d="M38.3955 91.5296C38.3955 91.5296 37.5011 94.2288 35.272 94.4849L36.0266 91.5296C36.0266 91.5296 37.9133 91.0175 37.9692 91.0106C38.0251 91.0036 38.3955 91.5296 38.3955 91.5296Z" fill="#4846A5"/>
<path d="M23.8752 59.8799C21.7789 65.9773 26.9918 75.459 27.7325 78.2205C28.4732 80.982 36.3693 93.9588 36.3693 93.9588L36.4461 94.0903C36.2798 94.2122 36.1072 94.3254 35.929 94.4295C35.8259 94.4945 35.7157 94.5479 35.6006 94.5887C35.5155 94.6039 35.4278 94.5951 35.3475 94.5632C35.2671 94.5314 35.1975 94.4779 35.1464 94.4087C33.3087 92.0071 28.1587 82.0132 27.991 81.5841C27.8233 81.155 24.5181 73.0921 23.7215 71.3134C23.0227 69.9015 20.8496 63.0774 23.8752 59.8799Z" fill="url(#paint16_linear_1240_421)"/>
</g>
<defs>
<linearGradient id="paint0_linear_1240_421" x1="99.0001" y1="139.084" x2="-20.9998" y2="139.084" gradientUnits="userSpaceOnUse">
<stop stop-color="#5761D7"/>
<stop offset="0.07" stop-color="#5472D8"/>
<stop offset="0.28" stop-color="#4E9CDB"/>
<stop offset="0.48" stop-color="#49BDDD"/>
<stop offset="0.67" stop-color="#45D5DF"/>
<stop offset="0.85" stop-color="#43E3E0"/>
<stop offset="1" stop-color="#42E8E0"/>
</linearGradient>
<linearGradient id="paint1_linear_1240_421" x1="99.0002" y1="130.156" x2="-20.9998" y2="130.156" gradientUnits="userSpaceOnUse">
<stop stop-color="#5761D7"/>
<stop offset="0.07" stop-color="#5472D8"/>
<stop offset="0.28" stop-color="#4E9CDB"/>
<stop offset="0.48" stop-color="#49BDDD"/>
<stop offset="0.67" stop-color="#45D5DF"/>
<stop offset="0.85" stop-color="#43E3E0"/>
<stop offset="1" stop-color="#42E8E0"/>
</linearGradient>
<linearGradient id="paint2_linear_1240_421" x1="98.9999" y1="121.221" x2="-21.0001" y2="121.221" gradientUnits="userSpaceOnUse">
<stop stop-color="#5761D7"/>
<stop offset="0.07" stop-color="#5472D8"/>
<stop offset="0.28" stop-color="#4E9CDB"/>
<stop offset="0.48" stop-color="#49BDDD"/>
<stop offset="0.67" stop-color="#45D5DF"/>
<stop offset="0.85" stop-color="#43E3E0"/>
<stop offset="1" stop-color="#42E8E0"/>
</linearGradient>
<linearGradient id="paint3_linear_1240_421" x1="98.9999" y1="112.286" x2="-21.0001" y2="112.286" gradientUnits="userSpaceOnUse">
<stop stop-color="#5761D7"/>
<stop offset="0.07" stop-color="#5472D8"/>
<stop offset="0.28" stop-color="#4E9CDB"/>
<stop offset="0.48" stop-color="#49BDDD"/>
<stop offset="0.67" stop-color="#45D5DF"/>
<stop offset="0.85" stop-color="#43E3E0"/>
<stop offset="1" stop-color="#42E8E0"/>
</linearGradient>
<linearGradient id="paint4_linear_1240_421" x1="99" y1="125.685" x2="-21" y2="125.685" gradientUnits="userSpaceOnUse">
<stop stop-color="#5761D7"/>
<stop offset="0.07" stop-color="#5472D8"/>
<stop offset="0.28" stop-color="#4E9CDB"/>
<stop offset="0.48" stop-color="#49BDDD"/>
<stop offset="0.67" stop-color="#45D5DF"/>
<stop offset="0.85" stop-color="#43E3E0"/>
<stop offset="1" stop-color="#42E8E0"/>
</linearGradient>
<linearGradient id="paint5_linear_1240_421" x1="98.9999" y1="112.286" x2="-21.0001" y2="112.286" gradientUnits="userSpaceOnUse">
<stop stop-color="#5761D7"/>
<stop offset="0.07" stop-color="#5472D8"/>
<stop offset="0.28" stop-color="#4E9CDB"/>
<stop offset="0.48" stop-color="#49BDDD"/>
<stop offset="0.67" stop-color="#45D5DF"/>
<stop offset="0.85" stop-color="#43E3E0"/>
<stop offset="1" stop-color="#42E8E0"/>
</linearGradient>
<linearGradient id="paint6_linear_1240_421" x1="49.7366" y1="87.896" x2="44.1953" y2="87.896" gradientUnits="userSpaceOnUse">
<stop stop-color="#5761D7"/>
<stop offset="0.07" stop-color="#5472D8"/>
<stop offset="0.28" stop-color="#4E9CDB"/>
<stop offset="0.48" stop-color="#49BDDD"/>
<stop offset="0.67" stop-color="#45D5DF"/>
<stop offset="0.85" stop-color="#43E3E0"/>
<stop offset="1" stop-color="#42E8E0"/>
</linearGradient>
<linearGradient id="paint7_linear_1240_421" x1="46.9207" y1="76.1027" x2="33.0291" y2="76.1027" gradientUnits="userSpaceOnUse">
<stop stop-color="#5761D7"/>
<stop offset="0.07" stop-color="#5472D8"/>
<stop offset="0.28" stop-color="#4E9CDB"/>
<stop offset="0.48" stop-color="#49BDDD"/>
<stop offset="0.67" stop-color="#45D5DF"/>
<stop offset="0.85" stop-color="#43E3E0"/>
<stop offset="1" stop-color="#42E8E0"/>
</linearGradient>
<linearGradient id="paint8_linear_1240_421" x1="46.8577" y1="62.8698" x2="31.8062" y2="62.8698" gradientUnits="userSpaceOnUse">
<stop stop-color="#5761D7"/>
<stop offset="0.07" stop-color="#5472D8"/>
<stop offset="0.28" stop-color="#4E9CDB"/>
<stop offset="0.48" stop-color="#49BDDD"/>
<stop offset="0.67" stop-color="#45D5DF"/>
<stop offset="0.85" stop-color="#43E3E0"/>
<stop offset="1" stop-color="#42E8E0"/>
</linearGradient>
<linearGradient id="paint9_linear_1240_421" x1="16.516" y1="106.962" x2="7.44038" y2="106.138" gradientUnits="userSpaceOnUse">
<stop stop-color="#5761D7"/>
<stop offset="0.07" stop-color="#5472D8"/>
<stop offset="0.28" stop-color="#4E9CDB"/>
<stop offset="0.48" stop-color="#49BDDD"/>
<stop offset="0.67" stop-color="#45D5DF"/>
<stop offset="0.85" stop-color="#43E3E0"/>
<stop offset="1" stop-color="#42E8E0"/>
</linearGradient>
<linearGradient id="paint10_linear_1240_421" x1="12.4099" y1="37.1816" x2="11.1244" y2="37.0648" gradientUnits="userSpaceOnUse">
<stop stop-color="#5761D7"/>
<stop offset="0.07" stop-color="#5472D8"/>
<stop offset="0.28" stop-color="#4E9CDB"/>
<stop offset="0.48" stop-color="#49BDDD"/>
<stop offset="0.67" stop-color="#45D5DF"/>
<stop offset="0.85" stop-color="#43E3E0"/>
<stop offset="1" stop-color="#42E8E0"/>
</linearGradient>
<linearGradient id="paint11_linear_1240_421" x1="27.6339" y1="83.143" x2="5.72388" y2="81.152" gradientUnits="userSpaceOnUse">
<stop stop-color="#5761D7"/>
<stop offset="0.07" stop-color="#5472D8"/>
<stop offset="0.28" stop-color="#4E9CDB"/>
<stop offset="0.48" stop-color="#49BDDD"/>
<stop offset="0.67" stop-color="#45D5DF"/>
<stop offset="0.85" stop-color="#43E3E0"/>
<stop offset="1" stop-color="#42E8E0"/>
</linearGradient>
<linearGradient id="paint12_linear_1240_421" x1="9.15995" y1="56.2043" x2="4.0108" y2="55.7364" gradientUnits="userSpaceOnUse">
<stop stop-color="#5761D7"/>
<stop offset="0.07" stop-color="#5472D8"/>
<stop offset="0.28" stop-color="#4E9CDB"/>
<stop offset="0.48" stop-color="#49BDDD"/>
<stop offset="0.67" stop-color="#45D5DF"/>
<stop offset="0.85" stop-color="#43E3E0"/>
<stop offset="1" stop-color="#42E8E0"/>
</linearGradient>
<linearGradient id="paint13_linear_1240_421" x1="37.3487" y1="103.984" x2="19.6306" y2="102.374" gradientUnits="userSpaceOnUse">
<stop stop-color="#5761D7"/>
<stop offset="0.07" stop-color="#5472D8"/>
<stop offset="0.28" stop-color="#4E9CDB"/>
<stop offset="0.48" stop-color="#49BDDD"/>
<stop offset="0.67" stop-color="#45D5DF"/>
<stop offset="0.85" stop-color="#43E3E0"/>
<stop offset="1" stop-color="#42E8E0"/>
</linearGradient>
<linearGradient id="paint14_linear_1240_421" x1="27.9689" y1="96.8967" x2="25.7192" y2="96.6922" gradientUnits="userSpaceOnUse">
<stop stop-color="#5761D7"/>
<stop offset="0.07" stop-color="#5472D8"/>
<stop offset="0.28" stop-color="#4E9CDB"/>
<stop offset="0.48" stop-color="#49BDDD"/>
<stop offset="0.67" stop-color="#45D5DF"/>
<stop offset="0.85" stop-color="#43E3E0"/>
<stop offset="1" stop-color="#42E8E0"/>
</linearGradient>
<linearGradient id="paint15_linear_1240_421" x1="32.6223" y1="93.1322" x2="30.3726" y2="92.9278" gradientUnits="userSpaceOnUse">
<stop stop-color="#5761D7"/>
<stop offset="0.07" stop-color="#5472D8"/>
<stop offset="0.28" stop-color="#4E9CDB"/>
<stop offset="0.48" stop-color="#49BDDD"/>
<stop offset="0.67" stop-color="#45D5DF"/>
<stop offset="0.85" stop-color="#43E3E0"/>
<stop offset="1" stop-color="#42E8E0"/>
</linearGradient>
<linearGradient id="paint16_linear_1240_421" x1="30.0329" y1="73.8749" x2="13.3279" y2="72.3569" gradientUnits="userSpaceOnUse">
<stop stop-color="#5761D7"/>
<stop offset="0.07" stop-color="#5472D8"/>
<stop offset="0.28" stop-color="#4E9CDB"/>
<stop offset="0.48" stop-color="#49BDDD"/>
<stop offset="0.67" stop-color="#45D5DF"/>
<stop offset="0.85" stop-color="#43E3E0"/>
<stop offset="1" stop-color="#42E8E0"/>
</linearGradient>
</defs>
</svg>
