<svg width="145" height="109" viewBox="0 0 145 109" fill="none" xmlns="http://www.w3.org/2000/svg">
<g opacity="0.6" clip-path="url(#clip0_1240_528)">
<path d="M117.675 43.9856C117.675 43.9856 108.636 23.1921 79.9316 27.1727L80.1402 12.9021C80.1402 12.9021 118.87 13.4648 117.675 43.9856Z" fill="#FFD02A"/>
<path d="M68.5138 20.6996L75.8039 14.1226L83.094 7.54573L83.8951 20.337L84.6946 33.1317L76.6025 26.9148L68.5138 20.6996Z" fill="#FFD02A"/>
</g>
<g opacity="0.6" clip-path="url(#clip1_1240_528)">
<path d="M51.2138 85.1346L43.9236 91.7115L36.6335 98.2884L35.8324 85.4971L35.0329 72.7024L43.125 78.9193L51.2138 85.1346Z" fill="#2AD9FF"/>
<path d="M2.05243 61.8486C2.05243 61.8486 11.0914 82.6421 39.7959 78.6615L39.5873 92.9321C39.5873 92.9321 0.857229 92.3694 2.05243 61.8486Z" fill="#2AD9FF"/>
</g>
<mask id="mask0_1240_528" style="mask-type:alpha" maskUnits="userSpaceOnUse" x="55" y="30" width="90" height="79">
<rect x="55" y="30" width="90" height="79" rx="4" fill="#D9D9D9"/>
</mask>
<g mask="url(#mask0_1240_528)">
<path d="M112.962 126C143.869 126 168.924 111.54 168.924 93.7018C168.924 75.864 143.869 61.4036 112.962 61.4036C82.055 61.4036 57 75.864 57 93.7018C57 111.54 82.055 126 112.962 126Z" fill="url(#paint0_linear_1240_528)"/>
<path opacity="0.48" d="M168.924 83.0691H167.542C165.294 77.3164 160.267 71.8473 152.535 67.3673C130.675 54.7636 95.2488 54.7636 73.3747 67.3527C66.1003 71.5855 61.1974 76.6982 58.7823 82.0946H57.0291V89.2582C56.5927 97.84 62.0485 106.502 73.3892 113.047C95.2488 125.665 130.682 125.665 152.535 113.047C163.446 106.735 168.924 98.5018 168.924 90.2037V83.0691Z" fill="url(#paint1_linear_1240_528)"/>
<path opacity="0.48" d="M168.924 83.0691H167.542C165.294 77.3164 160.267 71.8473 152.535 67.3673C130.675 54.7636 95.2488 54.7636 73.3747 67.3527C66.1003 71.5855 61.1974 76.6982 58.7823 82.0946H57.0291V89.2582C56.5927 97.84 62.0485 106.502 73.3892 113.047C95.2488 125.665 130.682 125.665 152.535 113.047C163.446 106.735 168.924 98.5018 168.924 90.2037V83.0691Z" fill="url(#paint2_linear_1240_528)"/>
<path opacity="0.48" d="M168.924 83.0691H167.542C165.294 77.3164 160.267 71.8473 152.535 67.3673C130.675 54.7636 95.2488 54.7636 73.3747 67.3527C66.1003 71.5855 61.1974 76.6982 58.7823 82.0946H57.0291V89.2582C56.5927 97.84 62.0485 106.502 73.3892 113.047C95.2488 125.665 130.682 125.665 152.535 113.047C163.446 106.735 168.924 98.5018 168.924 90.2037V83.0691Z" fill="url(#paint3_linear_1240_528)"/>
<path d="M168.924 80.2983H167.542C165.294 74.5383 160.267 69.0765 152.535 64.5965C130.711 51.9783 95.2488 51.9783 73.3892 64.5965C66.1003 68.8147 61.1974 73.9274 58.7823 79.3237H57.0291V86.4728C56.5927 95.0547 62.0485 103.716 73.3892 110.269C95.2488 122.88 130.682 122.88 152.535 110.269C163.446 103.964 168.924 95.7238 168.924 87.4256V80.2983Z" fill="url(#paint4_linear_1240_528)"/>
<path opacity="0.48" d="M167.542 80.2909C167.462 80.0873 167.382 79.8909 167.294 79.6873V74.9891H164.385V74.6473C163.615 73.6261 162.782 72.6545 161.89 71.7382V75.0036H160.209V70.0945C159.431 69.3673 158.594 68.6909 157.714 68.0145V74.9891H156.012V66.8C155.219 66.24 154.382 65.7018 153.509 65.1709V74.9891H151.844V64.2182C151.022 63.76 150.185 63.3163 149.327 62.8945V74.9891H147.668V62.0872C146.839 61.7091 146.002 61.36 145.144 60.9963V74.9891H143.493V63.6582H140.961V74.9891H139.317V66.7636H136.778V74.9891H135.149V69.8982H132.603V74.9891H130.973V72.9891H128.42V74.9891H97.533V72.9891H94.9724V74.9891H93.3502V69.8982H90.8333V74.9891H89.1674V66.7636H86.6287V74.9891H85.0138V63.6582H82.4532V74.9891H80.8019V60.9891C79.9508 61.3309 79.1069 61.7163 78.2777 62.0727V74.9891H76.6191V62.8582C75.768 63.2873 74.9314 63.7236 74.1094 64.1818V74.9891H72.4436V65.1563C71.5707 65.68 70.7341 66.2254 69.9339 66.7782V74.9891H68.2826V67.9927C67.3952 68.6691 66.5659 69.3673 65.7803 70.0727V74.9891H64.078V71.6945C63.1843 72.6093 62.3508 73.581 61.5829 74.6036V74.9745H58.6732V79.3382H57.4365V91.3236C57.9145 93.5569 58.7445 95.6999 59.8953 97.6727V90.1964H61.5829V100.24C62.3507 101.263 63.1842 102.234 64.078 103.149V90.1964H65.7584V104.785C66.5392 105.488 67.3733 106.179 68.2608 106.858V90.1964H69.9339V108.08C70.7341 108.633 71.5634 109.171 72.4436 109.702V90.1964H74.1022V110.669C74.9242 111.127 75.7607 111.571 76.6118 111.993V90.1745H78.2704V112.756C79.0997 113.135 79.9435 113.484 80.7946 113.847V90.1964H82.4459V114.509C83.2824 114.822 84.1263 115.12 84.9774 115.411V90.1964H86.6214V115.935C87.4579 116.196 88.3018 116.436 89.1602 116.662V90.1964H90.8333V117.105C91.6698 117.309 92.5209 117.513 93.3793 117.695V90.1964H95.0015V118.036C95.8526 118.196 96.7037 118.356 97.5621 118.495V90.1964H99.177V118.764C100.028 118.887 100.886 118.996 101.738 119.098V90.1964H103.352V119.244C104.204 119.331 105.062 119.404 105.92 119.469V90.1964H107.528V119.571C108.386 119.622 109.245 119.658 110.103 119.687V90.1964H111.696V119.716C112.569 119.716 113.435 119.716 114.308 119.716V90.1964H115.901V119.687C116.759 119.687 117.625 119.622 118.483 119.571V90.1964H120.084V119.491C120.942 119.425 121.8 119.353 122.651 119.265V90.1964H124.266V119.069C125.125 118.967 125.976 118.851 126.827 118.727V90.1964H128.449V118.48C129.3 118.335 130.159 118.182 131.002 118.015V90.1964H132.632V117.68C133.483 117.498 134.334 117.302 135.178 117.091V90.1818H136.807V116.647C137.666 116.422 138.51 116.175 139.346 115.92V90.1964H140.99V115.404C141.849 115.113 142.692 114.815 143.522 114.502V90.1964H145.173V113.855C146.031 113.513 146.868 113.127 147.697 112.771V90.2255H149.356V112.044C150.214 111.622 151.051 111.178 151.873 110.72V90.1964H153.539V109.695C154.411 109.164 155.248 108.618 156.041 108.065V90.1964H157.721V106.844C158.602 106.167 159.438 105.469 160.216 104.764V90.2182H161.897V103.164C162.791 102.249 163.624 101.277 164.392 100.255V90.1964H166.08V97.6727C167.251 95.6758 168.091 93.5021 168.567 91.2364V80.3273L167.542 80.2909Z" fill="url(#paint5_linear_1240_528)"/>
<path d="M112.962 112.596C143.869 112.596 168.924 98.136 168.924 80.2982C168.924 62.4604 143.869 48 112.962 48C82.055 48 57 62.4604 57 80.2982C57 98.136 82.055 112.596 112.962 112.596Z" fill="url(#paint6_linear_1240_528)"/>
<path opacity="0.3" d="M112.984 48C100.297 48 87.6252 50.4728 77.2956 55.4109L60.5645 91.6946C63.3214 95.8692 67.5551 99.7819 73.3747 103.142C77.129 105.272 81.0895 107.017 85.1956 108.349L112.984 48Z" fill="#E8BA42"/>
<path opacity="0.3" d="M128.66 49.2946L99.9407 111.716C106.881 112.663 113.903 112.851 120.884 112.276L147.319 54.8219C141.36 52.1926 135.09 50.3351 128.66 49.2946Z" fill="#E8BA42"/>
<path d="M77.921 62.0364C97.2709 50.8655 128.653 50.8655 148.003 62.0364C157.256 67.3382 162.122 74.2692 162.486 81.2655C162.93 73.6292 158.121 65.9055 148.003 60.0728C128.653 48.9019 97.2709 48.9019 77.921 60.0728C67.8169 65.891 62.994 73.6219 63.4377 81.2655C63.8451 74.2692 68.668 67.3382 77.921 62.0364Z" fill="url(#paint7_linear_1240_528)"/>
<path d="M128.275 74.2473C125.324 73.9905 122.357 74.4912 119.654 75.7018C122.986 72.9382 122.22 70.1115 117.356 67.2218L116.999 67.0109C115.426 66.0682 113.736 65.3348 111.973 64.8291C110.318 64.3453 108.605 64.086 106.881 64.0582C105.223 64.0696 103.574 64.287 101.97 64.7055C101.068 64.9309 100.217 65.1855 99.4025 65.4327L96.2818 63.6364L91.6917 66.2836L94.2595 67.7382C93.8013 67.9855 93.343 68.24 92.8774 68.5091L91.1897 69.4837L88.6437 68.0291L84.0172 70.7637L86.5632 72.2182L83.3916 74.0509L82.1477 74.7782L81.813 74.9746L76.5464 78.0146L81.1365 80.6691L86.4105 77.6218L119.531 96.7419L114.257 99.7819L118.847 102.436L124.121 99.3891L125.699 98.48L128.864 96.6546L131.454 98.1091L136.051 95.4909L134.407 94.5382L133.461 93.9928L136.502 92.24L139.092 93.7309L143.682 91.0837L142.038 90.1309L140.721 89.4037C142.53 87.8231 143.5 86.2303 143.631 84.6255C143.762 82.2303 141.771 79.8352 137.659 77.44L137.375 77.28C134.598 75.6197 131.492 74.5847 128.275 74.2473ZM97.4312 73.1709L98.8861 72.3127C102.547 70.2037 106.044 70.1115 109.376 72.0364C111.316 73.1612 112.382 74.194 112.576 75.1346C112.77 76.0752 111.856 77.1249 109.834 78.2837L108.052 79.3091L97.4312 73.1709ZM126.929 90.1964L114.242 82.8728L116.083 81.8182C117.822 80.7143 119.842 80.1359 121.902 80.1528C124.144 80.378 126.301 81.1252 128.202 82.3346C130.336 83.5564 131.485 84.6885 131.65 85.7309C131.815 86.7734 130.889 87.8788 128.871 89.0473L126.929 90.1964Z" fill="url(#paint8_linear_1240_528)"/>
<path d="M84.0171 67.0037V69.9419L86.5631 68.4728L84.0171 67.0037Z" fill="url(#paint9_linear_1240_528)"/>
<path d="M91.6553 62.5964V65.5346L94.2231 64.08L91.6553 62.5964Z" fill="url(#paint10_linear_1240_528)"/>
<path d="M121.684 68.48V71.9782L119.385 70.5673L121.684 68.48Z" fill="url(#paint11_linear_1240_528)"/>
<path d="M143.609 80.2982V84.5673L140.161 82.4364L143.609 80.2982Z" fill="url(#paint12_linear_1240_528)"/>
<path d="M128.275 70.5236C125.324 70.2669 122.357 70.7675 119.654 71.9782C122.986 69.2291 122.22 66.4 117.356 63.4909L116.999 63.2873C115.427 62.3421 113.737 61.6084 111.973 61.1054C110.316 60.6361 108.603 60.3915 106.881 60.3782C105.224 60.3871 103.574 60.6021 101.97 61.0182C101.068 61.2436 100.217 61.4982 99.4025 61.7454L96.2818 59.9418L91.6917 62.5891L94.2595 64.0436C93.8013 64.2909 93.343 64.5455 92.8774 64.8145L91.1897 65.7891L88.6437 64.3345L84.0536 66.9818L86.5996 68.4364L83.428 70.2691L82.184 70.9964L81.8494 71.1927L76.5464 74.2545L81.1365 76.9091L86.4105 73.8618L119.531 92.9818L114.257 96.0291L118.847 98.6764L124.121 95.6364L125.699 94.72L128.864 92.8946L131.454 94.3491L136.051 91.7018L134.407 90.7564L133.461 90.2037L136.502 88.4509L139.092 89.9055L143.682 87.2582L142.038 86.3127L140.721 85.5855C142.53 84.0097 143.5 82.417 143.631 80.8073C143.762 78.4121 141.771 76.017 137.659 73.6218L137.375 73.4618C134.59 71.8346 131.485 70.8321 128.275 70.5236ZM97.4312 69.4473L98.8861 68.5964C102.547 66.4776 106.044 66.383 109.376 68.3127C111.333 69.44 112.402 70.4945 112.576 71.4109C112.751 72.3273 111.849 73.3964 109.834 74.56L108.052 75.5927L97.4312 69.4473ZM126.929 86.4727L114.242 79.1564L116.083 78.0946C117.822 76.9906 119.842 76.4123 121.902 76.4291C124.144 76.6543 126.301 77.4016 128.202 78.6109C130.336 79.8327 131.485 80.9649 131.65 82.0073C131.817 83.0546 130.922 84.1891 128.871 85.3236L126.929 86.4727Z" fill="url(#paint13_linear_1240_528)"/>
<path d="M143.682 87.331V91.0546L139.092 93.7019V89.9782L143.682 87.331Z" fill="url(#paint14_linear_1240_528)"/>
<path d="M136.051 91.7383V95.4619L131.453 98.1092V94.3856L136.051 91.7383Z" fill="url(#paint15_linear_1240_528)"/>
<path d="M118.847 98.6764V102.4L114.257 99.7455V96.0219L118.847 98.6764Z" fill="url(#paint16_linear_1240_528)"/>
<path d="M76.5464 74.2546V77.9782L81.1365 80.6328V76.9091L76.5464 74.2546Z" fill="url(#paint17_linear_1240_528)"/>
<path d="M86.4104 77.5854V73.869L81.1365 76.909V80.6327L86.4104 77.5854Z" fill="url(#paint18_linear_1240_528)"/>
<path d="M86.4104 73.869V77.5854L116.301 94.8436L119.531 92.9818L86.4104 73.869Z" fill="url(#paint19_linear_1240_528)"/>
</g>
<path d="M34.3569 54.7C51.6728 54.7 65.7101 46.5984 65.7101 36.6046C65.7101 26.6108 51.6728 18.5092 34.3569 18.5092C17.041 18.5092 3.00366 26.6108 3.00366 36.6046C3.00366 46.5984 17.041 54.7 34.3569 54.7Z" fill="url(#paint20_linear_1240_528)"/>
<path opacity="0.48" d="M65.71 30.6468L64.9324 30.6391C63.6726 27.4186 60.8698 24.3537 56.5217 21.844C44.2772 14.7768 24.4253 14.7768 12.1819 21.844C8.07155 24.2127 5.34982 27.0766 3.99673 30.1016L3.01358 30.0927V34.1049C2.76918 38.9122 5.82418 43.7662 12.1819 47.4308C24.4264 54.4979 44.2783 54.4979 56.5228 47.4308C62.645 43.8983 65.7056 39.2665 65.7056 34.6357L65.71 30.6468Z" fill="url(#paint21_linear_1240_528)"/>
<path opacity="0.48" d="M65.71 30.6468L64.9324 30.6391C63.6726 27.4186 60.8698 24.3537 56.5217 21.844C44.2772 14.7768 24.4253 14.7768 12.1819 21.844C8.07155 24.2127 5.34982 27.0766 3.99673 30.1016L3.01358 30.0927V34.1049C2.76918 38.9122 5.82418 43.7662 12.1819 47.4308C24.4264 54.4979 44.2783 54.4979 56.5228 47.4308C62.645 43.8983 65.7056 39.2665 65.7056 34.6357L65.71 30.6468Z" fill="url(#paint22_linear_1240_528)"/>
<path opacity="0.48" d="M65.71 30.6468L64.9324 30.6391C63.6726 27.4186 60.8698 24.3537 56.5217 21.844C44.2772 14.7768 24.4253 14.7768 12.1819 21.844C8.07155 24.2127 5.34982 27.0766 3.99673 30.1016L3.01358 30.0927V34.1049C2.76918 38.9122 5.82418 43.7662 12.1819 47.4308C24.4264 54.4979 44.2783 54.4979 56.5228 47.4308C62.645 43.8983 65.7056 39.2665 65.7056 34.6357L65.71 30.6468Z" fill="url(#paint23_linear_1240_528)"/>
<path d="M65.71 29.0955L64.9324 29.0888C63.6726 25.8684 60.8698 22.8023 56.5217 20.2937C44.2772 13.2266 24.4253 13.2266 12.1819 20.2937C8.07155 22.6635 5.34982 25.5263 3.99673 28.5513L3.01358 28.5435V32.5557C2.76918 37.3631 5.82418 42.217 12.1819 45.8816C24.4264 52.9477 44.2783 52.9477 56.5228 45.8816C62.645 42.348 65.7056 37.7173 65.7056 33.0866L65.71 29.0955Z" fill="url(#paint24_linear_1240_528)"/>
<path opacity="0.48" d="M64.9368 29.0888C64.8935 28.9777 64.8457 28.8667 64.7979 28.7556V26.1182H63.1549V25.9294C62.7248 25.3546 62.2588 24.8075 61.7596 24.2915V26.1182H60.8164V23.3764C60.3795 22.9803 59.9129 22.5924 59.4167 22.2126V26.1182H58.478V21.5319C58.0336 21.221 57.5655 20.9171 57.0738 20.6202V26.1182H56.1395V20.076C55.6796 19.8184 55.21 19.5708 54.7309 19.3331V26.1182H53.801V18.8934C53.3382 18.6809 52.8671 18.4773 52.388 18.2826V26.1182H51.4626V19.7707H50.0451V26.1182H49.1241V21.513H47.7021V26.1182H46.7834V23.2587H45.3592V26.1215H44.4505V24.9977H43.0163V26.1182H25.7106V24.9977H24.2786V26.1182H23.3677V23.2587H21.9401V26.1215H21.0248V21.513H19.6017V26.1182H18.6774V19.7707H17.2632V26.1182H16.3445V18.2759C15.8661 18.4714 15.3947 18.675 14.9303 18.8867V26.1182H14.0016V19.3265C13.5217 19.5641 13.0518 19.811 12.5918 20.0672V26.1182H11.6587V20.6113C11.1691 20.9074 10.7007 21.2106 10.2534 21.5208V26.1182H9.31576V22.2004C8.81808 22.5813 8.35372 22.97 7.91491 23.3664V26.1182H6.97286V24.2759C6.47073 24.7906 6.00173 25.3366 5.56867 25.9106V26.1182H3.92785V28.5502L3.23242 28.5435V35.2709C3.50329 36.5271 3.9732 37.732 4.62439 38.84V34.639H5.56867V40.2681C5.99925 40.8411 6.46565 41.3863 6.96508 41.9005V34.639H7.90713V42.8111C8.34483 43.2072 8.81178 43.5951 9.30799 43.9749V34.639H10.2456V44.6556C10.69 44.9666 11.1584 45.2705 11.6509 45.5673V34.639H12.5841V46.1081C13.044 46.365 13.5139 46.6119 13.9938 46.8488V34.639H14.9225V47.2897C15.3854 47.5007 15.8568 47.7039 16.3367 47.8994V34.639H17.261V48.2603C17.7276 48.4357 18.2005 48.6034 18.6796 48.7633V34.639H19.5995V49.0587C20.0697 49.2031 20.5441 49.3404 21.0225 49.4707V34.639H21.9379V49.7083C22.4104 49.8261 22.8863 49.9371 23.3654 50.0415V34.639H24.2764V50.2258C24.7504 50.3191 25.2277 50.405 25.7084 50.4835V34.639H26.6149V50.6301C27.0911 50.6996 27.5699 50.7629 28.0513 50.8199V34.639H28.9533V50.9099C29.4325 50.9588 29.9139 51.0006 30.3975 51.0354V34.639H31.2951V51.0976C31.7758 51.1242 32.2572 51.1446 32.7393 51.1586V34.639H33.628V51.1786C34.1146 51.1853 34.6016 51.1853 35.0889 51.1786V34.639H35.9832V51.1586C36.4653 51.1446 36.9467 51.1239 37.4273 51.0965V34.639H38.3261V51.0376C38.8067 51.0021 39.2881 50.9602 39.7702 50.9121V34.639H40.6734V50.8133C41.1533 50.757 41.6318 50.6937 42.1087 50.6234V34.639H43.0163V50.4824C43.4962 50.4024 43.9732 50.3162 44.4472 50.2236V34.639H45.3592V50.0371C45.8384 49.9341 46.3139 49.8231 46.7856 49.7039V34.639H47.7021V49.4663C48.1813 49.3367 48.6553 49.1994 49.1241 49.0543V34.639H50.0451V48.7589C50.5227 48.599 50.9953 48.4317 51.4626 48.2569V34.639H52.388V47.8949C52.8664 47.6995 53.3374 47.4959 53.801 47.2841V34.639H54.7309V46.8433C55.2108 46.6068 55.6796 46.358 56.1395 46.1015V34.639H57.0738V45.5607C57.5637 45.2631 58.0303 44.9588 58.478 44.6478V34.639H59.4167V43.9671C59.9122 43.5873 60.3787 43.1994 60.8164 42.8033V34.6412H61.7596V41.8938C62.259 41.3756 62.725 40.8263 63.1549 40.2492V34.639H64.1025V38.8178C64.7576 37.6995 65.2273 36.4826 65.4934 35.2142V29.0932L64.9368 29.0888Z" fill="url(#paint25_linear_1240_528)"/>
<path d="M34.3569 47.1909C51.6728 47.1909 65.7101 39.0893 65.7101 29.0955C65.7101 19.1016 51.6728 11 34.3569 11C17.041 11 3.00366 19.1016 3.00366 29.0955C3.00366 39.0893 17.041 47.1909 34.3569 47.1909Z" fill="url(#paint26_linear_1240_528)"/>
<path opacity="0.3" d="M34.3667 11C27.2569 11 20.1593 12.3848 14.3703 15.1533L5.01758 35.4752C6.54175 37.8073 8.92465 40.0049 12.1829 41.8861C14.2856 43.0817 16.5048 44.0595 18.8062 44.8044L34.3667 11Z" fill="#42E8E0"/>
<path opacity="0.3" d="M43.1518 11.7252L27.0603 46.69C30.9482 47.2191 34.882 47.3245 38.7926 47.0043L53.6066 14.819C50.4205 13.3831 46.8678 12.3504 43.1518 11.7252Z" fill="#42E8E0"/>
<path d="M14.7226 18.8434C25.5662 12.5858 43.1463 12.5858 53.9899 18.8434C59.1745 21.8351 61.8774 25.7151 62.0996 29.6352C62.3484 25.3553 59.6445 21.03 53.9899 17.7629C43.1463 11.5053 25.5662 11.5053 14.7226 17.7629C9.06251 21.0289 6.35967 25.3542 6.61296 29.634C6.83514 25.7162 9.53909 21.8351 14.7226 18.8434Z" fill="url(#paint27_linear_1240_528)"/>
<path d="M32.7037 37.6174C32.5082 37.5189 32.3175 37.4156 32.1316 37.3075C32.3167 37.4178 32.5075 37.5211 32.7037 37.6174Z" fill="url(#paint28_linear_1240_528)"/>
<path d="M46.5612 32.5968C46.55 32.4822 46.5299 32.3686 46.5012 32.257C46.5299 32.3686 46.55 32.4822 46.5612 32.5968Z" fill="url(#paint29_linear_1240_528)"/>
<path d="M16.1545 23.1643L17.0744 23.6985L16.1545 23.1643Z" fill="url(#paint30_linear_1240_528)"/>
<path d="M19.3439 19.4942L19.2328 19.4209L19.1984 19.3942L19.1362 19.3443L19.1007 19.3098L19.054 19.2632L19.0229 19.2254L18.9862 19.1788L18.9618 19.1388L18.934 19.0922L18.9162 19.0522L18.8962 19.0033L18.8862 18.9611L18.874 18.9134V18.8712V18.8246V19.6397C18.874 19.8817 19.034 20.1238 19.3528 20.3059L20.3093 20.8612C20.5615 20.7324 20.8192 20.6102 21.087 20.4992L19.3439 19.4942Z" fill="url(#paint31_linear_1240_528)"/>
<path d="M14.5748 23.061L16.7811 24.3426C16.8617 24.1205 16.9598 23.9051 17.0744 23.6985L16.1545 23.1643L14.5726 22.2448L14.5459 22.2282L14.4604 22.1738L14.4204 22.1416L14.3637 22.0971L14.3271 22.0605L14.2815 22.0161L14.2504 21.9783L14.2138 21.9317L14.1904 21.8917L14.1616 21.844L14.1449 21.8029L14.1249 21.7551L14.1138 21.714L14.1027 21.6652V21.6219V21.5763V22.3914C14.0971 22.6346 14.2571 22.8767 14.5748 23.061Z" fill="url(#paint32_linear_1240_528)"/>
<path d="M32.216 23.7029C32.9648 24.1371 33.4947 24.6502 33.8102 25.1965L34.1435 25.3886C34.0876 24.902 33.8971 24.4406 33.5936 24.0561C33.4219 23.8309 33.2259 23.6253 33.0092 23.4431C32.7622 23.2343 32.4967 23.0485 32.216 22.8878C32.0679 22.7997 31.9131 22.7175 31.7517 22.6413C30.7232 22.1676 29.6182 21.8821 28.4889 21.7984C28.2934 21.7807 28.0968 21.7696 27.9001 21.7618L29.6421 22.7745C30.5455 22.9394 31.4154 23.2532 32.216 23.7029Z" fill="url(#paint33_linear_1240_528)"/>
<path d="M38.3794 25.7784V25.8517L38.3572 26.0827V26.0983L38.3205 26.3137L38.3039 26.3903L38.2683 26.5447L38.2439 26.6324L38.2005 26.7757L38.1706 26.8656L38.1172 27.0089L38.0828 27.0955L38.015 27.2487L37.9817 27.322L37.8706 27.5441L38.1639 27.7151C38.3176 27.2945 38.3965 26.8503 38.3972 26.4025V25.5863V25.6163L38.3794 25.7784Z" fill="url(#paint34_linear_1240_528)"/>
<path d="M22.7556 23.7029C23.1915 23.4546 23.6511 23.2503 24.1276 23.0933L32.6649 28.0527C32.8696 27.9084 33.0621 27.7476 33.2404 27.5719L24.1309 22.2771C23.6544 22.4345 23.1948 22.6391 22.759 22.8878C22.5581 23.0029 22.3644 23.1301 22.1791 23.2687C22.0913 23.3353 22.0069 23.4031 21.928 23.4708L21.7058 23.6807L22.2835 24.0139C22.4355 23.9023 22.5931 23.7985 22.7556 23.7029Z" fill="url(#paint35_linear_1240_528)"/>
<path d="M23.3276 29.3431L23.3121 29.4053L23.2976 29.4597L23.2721 29.5219L23.2487 29.5752L23.2121 29.6363L23.181 29.6885L23.1299 29.7507L23.0932 29.7973L23.0266 29.8617L22.9855 29.9017L22.8966 29.9728L22.8577 30.0016L22.7122 30.0949C22.2478 30.3318 21.7338 30.4553 21.2125 30.4553C20.6911 30.4553 20.1771 30.3318 19.7127 30.0949C19.595 30.0261 19.4817 29.9572 19.3706 29.8861L19.2806 29.8273C19.1906 29.7695 19.1028 29.7096 19.0173 29.6496L18.9562 29.6063C18.854 29.5341 18.7562 29.4597 18.6607 29.3842L18.5929 29.3298L18.3707 29.1454L18.3008 29.0866C18.2141 29.0088 18.1297 28.93 18.0486 28.8512L18.0175 28.819L17.8153 28.608L17.7542 28.5402L17.5664 28.3181L17.5431 28.2893L17.3565 28.0394L17.3109 27.9728L17.1776 27.7695L17.141 27.7085L16.9988 27.4531L16.9721 27.4009L16.8732 27.1865L16.8432 27.1144C16.8066 27.0277 16.7721 26.94 16.7433 26.8523V26.8434C16.7144 26.7579 16.6899 26.6713 16.6677 26.5858L16.6499 26.5125L16.6033 26.2904L16.5944 26.2404C16.5788 26.1504 16.5688 26.0627 16.5611 25.9739L16.5555 25.9073L16.5466 25.694V25.6507V26.4658C16.5466 28.0749 17.6053 29.6807 19.7149 30.9078C20.5392 31.3864 21.8801 31.3864 22.7144 30.9078C23.1321 30.6668 23.341 30.3525 23.3398 30.0338V29.2176L23.3343 29.2798L23.3276 29.3431Z" fill="url(#paint36_linear_1240_528)"/>
<path d="M20.7937 25.8595C20.8321 26.2157 20.9457 26.5598 21.127 26.8689L29.1955 31.5552C29.2762 31.3331 29.3742 31.1178 29.4888 30.9111L20.7937 25.8595Z" fill="url(#paint37_linear_1240_528)"/>
<path d="M46.4958 32.2537C46.4361 32.0198 46.3437 31.7955 46.2214 31.5874C46.1568 31.4754 46.0848 31.3678 46.0059 31.2654C45.6284 30.7878 45.1598 30.39 44.6272 30.0949L44.4828 30.0027L44.4417 29.9705L44.3573 29.9039L44.3162 29.8628L44.2518 29.7995L44.2129 29.7518L44.1651 29.6918L44.134 29.6396L44.0973 29.5785L44.0751 29.5263L44.0496 29.4652L44.0362 29.4108L44.0207 29.3475V29.2931L44.0151 29.2332V30.0483C44.0151 30.3614 44.2218 30.6723 44.6317 30.9111C45.3793 31.3453 45.9115 31.8584 46.2258 32.4058L46.5591 32.5968C46.5469 32.481 46.5258 32.3663 46.4958 32.2537Z" fill="url(#paint38_linear_1240_528)"/>
<path d="M50.7904 33.0632L50.7671 33.2942V33.3097L50.7315 33.5252L50.7149 33.6029L50.6793 33.7562L50.6549 33.845L50.6116 33.9883L50.5816 34.0782L50.5283 34.2203L50.4938 34.307L50.426 34.4602L50.3916 34.5335L50.2805 34.7556L50.5749 34.9266C50.7286 34.506 50.8075 34.0618 50.8082 33.614V32.7989V32.8289V32.9888L50.7904 33.0632Z" fill="url(#paint39_linear_1240_528)"/>
<path d="M35.7576 29.7262C35.571 29.8528 35.3743 29.9757 35.1677 30.0949C35.0633 30.156 34.9622 30.2182 34.8655 30.2815C34.7156 30.3803 34.5789 30.4836 34.4489 30.588C34.319 30.6923 34.2134 30.7856 34.1101 30.8878L34.6878 31.2209C34.8434 31.1087 35.0047 31.0045 35.171 30.9089C35.562 30.6836 35.9362 30.4305 36.2908 30.1515L45.0792 35.2598C45.2836 35.1155 45.476 34.9551 45.6547 34.7801L36.2875 29.3387C36.1186 29.4708 35.9442 29.6007 35.7576 29.7262Z" fill="url(#paint40_linear_1240_528)"/>
<path d="M33.5435 34.0793L37.7094 36.5002C38.284 36.6111 38.8664 36.6764 39.4513 36.6957L33.208 33.071C33.2462 33.4273 33.3606 33.7712 33.5435 34.0793Z" fill="url(#paint41_linear_1240_528)"/>
<path d="M53.2467 36.9744L53.2345 37.0232L53.2234 37.0654L53.2034 37.1143L53.1856 37.1554L53.1568 37.202L53.1323 37.242L53.0945 37.2897L53.0634 37.3275L53.0146 37.3753L52.9801 37.4086L52.9179 37.4585L52.8813 37.4863L52.7846 37.5485L52.7679 37.5596C52.5048 37.7031 52.2153 37.7918 51.917 37.8206C51.4094 37.887 50.8936 37.7959 50.4395 37.5596L48.7031 36.5502V37.3664L50.4395 38.3747C51.0805 38.7478 52.1225 38.7478 52.7724 38.3747C53.0968 38.187 53.2601 37.9416 53.259 37.6951V36.88V36.9266L53.2467 36.9744Z" fill="url(#paint42_linear_1240_528)"/>
<path d="M47.8843 37.1254C47.7865 37.1865 47.6854 37.2475 47.5821 37.3064C47.3755 37.4263 47.1626 37.54 46.9433 37.6473C46.7212 37.7584 46.499 37.8561 46.2712 37.9527L47.0489 38.4058C47.2288 38.3147 47.4088 38.2226 47.581 38.1226C47.9737 37.8966 48.3495 37.6424 48.7052 37.3619V36.5457C48.4425 36.7539 48.1684 36.9474 47.8843 37.1254Z" fill="url(#paint43_linear_1240_528)"/>
<path d="M48.4799 39.7251L48.4677 39.7739L48.4566 39.8161L48.4366 39.865L48.4188 39.9061L48.3888 39.956L48.3655 39.9938L48.3266 40.0416L48.2977 40.0793L48.2489 40.1271L48.2133 40.1604L48.1555 40.2059L48.1144 40.2381L48.0445 40.2825L48.0011 40.3103C47.6426 40.5017 47.241 40.5981 46.8347 40.5901C46.626 40.5907 46.418 40.5672 46.2148 40.5202C46.0244 40.4776 45.8414 40.4073 45.6715 40.3114L43.1698 38.8578C41.2488 39.2043 39.2855 39.2489 37.3508 38.9899C36.872 38.9255 36.3988 38.8422 35.9355 38.7401C34.8162 38.5 33.7308 38.123 32.7039 37.6174C32.5084 37.5189 32.3177 37.4156 32.1318 37.3075C32.014 37.2387 31.9018 37.1687 31.7907 37.0988L31.6996 37.0399C31.6108 36.981 31.523 36.9222 31.4386 36.8622L31.3752 36.8189C31.2742 36.7467 31.1764 36.6734 31.0809 36.5968L31.0131 36.5413L30.7909 36.3592L30.7198 36.2981C30.6332 36.2204 30.5498 36.1426 30.4687 36.0638L30.4365 36.0305L30.2343 35.8206L30.1732 35.7528L29.9877 35.5307L29.9622 35.5019L29.7767 35.252L29.73 35.1843L29.5978 34.981L29.5611 34.9222L29.4189 34.6657L29.3923 34.6113L29.2934 34.3992L29.2623 34.327C29.2268 34.2392 29.1923 34.1526 29.1634 34.0638V34.056C29.1345 33.9716 29.1101 33.885 29.0879 33.7984L29.0701 33.724L29.0235 33.5019L29.0135 33.4519C28.999 33.3642 28.989 33.2742 28.9812 33.1865L28.9757 33.121L28.9668 32.9067V32.8622V33.6773C28.9668 35.2864 30.0255 36.8922 32.134 38.1193C35.1079 39.8472 39.3982 40.3625 43.172 39.674L45.6727 41.1265C46.3137 41.4985 47.3568 41.4985 48.0056 41.1265C48.33 40.9388 48.4922 40.6934 48.4922 40.448V39.6329V39.6806L48.4799 39.7251Z" fill="url(#paint44_linear_1240_528)"/>
<path d="M14.1138 21.714L14.1249 21.7551L14.1449 21.8029L14.1616 21.844L14.1905 21.8917L14.2138 21.9317L14.2505 21.9783L14.2816 22.0161L14.3271 22.0605L14.3638 22.0971L14.4204 22.1416L14.4604 22.1738L14.546 22.2282L14.5726 22.2448L16.1546 23.1643L17.0744 23.6985C16.9598 23.9051 16.8618 24.1205 16.7811 24.3426C16.6231 24.7781 16.5452 25.2386 16.5511 25.7018L16.56 25.915L16.5656 25.9816C16.5734 26.0705 16.5834 26.1582 16.5989 26.2482L16.6078 26.2981L16.6545 26.5202L16.6722 26.5935C16.6945 26.679 16.7189 26.7656 16.7478 26.8512V26.86C16.7767 26.9478 16.8111 27.0355 16.8478 27.1221L16.8778 27.1943L16.9766 27.4086L17.0033 27.4608L17.1455 27.7162L17.1821 27.7773L17.3155 27.9805L17.361 28.0471L17.5476 28.297L17.571 28.3259L17.7587 28.548L17.8198 28.6157L18.022 28.8267L18.0531 28.8589C18.1342 28.9378 18.2186 29.0166 18.3053 29.0943L18.3753 29.1532L18.5974 29.3375L18.6652 29.392C18.7608 29.4664 18.8585 29.5408 18.9607 29.614L19.0218 29.6574C19.1074 29.7173 19.1951 29.7773 19.2851 29.835L19.3751 29.8939C19.4862 29.965 19.5973 30.0338 19.7172 30.1027C20.1816 30.3396 20.6956 30.4631 21.217 30.4631C21.7383 30.4631 22.2523 30.3396 22.7167 30.1027L22.8622 30.0094L22.9011 29.9805L22.99 29.9094L23.0311 29.8695L23.0977 29.8051L23.1344 29.7584L23.1855 29.6962L23.2166 29.644L23.2533 29.583L23.2766 29.5297L23.3022 29.4675L23.3166 29.4131L23.3321 29.3509V29.2942L23.3377 29.232C23.3377 28.92 23.1333 28.6068 22.7234 28.3681C21.9746 27.9339 21.4436 27.4208 21.1281 26.8767C20.9468 26.5676 20.8332 26.2235 20.7948 25.8673L29.491 30.9189C29.3765 31.1255 29.2784 31.3409 29.1978 31.563C29.0396 31.9977 28.9617 32.4575 28.9678 32.92L28.9767 33.1343L28.9822 33.1998C28.99 33.2875 29 33.3775 29.0144 33.4652L29.0244 33.5152L29.0711 33.7373L29.0889 33.8117C29.1111 33.8983 29.1355 33.9849 29.1644 34.0693V34.0771C29.1933 34.1659 29.2277 34.2526 29.2633 34.3403L29.2944 34.4125L29.3933 34.6246L29.4199 34.679L29.5621 34.9355L29.5988 34.9944L29.731 35.1976L29.7776 35.2653L29.9632 35.5152L29.9887 35.5441L30.1742 35.7662L30.2353 35.8339L30.4375 36.0438L30.4697 36.0771C30.5508 36.1559 30.6342 36.2337 30.7208 36.3114L30.7919 36.3725L31.0141 36.5546L31.0819 36.6101C31.1774 36.6845 31.2752 36.7578 31.3762 36.8322L31.4396 36.8755C31.524 36.9355 31.6118 36.9944 31.7006 37.0532L31.7917 37.1121C31.9028 37.182 32.0139 37.252 32.1328 37.3208C32.3179 37.4289 32.5086 37.5322 32.7049 37.6307C33.7318 38.1363 34.8172 38.5134 35.9365 38.7534C36.3998 38.8555 36.873 38.9388 37.3518 39.0032C39.2865 39.2623 41.2498 39.2177 43.1708 38.8711L45.6725 40.3114C45.8424 40.4073 46.0254 40.4776 46.2158 40.5202C46.419 40.5672 46.627 40.5907 46.8357 40.5901C47.242 40.5981 47.6436 40.5017 48.0021 40.3103L48.0454 40.2825L48.1154 40.2381L48.1565 40.2059L48.2143 40.1604L48.2499 40.1271L48.2987 40.0793L48.3276 40.0415L48.3665 39.9938L48.3898 39.956L48.4198 39.9061L48.4376 39.865L48.4576 39.8161L48.4687 39.7739L48.4809 39.7251V39.6818V39.634C48.4809 39.3897 48.3221 39.1476 48.0032 38.9677L47.0467 38.4125L46.2691 37.9594C46.4979 37.8628 46.7224 37.7617 46.9412 37.654C47.16 37.5463 47.3733 37.4319 47.58 37.3131C47.6833 37.2542 47.7844 37.1931 47.8821 37.1321C48.1654 36.9555 48.4387 36.7635 48.7009 36.5568L50.4372 37.5663C50.8913 37.8026 51.4071 37.8937 51.9147 37.8272C52.2131 37.7985 52.5026 37.7097 52.7657 37.5663L52.7824 37.5552L52.879 37.493L52.9157 37.4652L52.9779 37.4152L53.0123 37.3819L53.0612 37.3342L53.0923 37.2964L53.1301 37.2487L53.1545 37.2087L53.1834 37.162L53.2012 37.121L53.2212 37.0721L53.2323 37.0299L53.2445 36.981V36.9366V36.89C53.2445 36.6468 53.0856 36.4036 52.7657 36.217L50.5583 34.9355L50.2639 34.7645L50.375 34.5424L50.4095 34.4691L50.4772 34.3159L50.5117 34.2292L50.565 34.0871L50.595 33.9972L50.6383 33.8539L50.6628 33.7651L50.6983 33.6118L50.715 33.5341L50.7505 33.3186V33.3031L50.7738 33.0721V32.9999V32.84C50.7827 31.2198 49.7296 29.6029 47.6077 28.3692C46.7846 27.8917 45.4426 27.8906 44.6083 28.3692C44.1639 28.6257 43.9606 28.9666 43.9895 29.302V29.3564L44.0051 29.4197L44.0184 29.4741L44.044 29.5352L44.0662 29.5874L44.1028 29.6485L44.1339 29.7007L44.1817 29.7606L44.2206 29.8084L44.285 29.8717L44.3261 29.9128L44.4106 29.9794L44.4517 30.0116L44.5961 30.1038C45.1389 30.3929 45.6183 30.7878 46.0058 31.2653C46.0844 31.3682 46.156 31.4761 46.2202 31.5885C46.3426 31.7966 46.4349 32.0209 46.4946 32.2548C46.5233 32.3664 46.5434 32.48 46.5546 32.5946L46.2213 32.4036L38.1506 27.7151L37.8573 27.5441L37.9684 27.322L38.0017 27.2487L38.0695 27.0955L38.1039 27.0088L38.1572 26.8656L38.1872 26.7756L38.2306 26.6324L38.255 26.5447L38.2905 26.3903L38.3072 26.3137L38.3439 26.0982V26.0827L38.3661 25.8517V25.7784V25.6185C38.375 24.0005 37.3218 22.3814 35.2011 21.1499C32.2261 19.4209 27.9346 18.9056 24.1609 19.5952L21.6769 18.1505C21.0348 17.7773 19.9927 17.7773 19.344 18.1505C18.9996 18.3492 18.8396 18.6146 18.8618 18.8756V18.9178L18.8741 18.9656L18.8841 19.0078L18.9041 19.0566L18.9218 19.0966L18.9496 19.1432L18.974 19.1832L19.0107 19.2299L19.0418 19.2676L19.0885 19.3143L19.124 19.3487L19.1862 19.3987L19.2207 19.4253L19.3318 19.4986L21.0681 20.508C20.8004 20.6191 20.5426 20.7412 20.2905 20.8701C20.1094 20.9611 19.9294 21.0533 19.7572 21.1532C19.3662 21.3779 18.9919 21.6306 18.6374 21.9095L16.9 20.9011C16.259 20.528 15.2169 20.528 14.5671 20.9011C14.2216 21.0999 14.0616 21.3653 14.0838 21.6263V21.6696L14.1138 21.714ZM37.7095 36.5002C36.8068 36.3345 35.9375 36.0212 35.1367 35.5729C34.3901 35.1387 33.858 34.6257 33.5436 34.0793C33.3615 33.771 33.2478 33.4271 33.2104 33.071L39.4514 36.6956C38.8666 36.6764 38.2841 36.6111 37.7095 36.5002ZM45.0793 35.2598C44.9239 35.3722 44.763 35.4767 44.5972 35.5729C44.1622 35.8208 43.7038 36.0251 43.2285 36.1826L34.6923 31.2231L34.1146 30.89C34.2179 30.7878 34.3368 30.6879 34.4535 30.5902C34.5701 30.4924 34.7201 30.3825 34.8701 30.2837C34.9667 30.2204 35.0678 30.1582 35.1722 30.0971C35.3789 29.9787 35.5755 29.8558 35.7621 29.7284C35.9487 29.6029 36.1254 29.473 36.292 29.3409L45.6592 34.7823C45.479 34.9567 45.2851 35.1164 45.0793 35.2598ZM28.4868 21.7951C29.616 21.8788 30.7211 22.1643 31.7495 22.638C31.9095 22.712 32.0643 22.7942 32.2139 22.8845C32.4946 23.0451 32.7601 23.231 33.0071 23.4397C33.2238 23.622 33.4197 23.8275 33.5914 24.0527C33.895 24.4372 34.0854 24.8987 34.1413 25.3853L33.808 25.1932L29.6377 22.7712L27.898 21.7584C28.0946 21.7662 28.2912 21.7773 28.4868 21.7951ZM21.9224 23.4664C22.0013 23.3986 22.0857 23.3309 22.1735 23.2643C22.3588 23.1256 22.5525 22.9984 22.7534 22.8834C23.1892 22.6346 23.6488 22.43 24.1253 22.2726L33.2348 27.5674C33.0565 27.7432 32.864 27.904 32.6593 28.0483C32.5042 28.1607 32.3433 28.2648 32.1772 28.3603C31.7859 28.5854 31.4116 28.8389 31.0574 29.1188L22.2668 24.0105L21.6891 23.6774L21.9224 23.4664Z" fill="url(#paint45_linear_1240_528)"/>
<defs>
<linearGradient id="paint0_linear_1240_528" x1="54.8324" y1="64.0183" x2="115.029" y2="157.699" gradientUnits="userSpaceOnUse">
<stop stop-color="#E8BA42"/>
<stop offset="0.02" stop-color="#DDBA40"/>
<stop offset="0.09" stop-color="#C09A3A"/>
<stop offset="0.17" stop-color="#A98834"/>
<stop offset="0.26" stop-color="#95782F"/>
<stop offset="0.35" stop-color="#866D2B"/>
<stop offset="0.44" stop-color="#796228"/>
<stop offset="0.54" stop-color="#715F1E"/>
<stop offset="0.66" stop-color="#6C5415"/>
<stop offset="0.82" stop-color="#6A5112"/>
</linearGradient>
<linearGradient id="paint1_linear_1240_528" x1="48.5545" y1="90.1964" x2="159.365" y2="90.1964" gradientUnits="userSpaceOnUse">
<stop stop-color="#E8BA42"/>
<stop offset="0.15" stop-color="#E3C943"/>
<stop offset="0.33" stop-color="#DFC645"/>
<stop offset="0.52" stop-color="#DDBC49"/>
<stop offset="0.72" stop-color="#DBBC4E"/>
<stop offset="0.93" stop-color="#D8BB54"/>
<stop offset="1" stop-color="#D7B357"/>
</linearGradient>
<linearGradient id="paint2_linear_1240_528" x1="48.5545" y1="90.1964" x2="159.365" y2="90.1964" gradientUnits="userSpaceOnUse">
<stop stop-color="#E8BA42"/>
<stop offset="0.15" stop-color="#E3C943"/>
<stop offset="0.33" stop-color="#DFC645"/>
<stop offset="0.52" stop-color="#DDBC49"/>
<stop offset="0.72" stop-color="#DBBC4E"/>
<stop offset="0.93" stop-color="#D8BB54"/>
<stop offset="1" stop-color="#D7B357"/>
</linearGradient>
<linearGradient id="paint3_linear_1240_528" x1="48.5545" y1="90.1964" x2="159.365" y2="90.1964" gradientUnits="userSpaceOnUse">
<stop stop-color="#E8BA42"/>
<stop offset="0.15" stop-color="#E3C943"/>
<stop offset="0.33" stop-color="#DFC645"/>
<stop offset="0.52" stop-color="#DDBC49"/>
<stop offset="0.72" stop-color="#DBBC4E"/>
<stop offset="0.93" stop-color="#D8BB54"/>
<stop offset="1" stop-color="#D7B357"/>
</linearGradient>
<linearGradient id="paint4_linear_1240_528" x1="48.5545" y1="87.4256" x2="159.365" y2="87.4256" gradientUnits="userSpaceOnUse">
<stop stop-color="#E8B042"/>
<stop offset="0.02" stop-color="#DDB140"/>
<stop offset="0.09" stop-color="#C0923A"/>
<stop offset="0.17" stop-color="#A98834"/>
<stop offset="0.26" stop-color="#957F2F"/>
<stop offset="0.35" stop-color="#86722B"/>
<stop offset="0.44" stop-color="#796228"/>
<stop offset="0.54" stop-color="#71551E"/>
<stop offset="0.66" stop-color="#6C5E15"/>
<stop offset="0.82" stop-color="#6A5112"/>
</linearGradient>
<linearGradient id="paint5_linear_1240_528" x1="57.4147" y1="90.3564" x2="168.538" y2="90.3564" gradientUnits="userSpaceOnUse">
<stop stop-color="#E8C342"/>
<stop offset="0.15" stop-color="#E3C043"/>
<stop offset="0.33" stop-color="#DFBD45"/>
<stop offset="0.52" stop-color="#DDBC49"/>
<stop offset="0.72" stop-color="#DBB44E"/>
<stop offset="0.93" stop-color="#D8C354"/>
<stop offset="1" stop-color="#D7B357"/>
</linearGradient>
<linearGradient id="paint6_linear_1240_528" x1="54.7785" y1="50.5843" x2="114.975" y2="144.265" gradientUnits="userSpaceOnUse">
<stop stop-color="#E8C342"/>
<stop offset="0.02" stop-color="#DDB140"/>
<stop offset="0.09" stop-color="#C09A3A"/>
<stop offset="0.17" stop-color="#A98834"/>
<stop offset="0.26" stop-color="#95782F"/>
<stop offset="0.35" stop-color="#866D2B"/>
<stop offset="0.44" stop-color="#796228"/>
<stop offset="0.54" stop-color="#715A1E"/>
<stop offset="0.66" stop-color="#6C5415"/>
<stop offset="0.82" stop-color="#6A5112"/>
</linearGradient>
<linearGradient id="paint7_linear_1240_528" x1="63.4086" y1="66.4801" x2="162.515" y2="66.4801" gradientUnits="userSpaceOnUse">
<stop stop-color="#7C5823"/>
<stop offset="1" stop-color="#5B400D"/>
</linearGradient>
<linearGradient id="paint8_linear_1240_528" x1="76.5464" y1="83.0328" x2="143.682" y2="83.0328" gradientUnits="userSpaceOnUse">
<stop stop-color="#7C5E23"/>
<stop offset="1" stop-color="#5B400D"/>
</linearGradient>
<linearGradient id="paint9_linear_1240_528" x1="85.1228" y1="66.4001" x2="85.3627" y2="70.4001" gradientUnits="userSpaceOnUse">
<stop stop-color="#E8C342"/>
<stop offset="0.02" stop-color="#DDB140"/>
<stop offset="0.09" stop-color="#C09A3A"/>
<stop offset="0.17" stop-color="#A98834"/>
<stop offset="0.26" stop-color="#95852F"/>
<stop offset="0.35" stop-color="#86722B"/>
<stop offset="0.44" stop-color="#796728"/>
<stop offset="0.54" stop-color="#715A1E"/>
<stop offset="0.66" stop-color="#6C5915"/>
<stop offset="0.82" stop-color="#6A5112"/>
</linearGradient>
<linearGradient id="paint10_linear_1240_528" x1="92.7683" y1="61.9927" x2="93.0082" y2="65.9927" gradientUnits="userSpaceOnUse">
<stop stop-color="#E8CD42"/>
<stop offset="0.02" stop-color="#DDB140"/>
<stop offset="0.09" stop-color="#C0923A"/>
<stop offset="0.17" stop-color="#A98834"/>
<stop offset="0.26" stop-color="#957F2F"/>
<stop offset="0.35" stop-color="#86722B"/>
<stop offset="0.44" stop-color="#796728"/>
<stop offset="0.54" stop-color="#715F1E"/>
<stop offset="0.66" stop-color="#6C5915"/>
<stop offset="0.82" stop-color="#6A5112"/>
</linearGradient>
<linearGradient id="paint11_linear_1240_528" x1="120.44" y1="67.9055" x2="120.724" y2="72.6691" gradientUnits="userSpaceOnUse">
<stop stop-color="#7C5E23"/>
<stop offset="1" stop-color="#5B400D"/>
</linearGradient>
<linearGradient id="paint12_linear_1240_528" x1="140.357" y1="81.7528" x2="145.078" y2="82.7423" gradientUnits="userSpaceOnUse">
<stop stop-color="#7C5E23"/>
<stop offset="1" stop-color="#5B450D"/>
</linearGradient>
<linearGradient id="paint13_linear_1240_528" x1="79.3979" y1="72.32" x2="301.459" y2="118.871" gradientUnits="userSpaceOnUse">
<stop stop-color="#E8BA42"/>
<stop offset="0.02" stop-color="#DDB140"/>
<stop offset="0.09" stop-color="#C09A3A"/>
<stop offset="0.17" stop-color="#A98F34"/>
<stop offset="0.26" stop-color="#95852F"/>
<stop offset="0.35" stop-color="#86722B"/>
<stop offset="0.44" stop-color="#796728"/>
<stop offset="0.54" stop-color="#715A1E"/>
<stop offset="0.66" stop-color="#6C5415"/>
<stop offset="0.82" stop-color="#6A5712"/>
</linearGradient>
<linearGradient id="paint14_linear_1240_528" x1="139.15" y1="90.051" x2="144.984" y2="91.2733" gradientUnits="userSpaceOnUse">
<stop stop-color="#7C5E23"/>
<stop offset="1" stop-color="#5B450D"/>
</linearGradient>
<linearGradient id="paint15_linear_1240_528" x1="131.512" y1="94.4583" x2="137.346" y2="95.6807" gradientUnits="userSpaceOnUse">
<stop stop-color="#7C5E23"/>
<stop offset="1" stop-color="#5B450D"/>
</linearGradient>
<linearGradient id="paint16_linear_1240_528" x1="113.799" y1="98.6328" x2="120.978" y2="100.139" gradientUnits="userSpaceOnUse">
<stop stop-color="#7C6323"/>
<stop offset="1" stop-color="#5B450D"/>
</linearGradient>
<linearGradient id="paint17_linear_1240_528" x1="78.5759" y1="72.9164" x2="79.1067" y2="81.9564" gradientUnits="userSpaceOnUse">
<stop stop-color="#E8BA42"/>
<stop offset="0.02" stop-color="#DDB140"/>
<stop offset="0.09" stop-color="#C09A3A"/>
<stop offset="0.17" stop-color="#A98F34"/>
<stop offset="0.26" stop-color="#95782F"/>
<stop offset="0.35" stop-color="#86722B"/>
<stop offset="0.44" stop-color="#796228"/>
<stop offset="0.54" stop-color="#715F1E"/>
<stop offset="0.66" stop-color="#6C5915"/>
<stop offset="0.82" stop-color="#6A5112"/>
</linearGradient>
<linearGradient id="paint18_linear_1240_528" x1="83.5079" y1="72.8509" x2="84.0314" y2="81.6291" gradientUnits="userSpaceOnUse">
<stop stop-color="#7C5E23"/>
<stop offset="1" stop-color="#5B450D"/>
</linearGradient>
<linearGradient id="paint19_linear_1240_528" x1="101.992" y1="68.7563" x2="103.824" y2="99.7164" gradientUnits="userSpaceOnUse">
<stop stop-color="#E8C342"/>
<stop offset="0.02" stop-color="#DDB140"/>
<stop offset="0.09" stop-color="#C0A33A"/>
<stop offset="0.17" stop-color="#A98834"/>
<stop offset="0.26" stop-color="#95782F"/>
<stop offset="0.35" stop-color="#866D2B"/>
<stop offset="0.44" stop-color="#796728"/>
<stop offset="0.54" stop-color="#715F1E"/>
<stop offset="0.66" stop-color="#6C5915"/>
<stop offset="0.82" stop-color="#6A5712"/>
</linearGradient>
<linearGradient id="paint20_linear_1240_528" x1="2.08056" y1="20.2062" x2="35.7991" y2="72.6914" gradientUnits="userSpaceOnUse">
<stop stop-color="#42E8E0"/>
<stop offset="0.02" stop-color="#40DDDA"/>
<stop offset="0.09" stop-color="#3AAEC0"/>
<stop offset="0.17" stop-color="#3484A9"/>
<stop offset="0.26" stop-color="#2F6195"/>
<stop offset="0.35" stop-color="#2B4486"/>
<stop offset="0.44" stop-color="#282E79"/>
<stop offset="0.54" stop-color="#261E71"/>
<stop offset="0.66" stop-color="#6C4E15"/>
<stop offset="0.82" stop-color="#6A5712"/>
</linearGradient>
<linearGradient id="paint21_linear_1240_528" x1="-1.73001" y1="34.639" x2="60.3532" y2="34.639" gradientUnits="userSpaceOnUse">
<stop stop-color="#42E8E0"/>
<stop offset="0.15" stop-color="#43E3E0"/>
<stop offset="0.33" stop-color="#45D5DF"/>
<stop offset="0.52" stop-color="#49BDDD"/>
<stop offset="0.72" stop-color="#4E9CDB"/>
<stop offset="0.93" stop-color="#5472D8"/>
<stop offset="1" stop-color="#5761D7"/>
</linearGradient>
<linearGradient id="paint22_linear_1240_528" x1="-1.73001" y1="34.639" x2="60.3532" y2="34.639" gradientUnits="userSpaceOnUse">
<stop stop-color="#42E8E0"/>
<stop offset="0.15" stop-color="#43E3E0"/>
<stop offset="0.33" stop-color="#45D5DF"/>
<stop offset="0.52" stop-color="#49BDDD"/>
<stop offset="0.72" stop-color="#4E9CDB"/>
<stop offset="0.93" stop-color="#5472D8"/>
<stop offset="1" stop-color="#5761D7"/>
</linearGradient>
<linearGradient id="paint23_linear_1240_528" x1="-1.73001" y1="34.639" x2="60.3532" y2="34.639" gradientUnits="userSpaceOnUse">
<stop stop-color="#42E8E0"/>
<stop offset="0.15" stop-color="#43E3E0"/>
<stop offset="0.33" stop-color="#45D5DF"/>
<stop offset="0.52" stop-color="#DDAB49"/>
<stop offset="0.72" stop-color="#DBBC4E"/>
<stop offset="0.93" stop-color="#D8D354"/>
<stop offset="1" stop-color="#5761D7"/>
</linearGradient>
<linearGradient id="paint24_linear_1240_528" x1="-1.73001" y1="33.0888" x2="60.3532" y2="33.0888" gradientUnits="userSpaceOnUse">
<stop stop-color="#42E8E0"/>
<stop offset="0.02" stop-color="#40DDDA"/>
<stop offset="0.09" stop-color="#3AAEC0"/>
<stop offset="0.17" stop-color="#3484A9"/>
<stop offset="0.26" stop-color="#2F6195"/>
<stop offset="0.35" stop-color="#2B4486"/>
<stop offset="0.44" stop-color="#282E79"/>
<stop offset="0.54" stop-color="#261E71"/>
<stop offset="0.66" stop-color="#24156C"/>
<stop offset="0.82" stop-color="#24126A"/>
</linearGradient>
<linearGradient id="paint25_linear_1240_528" x1="3.23242" y1="34.7301" x2="65.4934" y2="34.7301" gradientUnits="userSpaceOnUse">
<stop stop-color="#42E8E0"/>
<stop offset="0.15" stop-color="#43E3E0"/>
<stop offset="0.33" stop-color="#45D5DF"/>
<stop offset="0.52" stop-color="#49BDDD"/>
<stop offset="0.72" stop-color="#4E9CDB"/>
<stop offset="0.93" stop-color="#5472D8"/>
<stop offset="1" stop-color="#5761D7"/>
</linearGradient>
<linearGradient id="paint26_linear_1240_528" x1="2.0516" y1="12.6804" x2="35.7697" y2="65.1648" gradientUnits="userSpaceOnUse">
<stop stop-color="#42E8E0"/>
<stop offset="0.02" stop-color="#40DDDA"/>
<stop offset="0.09" stop-color="#3AAEC0"/>
<stop offset="0.17" stop-color="#3484A9"/>
<stop offset="0.26" stop-color="#2F6195"/>
<stop offset="0.35" stop-color="#2B4486"/>
<stop offset="0.44" stop-color="#282E79"/>
<stop offset="0.54" stop-color="#261E71"/>
<stop offset="0.66" stop-color="#24156C"/>
<stop offset="0.82" stop-color="#24126A"/>
</linearGradient>
<linearGradient id="paint27_linear_1240_528" x1="6.59185" y1="21.3531" x2="62.1207" y2="21.3531" gradientUnits="userSpaceOnUse">
<stop stop-color="#2B237C"/>
<stop offset="1" stop-color="#180D5B"/>
</linearGradient>
<linearGradient id="paint28_linear_1240_528" x1="32.1305" y1="37.463" x2="32.7037" y2="37.463" gradientUnits="userSpaceOnUse">
<stop stop-color="#42E8E0"/>
<stop offset="0.02" stop-color="#40DDDA"/>
<stop offset="0.09" stop-color="#3AAEC0"/>
<stop offset="0.17" stop-color="#3484A9"/>
<stop offset="0.26" stop-color="#2F6195"/>
<stop offset="0.35" stop-color="#2B4486"/>
<stop offset="0.44" stop-color="#282E79"/>
<stop offset="0.54" stop-color="#261E71"/>
<stop offset="0.66" stop-color="#24156C"/>
<stop offset="0.82" stop-color="#24126A"/>
</linearGradient>
<linearGradient id="paint29_linear_1240_528" x1="46.4957" y1="32.4269" x2="46.5557" y2="32.4269" gradientUnits="userSpaceOnUse">
<stop stop-color="#42E8E0"/>
<stop offset="0.02" stop-color="#40DDDA"/>
<stop offset="0.09" stop-color="#3AAEC0"/>
<stop offset="0.17" stop-color="#3484A9"/>
<stop offset="0.26" stop-color="#2F6195"/>
<stop offset="0.35" stop-color="#2B4486"/>
<stop offset="0.44" stop-color="#282E79"/>
<stop offset="0.54" stop-color="#261E71"/>
<stop offset="0.66" stop-color="#24156C"/>
<stop offset="0.82" stop-color="#24126A"/>
</linearGradient>
<linearGradient id="paint30_linear_1240_528" x1="16.1545" y1="23.4308" x2="17.0744" y2="23.4308" gradientUnits="userSpaceOnUse">
<stop stop-color="#42E8E0"/>
<stop offset="0.02" stop-color="#40DDDA"/>
<stop offset="0.09" stop-color="#3AAEC0"/>
<stop offset="0.17" stop-color="#3484A9"/>
<stop offset="0.26" stop-color="#2F6195"/>
<stop offset="0.35" stop-color="#2B4486"/>
<stop offset="0.44" stop-color="#282E79"/>
<stop offset="0.54" stop-color="#261E71"/>
<stop offset="0.66" stop-color="#24156C"/>
<stop offset="0.82" stop-color="#24126A"/>
</linearGradient>
<linearGradient id="paint31_linear_1240_528" x1="18.8629" y1="19.8451" x2="21.0781" y2="19.8451" gradientUnits="userSpaceOnUse">
<stop stop-color="#42E8E0"/>
<stop offset="0.02" stop-color="#40DDDA"/>
<stop offset="0.09" stop-color="#3AAEC0"/>
<stop offset="0.17" stop-color="#3484A9"/>
<stop offset="0.26" stop-color="#2F6195"/>
<stop offset="0.35" stop-color="#2B4486"/>
<stop offset="0.44" stop-color="#282E79"/>
<stop offset="0.54" stop-color="#261E71"/>
<stop offset="0.66" stop-color="#24156C"/>
<stop offset="0.82" stop-color="#24126A"/>
</linearGradient>
<linearGradient id="paint32_linear_1240_528" x1="14.0949" y1="22.96" x2="17.0744" y2="22.96" gradientUnits="userSpaceOnUse">
<stop stop-color="#42E8E0"/>
<stop offset="0.02" stop-color="#40DDDA"/>
<stop offset="0.09" stop-color="#3AAEC0"/>
<stop offset="0.17" stop-color="#3484A9"/>
<stop offset="0.26" stop-color="#2F6195"/>
<stop offset="0.35" stop-color="#2B4486"/>
<stop offset="0.44" stop-color="#282E79"/>
<stop offset="0.54" stop-color="#261E71"/>
<stop offset="0.66" stop-color="#24156C"/>
<stop offset="0.82" stop-color="#24126A"/>
</linearGradient>
<linearGradient id="paint33_linear_1240_528" x1="27.8979" y1="23.5719" x2="34.1412" y2="23.5719" gradientUnits="userSpaceOnUse">
<stop stop-color="#42E8E0"/>
<stop offset="0.02" stop-color="#40DDDA"/>
<stop offset="0.09" stop-color="#3AAEC0"/>
<stop offset="0.17" stop-color="#3484A9"/>
<stop offset="0.26" stop-color="#2F6195"/>
<stop offset="0.35" stop-color="#2B4486"/>
<stop offset="0.44" stop-color="#282E79"/>
<stop offset="0.54" stop-color="#261E71"/>
<stop offset="0.66" stop-color="#24156C"/>
<stop offset="0.82" stop-color="#24126A"/>
</linearGradient>
<linearGradient id="paint34_linear_1240_528" x1="37.8606" y1="26.6535" x2="38.3872" y2="26.6535" gradientUnits="userSpaceOnUse">
<stop stop-color="#42E8E0"/>
<stop offset="0.02" stop-color="#40DDDA"/>
<stop offset="0.09" stop-color="#3AAEC0"/>
<stop offset="0.17" stop-color="#3484A9"/>
<stop offset="0.26" stop-color="#2F6195"/>
<stop offset="0.35" stop-color="#2B4486"/>
<stop offset="0.44" stop-color="#282E79"/>
<stop offset="0.54" stop-color="#261E71"/>
<stop offset="0.66" stop-color="#24156C"/>
<stop offset="0.82" stop-color="#24126A"/>
</linearGradient>
<linearGradient id="paint35_linear_1240_528" x1="21.6947" y1="25.1599" x2="33.2404" y2="25.1599" gradientUnits="userSpaceOnUse">
<stop stop-color="#42E8E0"/>
<stop offset="0.02" stop-color="#40DDDA"/>
<stop offset="0.09" stop-color="#3AAEC0"/>
<stop offset="0.17" stop-color="#3484A9"/>
<stop offset="0.26" stop-color="#2F6195"/>
<stop offset="0.35" stop-color="#2B4486"/>
<stop offset="0.44" stop-color="#282E79"/>
<stop offset="0.54" stop-color="#261E71"/>
<stop offset="0.66" stop-color="#24156C"/>
<stop offset="0.82" stop-color="#24126A"/>
</linearGradient>
<linearGradient id="paint36_linear_1240_528" x1="16.5489" y1="28.4625" x2="23.3398" y2="28.4625" gradientUnits="userSpaceOnUse">
<stop stop-color="#42E8E0"/>
<stop offset="0.02" stop-color="#40DDDA"/>
<stop offset="0.09" stop-color="#3AAEC0"/>
<stop offset="0.17" stop-color="#3484A9"/>
<stop offset="0.26" stop-color="#2F6195"/>
<stop offset="0.35" stop-color="#2B4486"/>
<stop offset="0.44" stop-color="#282E79"/>
<stop offset="0.54" stop-color="#261E71"/>
<stop offset="0.66" stop-color="#24156C"/>
<stop offset="0.82" stop-color="#24126A"/>
</linearGradient>
<linearGradient id="paint37_linear_1240_528" x1="20.7937" y1="28.7068" x2="29.4899" y2="28.7068" gradientUnits="userSpaceOnUse">
<stop stop-color="#42E8E0"/>
<stop offset="0.02" stop-color="#40DDDA"/>
<stop offset="0.09" stop-color="#3AAEC0"/>
<stop offset="0.17" stop-color="#3484A9"/>
<stop offset="0.26" stop-color="#2F6195"/>
<stop offset="0.35" stop-color="#2B4486"/>
<stop offset="0.44" stop-color="#282E79"/>
<stop offset="0.54" stop-color="#261E71"/>
<stop offset="0.66" stop-color="#24156C"/>
<stop offset="0.82" stop-color="#24126A"/>
</linearGradient>
<linearGradient id="paint38_linear_1240_528" x1="44.0118" y1="30.9155" x2="46.5558" y2="30.9155" gradientUnits="userSpaceOnUse">
<stop stop-color="#42E8E0"/>
<stop offset="0.02" stop-color="#40DDDA"/>
<stop offset="0.09" stop-color="#3AAEC0"/>
<stop offset="0.17" stop-color="#3484A9"/>
<stop offset="0.26" stop-color="#2F6195"/>
<stop offset="0.35" stop-color="#2B4486"/>
<stop offset="0.44" stop-color="#282E79"/>
<stop offset="0.54" stop-color="#261E71"/>
<stop offset="0.66" stop-color="#24156C"/>
<stop offset="0.82" stop-color="#24126A"/>
</linearGradient>
<linearGradient id="paint39_linear_1240_528" x1="50.2739" y1="33.865" x2="50.8015" y2="33.865" gradientUnits="userSpaceOnUse">
<stop stop-color="#42E8E0"/>
<stop offset="0.02" stop-color="#40DDDA"/>
<stop offset="0.09" stop-color="#3AAEC0"/>
<stop offset="0.17" stop-color="#3484A9"/>
<stop offset="0.26" stop-color="#2F6195"/>
<stop offset="0.35" stop-color="#2B4486"/>
<stop offset="0.44" stop-color="#282E79"/>
<stop offset="0.54" stop-color="#261E71"/>
<stop offset="0.66" stop-color="#24156C"/>
<stop offset="0.82" stop-color="#24126A"/>
</linearGradient>
<linearGradient id="paint40_linear_1240_528" x1="34.1101" y1="32.2992" x2="45.6547" y2="32.2992" gradientUnits="userSpaceOnUse">
<stop stop-color="#42E8E0"/>
<stop offset="0.02" stop-color="#40DDDA"/>
<stop offset="0.09" stop-color="#3AAEC0"/>
<stop offset="0.17" stop-color="#3484A9"/>
<stop offset="0.26" stop-color="#2F6195"/>
<stop offset="0.35" stop-color="#2B4486"/>
<stop offset="0.44" stop-color="#282E79"/>
<stop offset="0.54" stop-color="#261E71"/>
<stop offset="0.66" stop-color="#24156C"/>
<stop offset="0.82" stop-color="#24126A"/>
</linearGradient>
<linearGradient id="paint41_linear_1240_528" x1="33.208" y1="34.8845" x2="39.4502" y2="34.8845" gradientUnits="userSpaceOnUse">
<stop stop-color="#42E8E0"/>
<stop offset="0.02" stop-color="#40DDDA"/>
<stop offset="0.09" stop-color="#3AAEC0"/>
<stop offset="0.17" stop-color="#3484A9"/>
<stop offset="0.26" stop-color="#2F6195"/>
<stop offset="0.35" stop-color="#2B4486"/>
<stop offset="0.44" stop-color="#282E79"/>
<stop offset="0.54" stop-color="#261E71"/>
<stop offset="0.66" stop-color="#24156C"/>
<stop offset="0.82" stop-color="#24126A"/>
</linearGradient>
<linearGradient id="paint42_linear_1240_528" x1="48.7031" y1="37.6018" x2="53.2567" y2="37.6018" gradientUnits="userSpaceOnUse">
<stop stop-color="#42E8E0"/>
<stop offset="0.02" stop-color="#40DDDA"/>
<stop offset="0.09" stop-color="#3AAEC0"/>
<stop offset="0.17" stop-color="#3484A9"/>
<stop offset="0.26" stop-color="#2F6195"/>
<stop offset="0.35" stop-color="#2B4486"/>
<stop offset="0.44" stop-color="#282E79"/>
<stop offset="0.54" stop-color="#261E71"/>
<stop offset="0.66" stop-color="#24156C"/>
<stop offset="0.82" stop-color="#24126A"/>
</linearGradient>
<linearGradient id="paint43_linear_1240_528" x1="46.2712" y1="37.4774" x2="48.7052" y2="37.4774" gradientUnits="userSpaceOnUse">
<stop stop-color="#42E8E0"/>
<stop offset="0.02" stop-color="#40DDDA"/>
<stop offset="0.09" stop-color="#3AAEC0"/>
<stop offset="0.17" stop-color="#3484A9"/>
<stop offset="0.26" stop-color="#2F6195"/>
<stop offset="0.35" stop-color="#2B4486"/>
<stop offset="0.44" stop-color="#282E79"/>
<stop offset="0.54" stop-color="#261E71"/>
<stop offset="0.66" stop-color="#24156C"/>
<stop offset="0.82" stop-color="#24126A"/>
</linearGradient>
<linearGradient id="paint44_linear_1240_528" x1="28.9646" y1="37.1365" x2="48.4899" y2="37.1365" gradientUnits="userSpaceOnUse">
<stop stop-color="#42E8E0"/>
<stop offset="0.02" stop-color="#40DDDA"/>
<stop offset="0.09" stop-color="#3AAEC0"/>
<stop offset="0.17" stop-color="#3484A9"/>
<stop offset="0.26" stop-color="#2F6195"/>
<stop offset="0.35" stop-color="#2B4486"/>
<stop offset="0.44" stop-color="#282E79"/>
<stop offset="0.54" stop-color="#261E71"/>
<stop offset="0.66" stop-color="#24156C"/>
<stop offset="0.82" stop-color="#24126A"/>
</linearGradient>
<linearGradient id="paint45_linear_1240_528" x1="14.096" y1="29.2276" x2="53.2545" y2="29.2276" gradientUnits="userSpaceOnUse">
<stop stop-color="#42E8E0"/>
<stop offset="0.09" stop-color="#40D8D7"/>
<stop offset="0.4" stop-color="#38A1B9"/>
<stop offset="0.55" stop-color="#358CAD"/>
<stop offset="0.57" stop-color="#3483A8"/>
<stop offset="0.62" stop-color="#2F6195"/>
<stop offset="0.68" stop-color="#2B4485"/>
<stop offset="0.74" stop-color="#282E79"/>
<stop offset="0.81" stop-color="#261E71"/>
<stop offset="0.89" stop-color="#24156C"/>
<stop offset="1" stop-color="#24126A"/>
</linearGradient>
<clipPath id="clip0_1240_528">
<rect width="40.7718" height="45.8683" fill="white" transform="translate(66 13.5882) rotate(-19.4676)"/>
</clipPath>
<clipPath id="clip1_1240_528">
<rect width="40.7718" height="45.8683" fill="white" transform="translate(53.7275 92.246) rotate(160.532)"/>
</clipPath>
</defs>
</svg>
