<svg width="25" height="24" viewBox="0 0 25 24" fill="none" xmlns="http://www.w3.org/2000/svg">
<path d="M1.99615 2.00002C1.58394 2.00144 1.25049 2.33493 1.24903 2.74714V22.247C1.24745 22.6614 1.58178 22.9985 1.99615 23H16.9957C17.4123 23.0016 17.7503 22.6635 17.7487 22.247V6.49447C17.747 6.2968 17.6677 6.10785 17.5275 5.96855L13.7787 2.21536C13.6371 2.0758 13.4457 1.99872 13.2469 2.00002H1.99615ZM2.7506 3.50012H12.1233V6.87096C12.1217 7.28533 12.4561 7.62394 12.8704 7.6254H16.2486V21.4999H2.7506V3.50012ZM13.6249 4.18718L15.5615 6.12384H13.6249V4.18718ZM5.74494 9.49614C5.33055 9.49756 4.99619 9.83473 4.99782 10.2491C4.99925 10.6613 5.33272 10.9948 5.74494 10.9962H13.2469C13.6613 10.9979 13.9999 10.6635 14.0014 10.2491C14.003 9.83257 13.6635 9.49449 13.2469 9.49614H5.74494ZM5.74494 13.2508C5.33272 13.2522 4.99924 13.5857 4.99782 13.9979C4.99617 14.4123 5.33056 14.7495 5.74494 14.7509H13.2469C13.6635 14.7525 14.003 14.4145 14.0014 13.9979C13.9999 13.5835 13.6613 13.2492 13.2469 13.2508H5.74494ZM5.74494 16.9981C5.33272 16.9995 4.99924 17.333 4.99782 17.7452C4.99617 18.1596 5.33056 18.4983 5.74494 18.4997H13.2469C13.6635 18.5013 14.003 18.1618 14.0014 17.7452C13.9999 17.3309 13.6613 16.9965 13.2469 16.9981H5.74494Z" fill="#373737"/>
</svg>
