<svg width="30" height="30" viewBox="0 0 30 30" fill="none" xmlns="http://www.w3.org/2000/svg">
<path d="M20.0703 15.6427C19.5503 15.6427 19.1288 16.0644 19.1288 16.5846C19.1288 17.1048 19.5503 17.5264 20.0703 17.5264H23.4938C24.0138 17.5264 24.4353 17.1048 24.4353 16.5846C24.4353 16.0644 24.0138 15.6427 23.4938 15.6427H20.0703Z" fill="#FAFAFA"/>
<path fill-rule="evenodd" clip-rule="evenodd" d="M25.1054 4.67171C25.2026 5.22924 25.2261 5.8918 25.2327 6.64983C25.3415 6.70665 25.4484 6.76714 25.5534 6.83152C26.5246 7.42693 27.3412 8.24383 27.9364 9.21545C28.5917 10.2852 28.8299 11.5251 28.9284 13.1009C29 14.2473 29 15.6417 29 17.3543V17.3897C29 18.3718 29 19.2466 28.9871 20.0252C28.9469 22.4462 28.7902 24.1581 27.9364 25.552C27.3412 26.5236 26.5246 27.3405 25.5534 27.9359C24.626 28.5045 23.5739 28.7579 22.2891 28.8801C21.0285 29 19.4507 29 17.438 29H13.5732C11.5605 29 9.98263 29 8.7221 28.8801C7.43724 28.7579 6.38517 28.5045 5.45773 27.9359C4.48652 27.3405 3.66995 26.5236 3.07479 25.552C2.50645 24.6242 2.25316 23.5717 2.13099 22.2863C2.01114 21.0252 2.01114 19.4467 2.01115 17.4331L2.01125 16.7729C1.99471 16.1523 1.99979 15.4586 2.00527 14.7105C2.00816 14.3162 2.01115 13.9069 2.01115 13.4852L2.01115 13.4308C2.01114 11.2805 2.01113 9.59292 2.15027 8.25355C2.29218 6.88748 2.58727 5.77325 3.2528 4.81787C3.65489 4.24065 4.14272 3.73143 4.69921 3.30974C5.62601 2.60744 6.71056 2.29524 8.03316 2.14579C9.32351 1.99998 10.9468 1.99999 13.0031 2.00001L19.8672 2C20.8696 1.99996 21.7192 1.99992 22.3966 2.0949C23.1201 2.19635 23.784 2.42204 24.3153 2.97612C24.7764 3.45707 24.9949 4.03728 25.1054 4.67171ZM19.8009 3.88373C20.8876 3.88373 21.604 3.8859 22.1352 3.96039C22.6352 4.0305 22.8297 4.14793 22.9564 4.28009C23.0736 4.40231 23.1793 4.58683 23.2505 4.99519C23.298 5.26824 23.324 5.60197 23.3377 6.02889C22.8196 5.93402 22.2604 5.87556 21.6514 5.83796C20.509 5.76744 19.1208 5.76744 17.4176 5.76745H13.5732C11.5605 5.76744 9.98265 5.76743 8.7221 5.88734C7.43724 6.00955 6.38517 6.26295 5.45773 6.83152C4.95777 7.13802 4.49879 7.50322 4.0899 7.91801C4.22768 7.00462 4.45332 6.38913 4.79761 5.89489C5.08831 5.47758 5.43906 5.1122 5.83612 4.81133C6.3856 4.39495 7.09214 4.14782 8.24449 4.01761C9.41688 3.88513 10.9339 3.88373 13.0616 3.88373H19.8009ZM6.44157 8.43766C7.02343 8.08094 7.75329 7.8717 8.90032 7.7626C10.0614 7.65216 11.5498 7.65117 13.6226 7.65117H17.3885C19.1266 7.65117 20.4576 7.65157 21.5354 7.7181C22.6122 7.78457 23.365 7.91416 23.9584 8.13962C24.1806 8.22406 24.3818 8.32253 24.5696 8.43766C25.2874 8.87774 25.891 9.48154 26.3309 10.1997C26.6405 10.7051 26.8377 11.3194 26.9559 12.2178H20.0703C17.6596 12.2178 15.7053 14.1729 15.7053 16.5846C15.7053 18.9963 17.6596 20.9514 20.0703 20.9514H27.0786C27.0061 22.7853 26.806 23.7921 26.3309 24.5678C25.891 25.2859 25.2874 25.8897 24.5696 26.3298C23.9877 26.6865 23.2579 26.8957 22.1108 27.0048C20.9498 27.1153 19.4613 27.1163 17.3885 27.1163H13.6226C11.5498 27.1163 10.0614 27.1153 8.90032 27.0048C7.75329 26.8957 7.02343 26.6865 6.44157 26.3298C5.72371 25.8897 5.12016 25.2859 4.68026 24.5678C4.3237 23.9857 4.11454 23.2555 4.00548 22.108C3.89509 20.9465 3.8941 19.4574 3.8941 17.3837C3.8941 15.3101 3.89509 13.821 4.00548 12.6595C4.11454 11.512 4.3237 10.7818 4.68026 10.1997C5.12016 9.48154 5.72371 8.87774 6.44157 8.43766ZM17.5882 16.5846C17.5882 15.2132 18.6995 14.1015 20.0703 14.1015H27.0889C27.1168 15.0106 27.1171 16.0832 27.1171 17.3837C27.1171 17.9914 27.117 18.5504 27.1141 19.0677H20.0703C18.6995 19.0677 17.5882 17.956 17.5882 16.5846Z" fill="#FAFAFA"/>
</svg>
