<svg width="27" height="25" viewBox="0 0 27 25" fill="none" xmlns="http://www.w3.org/2000/svg">
<path d="M14.4259 7.0122C14.4259 6.50706 14.0114 6.09756 13.5 6.09756C12.9886 6.09756 12.5741 6.50706 12.5741 7.0122V14.3293C12.5741 14.8344 12.9886 15.2439 13.5 15.2439C14.0114 15.2439 14.4259 14.8344 14.4259 14.3293V7.0122Z" fill="#AB37D7"/>
<path fill-rule="evenodd" clip-rule="evenodd" d="M16.3872 0.606235C14.5494 -0.202078 12.4506 -0.202078 10.6128 0.606235C9.46363 1.11164 8.53568 2.08019 7.57741 3.42003C6.62216 4.75564 5.55237 6.58603 4.17033 8.95069L4.11983 9.03711C2.73778 11.4018 1.66798 13.2322 0.974686 14.7172C0.2792 16.2069 -0.105945 17.485 0.0255397 18.7208C0.235829 20.6972 1.28521 22.4927 2.91278 23.6608C3.93042 24.3912 5.24351 24.7007 6.89727 24.8506C8.5458 25 10.6854 25 13.4494 25H13.5505C16.3146 25 18.4542 25 20.1027 24.8506C21.7565 24.7007 23.0696 24.3912 24.0872 23.6608C25.7148 22.4927 26.7642 20.6972 26.9745 18.7208C27.1059 17.485 26.7208 16.2069 26.0253 14.7172C25.332 13.2321 24.2622 11.4017 22.8801 9.03704L22.8296 8.95059C21.4476 6.58598 20.3778 4.75562 19.4226 3.42003C18.4643 2.08019 17.5364 1.11164 16.3872 0.606235ZM11.366 2.27736C12.7244 1.67991 14.2756 1.67991 15.634 2.27736C16.3171 2.57779 17.007 3.21275 17.9102 4.47557C18.8106 5.73449 19.8387 7.49172 21.2512 9.90854C22.6637 12.3253 23.6902 14.0835 24.3437 15.4832C24.9992 16.8873 25.211 17.795 25.1328 18.5296C24.9774 19.9904 24.2018 21.3175 22.9988 22.1809C22.3938 22.615 21.4922 22.8877 19.9335 23.029C18.3797 23.1698 16.3251 23.1707 13.5 23.1707C10.6749 23.1707 8.62033 23.1698 7.06645 23.029C5.50776 22.8877 4.60617 22.615 4.00123 22.1809C2.79825 21.3175 2.02262 19.9904 1.86719 18.5296C1.78903 17.795 2.00076 16.8873 2.65627 15.4832C3.30975 14.0835 4.33625 12.3253 5.74878 9.90854C7.16131 7.49172 8.18942 5.73449 9.08982 4.47557C9.993 3.21275 10.6829 2.57779 11.366 2.27736Z" fill="#AB37D7"/>
<path d="M14.7346 17.9878C14.7346 18.6613 14.1819 19.2073 13.5001 19.2073C12.8182 19.2073 12.2655 18.6613 12.2655 17.9878C12.2655 17.3143 12.8182 16.7683 13.5001 16.7683C14.1819 16.7683 14.7346 17.3143 14.7346 17.9878Z" fill="#AB37D7"/>
</svg>
