<svg width="146" height="121" viewBox="0 0 146 121" fill="none" xmlns="http://www.w3.org/2000/svg">
<path d="M69.2507 82.5388L43.2818 68.6607C41.4373 67.6764 41.6637 65.9539 43.8011 64.8159L68.778 51.4914C70.9154 50.3534 74.1449 50.2611 75.996 51.2146L102.012 65.0927C103.863 66.077 103.63 67.7994 101.492 68.9375L76.5154 82.2619C74.358 83.4 71.1285 83.523 69.2507 82.5388Z" fill="#0C0F38"/>
<g opacity="0.4">
<path d="M103.21 49.4122H90.3322L75.9694 41.7534C74.1183 40.7691 70.8888 40.8922 68.7514 42.0302L54.9079 49.4122H42.0167V57.4093C42.0138 57.7903 42.1322 58.1637 42.3571 58.4831C42.582 58.8024 42.9036 59.0537 43.2818 59.2056L69.2508 73.0775C71.1019 74.068 74.3314 73.9388 76.4688 72.8007L101.446 59.4824C102.558 58.8673 103.144 58.1414 103.204 57.4155L103.21 49.4122Z" fill="url(#paint0_linear_1240_314)"/>
<path d="M42.829 57.9691V49.972H55.7203L69.5704 42.59C71.7012 41.452 74.8974 41.3228 76.7818 42.3132L91.1446 49.972H103.21V49.4184H90.3323L75.9694 41.7534C74.1183 40.7691 70.8888 40.8922 68.7514 42.0302L54.9079 49.4122H42.0167V57.4093C42.0134 57.7896 42.1317 58.1624 42.3567 58.4808C42.5818 58.7993 42.9036 59.0493 43.2818 59.1995L43.4283 59.2794C43.2318 59.1141 43.0764 58.9113 42.973 58.685C42.8695 58.4588 42.8204 58.2146 42.829 57.9691Z" fill="#D4088C"/>
<path d="M69.2505 65.0742L43.2815 51.2023C41.4371 50.2119 41.6634 48.4894 43.8009 47.3514L68.7777 34.0269C70.9152 32.8889 74.1446 32.7658 75.9957 33.7501L102.011 47.6282C103.862 48.6125 103.629 50.3411 101.492 51.4791L76.4885 64.7974C74.351 65.9416 71.1216 66.0647 69.2505 65.0742Z" fill="url(#paint1_linear_1240_314)"/>
<path d="M101.985 47.6282L75.9694 33.7501C74.8421 33.2327 73.5797 33.0195 72.3271 33.135C73.2407 33.154 74.1378 33.3644 74.9506 33.7501L100.966 47.6282C102.817 48.6125 102.584 50.3411 100.447 51.4792L75.47 64.7975C74.371 65.3564 73.1475 65.6742 71.8943 65.7263C73.4899 65.823 75.0827 65.501 76.4888 64.7975L101.466 51.4792C103.603 50.3411 103.836 48.6186 101.985 47.6282Z" fill="#6EE8FC"/>
<path d="M72.4604 61.7708C71.6117 61.7914 70.7711 61.6137 70.0166 61.2541L50.6464 50.9255C50.3514 50.7946 50.0996 50.5933 49.917 50.3424C49.7344 50.0915 49.6276 49.8001 49.6077 49.4983C49.6549 49.1101 49.8113 48.74 50.0613 48.4249C50.3113 48.1098 50.6461 47.8606 51.0326 47.702L69.6304 37.7794C71.2751 36.9059 73.7854 36.8075 75.2237 37.5764L94.5939 47.905C94.8898 48.0349 95.1423 48.2359 95.3251 48.487C95.5079 48.7381 95.6141 49.0301 95.6326 49.3322C95.5847 49.7203 95.4281 50.09 95.1782 50.4051C94.9283 50.7201 94.5938 50.9694 94.2077 51.1285L75.6099 61.0449C74.6441 61.5306 73.56 61.7805 72.4604 61.7708ZM72.78 37.4596C71.7573 37.4541 70.7497 37.6868 69.8501 38.1362L51.2723 48.0588C50.9539 48.1821 50.6755 48.3795 50.4643 48.6318C50.2531 48.8841 50.1162 49.1826 50.0671 49.4983C50.0872 49.7282 50.1738 49.9488 50.3179 50.1372C50.462 50.3255 50.6583 50.4745 50.8861 50.5687L70.2363 60.9219C71.5681 61.6232 73.8653 61.5371 75.3902 60.7189L93.9879 50.7717C94.3051 50.6476 94.5821 50.4498 94.7922 50.1976C95.0022 49.9454 95.138 49.6473 95.1865 49.3322C95.1665 49.1023 95.0798 48.8817 94.9357 48.6933C94.7916 48.505 94.5954 48.356 94.3675 48.2618L75.004 37.9332C74.3179 37.6043 73.5527 37.4413 72.78 37.4596Z" fill="#480689"/>
<path d="M70.436 65.0743L44.4271 51.2023C42.576 50.2119 42.809 48.4894 44.9398 47.3514L69.9166 34.0269C71.001 33.4793 72.2049 33.164 73.4391 33.1042C71.8222 32.9987 70.2061 33.3186 68.778 34.0269L43.7745 47.3514C41.6371 48.4894 41.4107 50.2119 43.2551 51.2023L69.2507 65.0743C70.3952 65.6038 71.6806 65.8174 72.953 65.6894C72.0749 65.6597 71.2151 65.4495 70.436 65.0743Z" fill="#D4088C"/>
</g>
<g opacity="0.5">
<path d="M103.21 38.3946H90.3323L75.9694 30.7297C74.1183 29.7454 70.8888 29.8684 68.7514 31.0065L54.9079 38.3885H42.0167V46.3856C42.0129 46.7668 42.131 47.1405 42.356 47.46C42.5811 47.7795 42.9031 48.0306 43.2818 48.1819L69.2508 62.0538C71.1019 63.0442 74.3314 62.9212 76.4688 61.777L101.446 48.4587C102.558 47.8435 103.144 47.1176 103.204 46.3917L103.21 38.3946Z" fill="url(#paint2_linear_1240_314)"/>
<path d="M42.8291 46.9454V38.9483H55.7203L69.5704 31.5663C71.7012 30.4282 74.8974 30.3052 76.7818 31.2895L91.1446 38.9483H103.21V38.4008H90.3323L75.9694 30.7297C74.1183 29.7454 70.8888 29.8684 68.7514 31.0065L54.9079 38.3885H42.0167V46.3856C42.0129 46.7668 42.131 47.1405 42.356 47.46C42.5811 47.7795 42.9031 48.0306 43.2818 48.1819L43.4283 48.2557C43.2315 48.0906 43.0759 47.8878 42.9724 47.6616C42.8689 47.4353 42.82 47.1909 42.8291 46.9454Z" fill="#D4088C"/>
<path d="M69.2505 54.0566L43.2815 40.1785C41.4371 39.1942 41.6634 37.4718 43.8009 36.3276L68.7777 23.0093C70.9152 21.8651 74.1446 21.7421 75.9957 22.7325L102.011 36.6044C103.862 37.5948 103.629 39.3173 101.492 40.4553L76.4885 53.7798C74.351 54.9178 71.1216 55.0409 69.2505 54.0566Z" fill="url(#paint3_linear_1240_314)"/>
<path d="M101.985 36.6045L75.9694 22.7325C74.8461 22.2024 73.5835 21.9763 72.3271 22.0805C73.2439 22.1109 74.1411 22.3339 74.9506 22.7325L100.966 36.6045C102.817 37.5949 102.584 39.3173 100.447 40.4554L75.47 53.7798C74.3704 54.3366 73.147 54.6524 71.8943 54.7026C73.4891 54.7984 75.081 54.4787 76.4888 53.7798L101.466 40.4554C103.603 39.3173 103.836 37.5949 101.985 36.6045Z" fill="#6EE8FC"/>
<path d="M72.4604 50.7532C71.6107 50.7758 70.769 50.5957 70.0166 50.2304L50.6464 39.9018C50.3515 39.7724 50.0995 39.5723 49.9168 39.3224C49.7341 39.0724 49.6274 38.7818 49.6077 38.4807C49.6545 38.0916 49.8106 37.7205 50.0606 37.4043C50.3105 37.0882 50.6456 36.8379 51.0326 36.6783L69.6304 26.7619C71.2818 25.8822 73.7854 25.7899 75.2237 26.5527L94.5939 36.8874C94.8901 37.0152 95.1432 37.2148 95.3262 37.4651C95.5091 37.7154 95.6151 38.0069 95.6326 38.3085C95.5854 38.6967 95.429 39.0668 95.179 39.3819C94.9291 39.697 94.5942 39.9462 94.2077 40.1048L75.6099 50.0273C74.6441 50.5131 73.56 50.7629 72.4604 50.7532ZM70.2363 49.8489C71.5681 50.5502 73.8653 50.4641 75.3902 49.6459L93.9879 39.7234C94.3051 39.5992 94.5821 39.4015 94.7922 39.1492C95.0022 38.897 95.138 38.5989 95.1865 38.2839C95.1665 38.054 95.0798 37.8333 94.9357 37.645C94.7916 37.4567 94.5954 37.3076 94.3675 37.2135L75.004 26.9095C73.6722 26.2082 71.3816 26.2943 69.8501 27.1186L51.2723 37.0351C50.9531 37.1589 50.6741 37.3572 50.4628 37.6107C50.2515 37.8641 50.1152 38.1639 50.0671 38.4807C50.0876 38.7097 50.1745 38.9294 50.3186 39.1166C50.4627 39.3039 50.6588 39.4518 50.8861 39.545L70.2363 49.8489Z" fill="#480689"/>
<path d="M70.436 54.0566L44.4271 40.1785C42.576 39.1942 42.809 37.4718 44.9398 36.3276L69.9166 23.0093C70.9998 22.4589 72.2044 22.1433 73.4391 22.0865C71.822 21.9779 70.2049 22.2981 68.778 23.0093L43.7745 36.3153C41.6371 37.4595 41.4107 39.1819 43.2551 40.1662L69.2507 54.0566C70.3973 54.5802 71.6808 54.7935 72.953 54.6718C72.0753 54.6396 71.2161 54.4296 70.436 54.0566Z" fill="#D4088C"/>
</g>
<g opacity="0.7">
<path d="M103.21 27.3709H90.3323L75.9694 19.7059C74.1183 18.7155 70.8888 18.8385 68.7514 19.9827L54.9079 27.3647H42.0167V35.3618C42.0129 35.743 42.131 36.1167 42.356 36.4363C42.5811 36.7558 42.9031 37.0069 43.2818 37.1581L69.2508 51.0362C71.1019 52.0205 74.3314 51.8974 76.4688 50.7594L101.446 37.4349C102.558 36.8198 103.144 36.0939 103.204 35.3741L103.21 27.3709Z" fill="url(#paint4_linear_1240_314)"/>
<path d="M42.8291 35.9216V27.9245H55.7203L69.5704 20.5425C71.7012 19.4045 74.8974 19.2815 76.7818 20.2657L91.1446 27.9307H103.21V27.377H90.3323L75.9694 19.7059C74.1183 18.7155 70.8888 18.8385 68.7514 19.9827L54.9079 27.3647H42.0167V35.3618C42.0129 35.743 42.131 36.1167 42.356 36.4363C42.5811 36.7558 42.9031 37.0069 43.2818 37.1581L43.4283 37.2381C43.2317 37.0715 43.0763 36.8676 42.9728 36.6404C42.8694 36.4132 42.8203 36.168 42.8291 35.9216Z" fill="#D4088C"/>
<path d="M69.2507 43.0328L43.2818 29.1547C41.4373 28.1705 41.6637 26.448 43.8011 25.31L68.778 11.9855C70.9154 10.8475 74.1449 10.7244 75.996 11.7087L102.012 25.5868C103.863 26.5711 103.63 28.2935 101.492 29.4316L76.4887 42.756C74.3513 43.8941 71.1218 44.0171 69.2507 43.0328Z" fill="url(#paint5_linear_1240_314)"/>
<path d="M101.985 25.5869L75.9695 11.7088C74.8451 11.1815 73.5833 10.9556 72.3271 11.0567C73.2439 11.0872 74.1411 11.3102 74.9507 11.7088L100.966 25.5869C102.817 26.5711 102.584 28.2936 100.447 29.4317L75.4701 42.7561C74.3769 43.3138 73.1613 43.6356 71.9143 43.6973C73.51 43.7939 75.1027 43.4719 76.5088 42.7684L101.486 29.444C103.603 28.3182 103.836 26.5711 101.985 25.5869Z" fill="#6EE8FC"/>
<path d="M72.4604 39.7295C71.6108 39.7512 70.7694 39.5712 70.0166 39.2066L50.6464 28.878C50.3511 28.7492 50.0987 28.5493 49.9159 28.2992C49.7332 28.0492 49.6267 27.7582 49.6077 27.457C49.6557 27.0682 49.8124 26.6977 50.0622 26.3817C50.312 26.0657 50.6464 25.8152 51.0326 25.6546L69.6304 15.7381C71.2751 14.8584 73.7854 14.7662 75.2237 15.5351L94.5939 25.8576C94.8901 25.9853 95.1432 26.185 95.3262 26.4352C95.5091 26.6855 95.6151 26.977 95.6326 27.2786C95.5846 27.6674 95.4279 28.0379 95.1781 28.3539C94.9283 28.6699 94.5939 28.9204 94.2077 29.081L75.6099 39.0036C74.6441 39.4893 73.56 39.7392 72.4604 39.7295ZM70.2363 38.856C71.5681 39.5511 73.8653 39.4711 75.3902 38.6468L93.9879 28.7304C94.306 28.6057 94.5836 28.407 94.7937 28.1536C95.0037 27.9003 95.1391 27.6009 95.1865 27.2847C95.166 27.0558 95.0791 26.8361 94.935 26.6488C94.7909 26.4616 94.5949 26.3136 94.3675 26.2205L75.004 15.8858C73.6722 15.1906 71.3816 15.2706 69.8501 16.0949L51.2723 26.0114C50.9531 26.1352 50.6741 26.3335 50.4628 26.5869C50.2515 26.8404 50.1152 27.1402 50.0671 27.457C50.0876 27.686 50.1745 27.9056 50.3186 28.0929C50.4627 28.2802 50.6588 28.4281 50.8861 28.5212L70.2363 38.856Z" fill="#480689"/>
<path d="M70.4361 43.0329L44.4271 29.1548C42.576 28.1705 42.8091 26.448 44.9399 25.31L69.9167 11.9855C71.0011 11.4379 72.205 11.1225 73.4391 11.0628C71.822 10.9542 70.205 11.2743 68.778 11.9855L43.7746 25.31C41.6371 26.4726 41.4108 28.1705 43.2818 29.1548L69.2508 43.0329C70.3974 43.5565 71.6809 43.7697 72.953 43.648C72.0754 43.6158 71.2161 43.4058 70.4361 43.0329Z" fill="#D4088C"/>
</g>
<path d="M103.21 16.3471H90.3323L75.9694 8.68834C74.1183 7.70408 70.8888 7.82711 68.7514 8.96517L54.9079 16.3471H42.0167V24.3443C42.0134 24.7246 42.1317 25.0973 42.3567 25.4158C42.5818 25.7342 42.9036 25.9842 43.2818 26.1344L69.2508 40.0063C71.1019 40.9906 74.3314 40.8676 76.4688 39.7295L101.466 26.4112C102.578 25.796 103.164 25.0702 103.224 24.3504L103.21 16.3471Z" fill="url(#paint6_linear_1240_314)"/>
<path d="M42.829 24.9041V16.9069H55.7203L69.5704 9.52497C71.7012 8.38076 74.8974 8.25773 76.7818 9.24814L91.1446 16.9069H103.21V16.3533H90.3323L75.9694 8.68834C74.1183 7.70408 70.8888 7.82711 68.7514 8.96517L54.9079 16.3471H42.0167V24.3443C42.0134 24.7246 42.1317 25.0973 42.3567 25.4158C42.5818 25.7342 42.9036 25.9842 43.2818 26.1344L43.4283 26.2144C43.2321 26.0487 43.077 25.8459 42.9736 25.6197C42.8702 25.3936 42.8209 25.1495 42.829 24.9041Z" fill="#D4088C"/>
<path d="M69.2507 32.0092L43.2818 18.1373C41.4373 17.1469 41.6637 15.4244 43.8011 14.2864L68.7513 0.961903C70.8888 -0.17615 74.1182 -0.268425 75.9693 0.685079L101.985 14.5632C103.836 15.5474 103.603 17.2699 101.466 18.4141L76.4887 31.7324C74.3513 32.8766 71.1218 32.9996 69.2507 32.0092Z" fill="url(#paint7_linear_1240_314)"/>
<path d="M101.985 14.5632L75.9695 0.685075C74.8421 0.167622 73.5797 -0.0455951 72.3271 0.069911C73.2434 0.0984707 74.1406 0.319359 74.9507 0.715833L100.966 14.5939C102.817 15.5782 102.584 17.3006 100.447 18.4449L75.4701 31.7324C74.3771 32.2886 73.1608 32.6064 71.9143 32.6613C73.51 32.7579 75.1027 32.4359 76.5088 31.7324L101.466 18.4141C103.603 17.2453 103.836 15.5474 101.985 14.5632Z" fill="#6EE8FC"/>
<path d="M72.4604 28.7058C71.6116 28.7272 70.7708 28.5494 70.0166 28.189L50.6464 17.8604C50.3511 17.7316 50.0987 17.5317 49.9159 17.2816C49.7332 17.0316 49.6267 16.7406 49.6077 16.4394C49.6549 16.0512 49.8113 15.6811 50.0613 15.366C50.3113 15.0509 50.6461 14.8017 51.0326 14.6431L69.6304 4.71438C71.2485 3.83469 73.7854 3.74242 75.2437 4.51137L94.6139 14.84C94.9092 14.9688 95.1616 15.1687 95.3444 15.4188C95.5271 15.6688 95.6336 15.9598 95.6526 16.261C95.6058 16.6501 95.4497 17.0212 95.1997 17.3374C94.9498 17.6536 94.6147 17.9039 94.2277 18.0634L75.6099 27.9799C74.6441 28.4656 73.56 28.7154 72.4604 28.7058ZM70.2363 27.8322C71.5681 28.5335 73.8653 28.4474 75.3902 27.6231L93.9879 17.7066C94.3122 17.5863 94.5966 17.3894 94.8128 17.1357C95.0289 16.8821 95.1693 16.5805 95.2198 16.261C95.1993 16.032 95.1124 15.8124 94.9683 15.6251C94.8242 15.4378 94.6282 15.2899 94.4008 15.1968L75.004 4.86817C73.6722 4.16688 71.3816 4.25301 69.8501 5.07117L51.2723 14.9876C50.9531 15.1114 50.6741 15.3098 50.4628 15.5632C50.2515 15.8166 50.1152 16.1164 50.0671 16.4332C50.0872 16.6631 50.1738 16.8838 50.3179 17.0721C50.462 17.2604 50.6583 17.4095 50.8861 17.5036L70.2363 27.8322Z" fill="url(#paint8_linear_1240_314)"/>
<path d="M70.4361 32.0092L44.4271 18.1373C42.576 17.1469 42.8091 15.4244 44.9399 14.2864L69.9167 0.961906C70.9995 0.407838 72.2034 0.0861468 73.4391 0.0207059C71.822 -0.0878841 70.205 0.232239 68.778 0.943451L43.7746 14.2864C41.6371 15.3998 41.4108 17.1469 43.2818 18.1373L69.2508 32.0092C70.3974 32.5328 71.6809 32.7461 72.953 32.6244C72.0754 32.5922 71.2161 32.3822 70.4361 32.0092Z" fill="#25BFEC"/>
<g opacity="0.4">
<path d="M144.994 73.5389H132.096L117.733 65.8801C115.882 64.8959 112.652 65.0189 110.515 66.1569L96.6714 73.5389H83.7802V81.536C83.7755 81.9134 83.8902 82.2839 84.1102 82.6019C84.3302 82.9199 84.646 83.1716 85.0187 83.3262L111.034 97.2166C112.885 98.207 116.115 98.0778 118.252 96.9397L143.229 83.6214C144.341 83.0063 144.934 82.2804 144.987 81.5545L144.994 73.5389Z" fill="url(#paint9_linear_1240_314)"/>
<path d="M84.5992 82.0958V74.0987H97.4971L111.341 66.7167C113.471 65.5787 116.707 65.4864 118.552 66.4399L132.915 74.0987H145.007V73.545H132.096L117.733 65.8863C115.882 64.902 112.652 65.025 110.515 66.1631L96.6714 73.545H83.7802V81.5422C83.7755 81.9196 83.8902 82.29 84.1102 82.608C84.3302 82.926 84.646 83.1778 85.0187 83.3323L85.1652 83.4061C84.9733 83.239 84.8232 83.0351 84.7254 82.8088C84.6276 82.5824 84.5846 82.3391 84.5992 82.0958Z" fill="#D4088C"/>
<path d="M111.034 89.2192L85.0186 75.3473C83.1741 74.3569 83.4005 72.6344 85.538 71.4964L110.535 58.1535C112.672 57.0154 115.902 56.9232 117.753 57.8828L143.768 71.7548C145.619 72.7452 145.386 74.4676 143.249 75.6057L118.272 88.9301C116.115 90.0682 112.885 90.1912 111.034 89.2192Z" fill="url(#paint10_linear_1240_314)"/>
<path d="M143.748 71.7549L117.733 57.883C116.61 57.3512 115.347 57.1251 114.091 57.2309C115.008 57.2585 115.906 57.4817 116.714 57.883L142.73 71.7549C144.581 72.7453 144.348 74.4678 142.21 75.6059L117.233 88.9303C116.133 89.4853 114.91 89.8009 113.658 89.8531C115.253 89.9489 116.844 89.6292 118.252 88.9303L143.229 75.6059C145.366 74.4555 145.6 72.7453 143.748 71.7549Z" fill="#6EE8FC"/>
<path d="M114.224 85.8975C113.375 85.9214 112.533 85.7435 111.78 85.3808L92.4099 75.0707C92.1148 74.9398 91.863 74.7385 91.6804 74.4876C91.4978 74.2367 91.391 73.9453 91.3711 73.6435C91.419 73.2554 91.5756 72.8856 91.8255 72.5706C92.0754 72.2556 92.41 72.0063 92.7961 71.8472L111.394 61.9308C113.045 61.0511 115.549 60.9527 116.987 61.7216L136.357 72.0502C136.653 72.18 136.906 72.3811 137.089 72.6322C137.271 72.8833 137.378 73.1753 137.396 73.4774C137.348 73.8654 137.192 74.2352 136.942 74.5502C136.692 74.8653 136.357 75.1146 135.971 75.2737L117.373 85.1901C116.406 85.6694 115.322 85.9129 114.224 85.8975ZM114.543 61.5863C113.521 61.5808 112.513 61.8136 111.614 62.263L93.0225 72.1855C92.704 72.3088 92.4257 72.5062 92.2144 72.7585C92.0032 73.0108 91.8664 73.3093 91.8172 73.625C91.8387 73.8545 91.9258 74.0746 92.0697 74.2628C92.2137 74.4509 92.4092 74.6002 92.6362 74.6954L112 85.024C113.332 85.7253 115.629 85.6392 117.154 84.821L135.751 74.8984C136.07 74.7751 136.348 74.5777 136.559 74.3255C136.771 74.0732 136.907 73.7746 136.957 73.4589C136.935 73.2294 136.848 73.0093 136.704 72.8212C136.56 72.6331 136.365 72.4838 136.138 72.3885L116.767 62.0599C116.077 61.729 115.307 61.5659 114.53 61.5863H114.543Z" fill="#480689"/>
<path d="M112.206 89.2194L86.1903 75.3474C84.3392 74.357 84.5722 72.6346 86.703 71.4965L111.686 58.1536C112.767 57.6089 113.966 57.2937 115.196 57.2308C113.579 57.1253 111.963 57.4453 110.535 58.1536L85.5577 71.478C83.4203 72.6161 83.1939 74.3386 85.0383 75.329L111.034 89.2194C112.175 89.7586 113.46 89.9849 114.736 89.8714C113.851 89.8309 112.986 89.6081 112.206 89.2194Z" fill="#D4088C"/>
</g>
<g opacity="0.5">
<path d="M144.994 62.5213H132.096L117.733 54.8626C115.882 53.8721 112.652 53.9952 110.515 55.1332L96.6714 62.5152H83.7802V70.5123C83.7755 70.8897 83.8902 71.2602 84.1102 71.5782C84.3302 71.8962 84.646 72.1479 85.0187 72.3025L111.034 86.1744C112.885 87.1648 116.115 87.0418 118.252 85.9037L143.229 72.61C144.341 71.9949 144.934 71.269 144.987 70.5431L144.994 62.5213Z" fill="url(#paint11_linear_1240_314)"/>
<path d="M84.5992 71.0721V63.075H97.4971L111.341 55.693C113.471 54.555 116.707 54.4627 118.552 55.4162L132.915 63.075H145.007V62.5275H132.096L117.733 54.8626C115.882 53.8721 112.652 53.9952 110.515 55.1332L96.6714 62.5152H83.7802V70.5123C83.7755 70.8897 83.8902 71.2602 84.1102 71.5782C84.3302 71.8962 84.646 72.1479 85.0187 72.3025L85.1652 72.3824C84.974 72.2148 84.8244 72.0108 84.7267 71.7846C84.629 71.5584 84.5855 71.3153 84.5992 71.0721Z" fill="#D4088C"/>
<path d="M111.034 78.1833L85.0186 64.3052C83.1741 63.321 83.4005 61.5985 85.538 60.4543L110.535 47.136C112.672 45.998 115.902 45.8688 117.753 46.8592L143.768 60.7311C145.619 61.7215 145.386 63.444 143.249 64.582L118.272 77.9065C116.115 79.0446 112.885 79.1676 111.034 78.1833Z" fill="url(#paint12_linear_1240_314)"/>
<path d="M143.748 60.7312L117.733 46.8593C116.61 46.3291 115.347 46.1031 114.091 46.2072C115.007 46.2377 115.905 46.4607 116.714 46.8593L142.73 60.7312C144.581 61.7216 144.348 63.4441 142.21 64.5821L117.233 77.9066C116.134 78.4642 114.911 78.78 113.658 78.8293C115.253 78.9282 116.846 78.6083 118.252 77.9066L143.229 64.6129C145.366 63.4441 145.6 61.7216 143.748 60.7312Z" fill="#6EE8FC"/>
<path d="M114.224 74.88C113.374 74.9017 112.533 74.7217 111.78 74.3571L92.4099 64.0285C92.1145 63.8997 91.8622 63.6997 91.6794 63.4497C91.4966 63.1996 91.3901 62.9087 91.3711 62.6075C91.4179 62.2183 91.574 61.8473 91.824 61.5311C92.0739 61.2149 92.4091 60.9646 92.7961 60.805L111.394 50.8886C113.045 50.0089 115.549 49.9166 116.987 50.6794L136.357 61.0142C136.654 61.1419 136.907 61.3416 137.09 61.5919C137.273 61.8421 137.378 62.1336 137.396 62.4352C137.349 62.8235 137.192 63.1935 136.942 63.5086C136.692 63.8237 136.358 64.0729 135.971 64.2315L117.373 74.1541C116.407 74.6398 115.323 74.8897 114.224 74.88ZM112 74.0003C113.332 74.7016 115.629 74.6155 117.154 73.7973L135.751 63.8808C136.071 63.7571 136.35 63.5587 136.561 63.3053C136.772 63.0518 136.909 62.752 136.957 62.4352C136.935 62.2064 136.848 61.987 136.704 61.7999C136.56 61.6127 136.365 61.4646 136.138 61.371L116.767 51.0362C115.436 50.3349 113.145 50.4211 111.614 51.2454L93.0225 61.1618C92.7032 61.2856 92.4242 61.484 92.2129 61.7374C92.0016 61.9908 91.8653 62.2907 91.8172 62.6075C91.8391 62.8361 91.9265 63.0552 92.0705 63.2422C92.2144 63.4293 92.4097 63.5775 92.6362 63.6717L112 74.0003Z" fill="#480689"/>
<path d="M112.206 78.1833L86.1905 64.3052C84.3394 63.321 84.5724 61.5985 86.7032 60.4543L111.687 47.136C112.768 46.5877 113.97 46.2723 115.202 46.2133C113.585 46.1047 111.968 46.4248 110.541 47.136L85.538 60.4543C83.4005 61.5985 83.1741 63.321 85.0186 64.3052L111.034 78.1833C112.177 78.7175 113.461 78.9415 114.736 78.8293C113.851 78.7906 112.987 78.5699 112.206 78.1833Z" fill="#D4088C"/>
</g>
<g opacity="0.7">
<path d="M144.994 51.4976H132.096L117.733 43.8388C115.882 42.8484 112.652 42.9776 110.515 44.1156L96.6714 51.4976H83.7801V59.4947C83.7767 59.8711 83.892 60.2402 84.112 60.557C84.3319 60.8738 84.647 61.1246 85.0186 61.2787L111.034 75.1568C112.885 76.1411 116.115 76.018 118.252 74.88L143.229 61.5371C144.341 60.9219 144.934 60.196 144.987 59.4763L144.994 51.4976Z" fill="url(#paint13_linear_1240_314)"/>
<path d="M84.5991 60.0484V52.0513H97.497L111.34 44.6693C113.471 43.5312 116.707 43.439 118.552 44.3925L132.908 52.0513H145V51.4976H132.096L117.733 43.8388C115.882 42.8484 112.652 42.9776 110.515 44.1156L96.6714 51.4976H83.7801V59.4947C83.7767 59.8711 83.892 60.2402 84.112 60.557C84.3319 60.8738 84.647 61.1246 85.0186 61.2787L85.1651 61.3587C84.9739 61.191 84.8243 60.9871 84.7266 60.7609C84.6289 60.5347 84.5854 60.2916 84.5991 60.0484Z" fill="#D4088C"/>
<path d="M111.034 67.1596L85.0186 53.2815C83.1741 52.2972 83.4005 50.5748 85.538 49.4367L110.535 36.1123C112.672 34.9742 115.902 34.8512 117.753 35.8354L143.768 49.7135C145.619 50.6978 145.386 52.4203 143.249 53.5583L118.272 66.8828C116.115 68.0208 112.885 68.1438 111.034 67.1596Z" fill="url(#paint14_linear_1240_314)"/>
<path d="M143.748 49.7136L117.733 35.8355C116.608 35.3082 115.347 35.0823 114.091 35.1835C115.007 35.2139 115.905 35.4369 116.714 35.8355L142.73 49.7136C144.581 50.6979 144.348 52.4203 142.21 53.5584L117.233 66.8829C116.134 67.4398 114.911 67.7575 113.658 67.8117C115.253 67.9084 116.846 67.5864 118.252 66.8829L143.229 53.5399C145.366 52.4203 145.6 50.6979 143.748 49.7136Z" fill="#6EE8FC"/>
<path d="M114.224 63.8562C113.374 63.878 112.533 63.6979 111.78 63.3334L92.4099 53.0048C92.1145 52.876 91.8622 52.676 91.6794 52.426C91.4966 52.1759 91.3901 51.885 91.3711 51.5837C91.4192 51.195 91.5758 50.8244 91.8256 50.5085C92.0754 50.1925 92.4098 49.9419 92.7961 49.7813L111.394 39.8649C113.045 38.9852 115.549 38.8929 116.987 39.6619L136.357 49.9905C136.654 50.1182 136.907 50.3178 137.09 50.5681C137.273 50.8184 137.378 51.1099 137.396 51.4115C137.348 51.8002 137.191 52.1708 136.942 52.4868C136.692 52.8027 136.357 53.0533 135.971 53.2139L117.373 63.1304C116.407 63.6161 115.323 63.8659 114.224 63.8562ZM112 62.9827C113.332 63.6779 115.629 63.5979 117.154 62.7736L135.751 52.8571C136.071 52.7333 136.35 52.535 136.561 52.2815C136.772 52.0281 136.909 51.7283 136.957 51.4115C136.935 51.1829 136.847 50.9638 136.703 50.7767C136.559 50.5897 136.364 50.4414 136.138 50.3472L116.767 40.0063C115.436 39.3112 113.145 39.3912 111.614 40.2155L93.0225 50.1381C92.7032 50.2619 92.4242 50.4602 92.2129 50.7137C92.0016 50.9671 91.8653 51.2669 91.8172 51.5837C91.8384 51.8125 91.9256 52.0319 92.0696 52.2191C92.2136 52.4062 92.4093 52.5543 92.6362 52.648L112 62.9827Z" fill="#480689"/>
<path d="M112.206 67.1596L86.1905 53.2815C84.3394 52.2972 84.5724 50.5748 86.7032 49.4367L111.687 36.1123C112.768 35.564 113.97 35.2485 115.202 35.1895C113.585 35.0809 111.968 35.4011 110.541 36.1123L85.538 49.4367C83.4005 50.5748 83.1741 52.2972 85.0186 53.2815L111.034 67.1596C112.181 67.6832 113.464 67.8965 114.736 67.7748C113.854 67.7456 112.99 67.5355 112.206 67.1596Z" fill="#D4088C"/>
</g>
<path d="M144.994 40.4739H132.096L117.733 32.8151C115.882 31.8308 112.652 31.9539 110.515 33.0919L96.6714 40.4739H83.7801V48.471C83.7759 48.8475 83.8909 49.217 84.1109 49.5339C84.331 49.8509 84.6465 50.1015 85.0187 50.255L111.034 64.1331C112.885 65.1173 116.115 64.9943 118.252 63.8562L143.229 50.538C144.341 49.9228 144.934 49.1969 144.987 48.4771L144.994 40.4739Z" fill="url(#paint15_linear_1240_314)"/>
<path d="M84.5992 49.0308V41.0337H97.4971L111.341 33.6517C113.471 32.5075 116.707 32.3845 118.552 33.3749L132.908 41.0275H145V40.4739H132.096L117.733 32.8151C115.882 31.8308 112.652 31.9539 110.515 33.0919L96.6714 40.4739H83.7801V48.471C83.7759 48.8475 83.8909 49.217 84.1109 49.5339C84.331 49.8509 84.6465 50.1015 85.0187 50.255L85.1652 50.3349C84.9745 50.1682 84.8251 49.9653 84.7274 49.7402C84.6297 49.5151 84.586 49.273 84.5992 49.0308Z" fill="#D4088C"/>
<path d="M111.034 56.1359L85.0186 42.264C83.1741 41.2736 83.4005 39.5511 85.538 38.4131L110.535 25.0886C112.672 23.9506 115.902 23.8583 117.753 24.8118L143.768 38.6899C145.619 39.6741 145.386 41.3966 143.249 42.5408L118.252 55.8591C116.115 57.0033 112.885 57.1263 111.034 56.1359Z" fill="url(#paint16_linear_1240_314)"/>
<path d="M143.748 38.6899L117.733 24.8118C116.606 24.2943 115.343 24.0811 114.091 24.1966C115.004 24.2157 115.901 24.426 116.714 24.8118L142.73 38.6899C144.581 39.6741 144.348 41.3966 142.21 42.5408L117.233 55.8591C116.135 56.4187 114.911 56.7365 113.658 56.788C115.253 56.8846 116.846 56.5626 118.252 55.8591L143.229 42.5408C145.366 41.3966 145.6 39.6741 143.748 38.6899Z" fill="#6EE8FC"/>
<path d="M114.224 52.8325C113.375 52.8531 112.535 52.6754 111.78 52.3158L92.4099 41.981C92.1145 41.8522 91.8622 41.6523 91.6794 41.4022C91.4966 41.1521 91.3901 40.8612 91.3711 40.56C91.4206 40.1739 91.578 39.8064 91.8278 39.4936C92.0777 39.1808 92.4114 38.9335 92.7961 38.776L111.394 28.8534C113.045 27.9737 115.549 27.8815 116.987 28.6504L136.357 38.979C136.653 39.1078 136.905 39.3078 137.088 39.5578C137.271 39.8079 137.377 40.0988 137.396 40.4C137.349 40.7892 137.193 41.1602 136.943 41.4764C136.693 41.7926 136.358 42.0429 135.971 42.2025L117.373 52.1066C116.407 52.5923 115.323 52.8422 114.224 52.8325ZM112 51.959C113.332 52.6603 115.629 52.5741 117.154 51.7498L135.751 41.8518C136.071 41.728 136.35 41.5297 136.561 41.2762C136.772 41.0228 136.909 40.723 136.957 40.4062C136.935 40.1776 136.847 39.9585 136.703 39.7714C136.559 39.5844 136.364 39.4361 136.138 39.342L116.767 28.9949C115.436 28.2936 113.145 28.3797 111.614 29.1979L93.0225 39.1205C92.704 39.2438 92.4257 39.4412 92.2144 39.6934C92.0032 39.9457 91.8664 40.2443 91.8172 40.56C91.8387 40.7895 91.9258 41.0096 92.0697 41.1977C92.2137 41.3858 92.4092 41.5351 92.6362 41.6304L112 51.959Z" fill="url(#paint17_linear_1240_314)"/>
<path d="M112.206 56.1359L86.1905 42.264C84.3394 41.2736 84.5724 39.5511 86.7032 38.4131L111.687 25.0886C112.768 24.5403 113.97 24.2249 115.202 24.1659C113.585 24.0573 111.968 24.3774 110.541 25.0886L85.538 38.4131C83.4005 39.5511 83.1741 41.2736 85.0186 42.264L111.034 56.1359C112.179 56.6655 113.464 56.879 114.736 56.7511C113.854 56.722 112.99 56.5118 112.206 56.1359Z" fill="#25BFEC"/>
<path d="M118.991 60.5959L140.998 48.8339C141.107 48.7646 141.196 48.6729 141.26 48.5662C141.323 48.4594 141.359 48.3405 141.365 48.2188V47.2284C141.365 46.9823 141.205 46.8654 140.998 46.9761L118.991 58.7319C118.886 58.8033 118.798 58.8955 118.736 59.0019C118.674 59.1084 118.638 59.2263 118.632 59.3471V60.3067C118.632 60.5836 118.792 60.7005 118.991 60.5959Z" fill="#6DE0F6"/>
<path d="M140.499 48.5817C140.605 48.5104 140.693 48.4183 140.757 48.312C140.82 48.2056 140.857 48.0877 140.865 47.9666V47.0377L140.978 46.9762C141.185 46.8654 141.345 46.9762 141.345 47.2284V48.188C141.339 48.3098 141.303 48.4287 141.24 48.5354C141.176 48.6421 141.087 48.7338 140.978 48.8032L118.991 60.5959C118.792 60.7005 118.632 60.5959 118.632 60.3375V60.3068L140.499 48.5817Z" fill="#267FE5"/>
<g opacity="0.4">
<path d="M61.2604 71.5642H48.3225L33.9597 63.9054C32.1086 62.9212 28.8791 63.0442 26.7417 64.1823L12.8982 71.5642H0.000294186V79.5614C-0.00252449 79.9384 0.11378 80.308 0.334953 80.6249C0.556126 80.9417 0.87256 81.1921 1.24547 81.3453L27.2544 95.2234C29.1055 96.2077 32.335 96.0847 34.4724 94.9466L59.4492 81.6222C60.5612 81.007 61.1539 80.2811 61.2071 79.5614L61.2604 71.5642Z" fill="url(#paint18_linear_1240_314)"/>
<path d="M0.825974 80.1212V72.124H13.7172L27.5607 64.7421C29.6915 63.5979 32.9276 63.4748 34.7721 64.4652L49.1349 72.1179H61.2604V71.5642H48.3225L33.9597 63.9054C32.1086 62.9212 28.8791 63.0442 26.7417 64.1823L12.8982 71.5642H0.000294186V79.5614C-0.00252449 79.9384 0.11378 80.308 0.334953 80.6249C0.556126 80.9417 0.87256 81.1921 1.24547 81.3453L1.39196 81.4253C1.20019 81.2593 1.05013 81.0566 0.952347 80.8312C0.85456 80.6059 0.811423 80.3636 0.825974 80.1212Z" fill="#D4088C"/>
<path d="M27.261 87.2261L1.25213 73.3542C-0.598993 72.3638 -0.365938 70.6413 1.76485 69.534L26.7417 56.1788C28.8791 55.0408 32.1086 54.9177 33.9597 55.902L59.9753 69.7801C61.8264 70.7644 61.5933 72.4868 59.4559 73.631L34.4791 86.9493C32.3416 88.0935 29.1122 88.2165 27.261 87.2261Z" fill="url(#paint19_linear_1240_314)"/>
<path d="M59.9752 69.7803L33.9596 55.9022C32.8323 55.3847 31.5699 55.1715 30.3173 55.287C31.231 55.3061 32.128 55.5164 32.9409 55.9022L58.9564 69.7803C60.8076 70.7645 60.5745 72.487 58.4371 73.6312L33.4602 86.9495C32.3615 87.5091 31.1379 87.8269 29.8845 87.8784C31.4802 87.975 33.0729 87.653 34.479 86.9495L59.4558 73.6312C61.5933 72.487 61.8263 70.7645 59.9752 69.7803Z" fill="#6EE8FC"/>
<path d="M30.4507 83.9229C29.602 83.9435 28.7614 83.7658 28.0069 83.4061L8.65674 73.0714C8.35971 72.944 8.10562 72.7445 7.92153 72.4943C7.73744 72.2441 7.63024 71.9524 7.61133 71.6504C7.65859 71.2621 7.81497 70.8921 8.06495 70.5769C8.31493 70.2618 8.6498 70.0126 9.03629 69.8541L27.6207 59.9315C29.2721 59.0518 31.7824 58.9595 33.2141 59.7285L52.6042 70.0571C52.901 70.1858 53.1543 70.3866 53.3373 70.6379C53.5202 70.8893 53.6259 71.1818 53.643 71.4843C53.5951 71.8723 53.4384 72.2421 53.1885 72.5571C52.9386 72.8721 52.6041 73.1215 52.218 73.2805L33.6003 83.197C32.6344 83.6827 31.5503 83.9326 30.4507 83.9229ZM28.2333 83.0678C29.5651 83.7691 31.8557 83.683 33.3805 82.8586L51.9783 72.9422C52.2967 72.8189 52.5751 72.6215 52.7863 72.3692C52.9975 72.117 53.1344 71.8184 53.1835 71.5027C53.1628 71.273 53.0759 71.0526 52.9319 70.8644C52.7879 70.6762 52.592 70.527 52.3645 70.4323L32.9943 60.0853C31.6626 59.384 29.372 59.4701 27.8471 60.2883L9.24937 70.2047C8.93009 70.3285 8.65112 70.5269 8.43983 70.7803C8.22854 71.0337 8.09219 71.3336 8.04414 71.6504C8.06535 71.8792 8.15249 72.0985 8.29652 72.2857C8.44055 72.4728 8.63621 72.6209 8.86317 72.7146L28.2333 83.0678Z" fill="#480689"/>
<path d="M28.433 87.2263L2.4174 73.3544C0.566281 72.3639 0.799336 70.6415 2.93678 69.5342L27.9136 56.179C28.9953 55.6307 30.1972 55.3152 31.4294 55.2562C29.8123 55.1477 28.1952 55.4678 26.7683 56.179L1.76485 69.5342C-0.365938 70.6722 -0.598993 72.3947 1.25213 73.3851L27.261 87.2571C28.4043 87.7913 29.6879 88.0152 30.9633 87.903C30.0757 87.8548 29.2111 87.6236 28.433 87.2263Z" fill="#D4088C"/>
</g>
<g opacity="0.5">
<path d="M61.2602 60.5466H48.3223L33.9595 52.8817C32.1083 51.8974 28.8789 52.0205 26.7414 53.1585L12.898 60.5405H6.72215e-05V68.5376C-0.00320198 68.9155 0.112837 69.2861 0.333987 69.6041C0.555136 69.922 0.871805 70.1735 1.24525 70.3277L27.2542 84.1997C29.1053 85.1901 32.3347 85.0671 34.4722 83.9229L59.449 70.6046C60.561 69.9894 61.1536 69.2635 61.2069 68.5376L61.2602 60.5466Z" fill="url(#paint20_linear_1240_314)"/>
<path d="M0.825747 69.0974V61.1003H13.717L27.5605 53.7183C29.6912 52.5803 32.9274 52.488 34.7718 53.4415L49.1347 61.0941H61.2602V60.5466H48.3223L33.9595 52.8817C32.1083 51.8974 28.8789 52.0205 26.7414 53.1585L12.898 60.5405H6.72215e-05V68.5376C-0.00320198 68.9155 0.112837 69.2861 0.333987 69.6041C0.555136 69.922 0.871805 70.1735 1.24525 70.3277L1.39174 70.4016C1.1996 70.2359 1.04929 70.0331 0.951477 69.8077C0.853661 69.5824 0.810736 69.3399 0.825747 69.0974Z" fill="#D4088C"/>
<path d="M27.2608 76.2086L1.25188 62.3305C-0.599237 61.3463 -0.366182 59.6177 1.7646 58.4612L26.7414 45.1552C28.8789 44.0171 32.1083 43.8941 33.9594 44.8845L59.975 58.7564C61.8261 59.7469 61.5931 61.4693 59.4556 62.6074L34.4788 75.9318C32.3414 77.0699 29.1119 77.1929 27.2608 76.2086Z" fill="url(#paint21_linear_1240_314)"/>
<path d="M59.9752 58.7565L33.9596 44.8846C32.8369 44.3528 31.5738 44.1267 30.3173 44.2325C31.2341 44.263 32.1313 44.486 32.9409 44.8846L58.9564 58.7565C60.8076 59.7469 60.5745 61.4694 58.4371 62.6074L33.4602 75.9319C32.3599 76.4869 31.1369 76.8025 29.8845 76.8546C31.4793 76.9505 33.0712 76.6307 34.479 75.9319L59.4558 62.6074C61.5933 61.4694 61.8263 59.7469 59.9752 58.7565Z" fill="#6EE8FC"/>
<path d="M30.4504 72.8991C29.6014 72.923 28.76 72.7451 28.0067 72.3824L8.6565 62.0538C8.35982 61.9243 8.10626 61.7235 7.92235 61.4724C7.73844 61.2213 7.63093 60.9292 7.61108 60.6266C7.65899 60.2386 7.81562 59.8688 8.06552 59.5538C8.31542 59.2387 8.64994 58.9894 9.03605 58.8303L27.6205 48.9139C29.2719 48.0342 31.7822 47.9419 33.2138 48.7047L52.604 59.0333C52.8998 59.1632 53.1524 59.3642 53.3352 59.6153C53.518 59.8664 53.6242 60.1584 53.6427 60.4605C53.5955 60.8487 53.4391 61.2188 53.1891 61.5339C52.9391 61.849 52.6043 62.0982 52.2178 62.2568L33.6 72.1732C32.6342 72.659 31.5501 72.9088 30.4504 72.8991ZM30.7701 48.6186C29.7495 48.6126 28.7438 48.8454 27.8469 49.2953L9.24913 59.1871C8.93072 59.3104 8.65232 59.5078 8.4411 59.7601C8.22987 60.0124 8.09302 60.3109 8.0439 60.6266C8.06532 60.8561 8.15248 61.0762 8.29641 61.2643C8.44034 61.4524 8.63587 61.6018 8.86292 61.697L28.2331 72.0256C29.5648 72.7269 31.8554 72.6408 33.3803 71.8226L51.978 61.9C52.2965 61.7767 52.5748 61.5793 52.7861 61.327C52.9973 61.0748 53.1341 60.7762 53.1833 60.4605C53.1618 60.231 53.0747 60.0109 52.9308 59.8228C52.7868 59.6347 52.5913 59.4854 52.3643 59.3901L32.9941 49.0615C32.3052 48.7425 31.54 48.5901 30.7701 48.6186Z" fill="#480689"/>
<path d="M28.433 76.2088L2.4174 62.3307C0.566281 61.3464 0.799336 59.6178 2.93678 58.4613L27.9136 45.1553C28.9965 44.6098 30.1977 44.2945 31.4294 44.2326C29.8125 44.1271 28.1964 44.447 26.7683 45.1553L1.76485 58.4613C-0.365938 59.5994 -0.598993 61.328 1.25213 62.3123L27.261 76.1903C28.4043 76.7245 29.6879 76.9485 30.9633 76.8363C30.0803 76.8005 29.2166 76.5863 28.433 76.2088Z" fill="#D4088C"/>
</g>
<g opacity="0.7">
<path d="M61.2604 49.5229H48.3225L33.9597 41.8518C32.1086 40.8614 28.8791 40.9845 26.7416 42.1225L12.8982 49.5045H0.000268758V57.5016C-0.0017041 57.8785 0.114944 58.2477 0.336015 58.5645C0.557087 58.8812 0.873049 59.1317 1.24545 59.2856L27.2544 73.1637C29.1055 74.1479 32.335 74.0249 34.4724 72.8869L59.4559 59.587C60.5679 58.9719 61.1605 58.246 61.2138 57.5262L61.2604 49.5229Z" fill="url(#paint22_linear_1240_314)"/>
<path d="M0.825948 58.0737V50.0766H13.7172L27.5607 42.6946C29.6914 41.5566 32.9276 41.4643 34.772 42.4178L49.1349 50.0704H61.2604V49.5229H48.3225L33.9597 41.8518C32.1086 40.8614 28.8791 40.9845 26.7416 42.1225L12.8982 49.5045H0.000268758V57.5016C-0.0017041 57.8785 0.114944 58.2477 0.336015 58.5645C0.557087 58.8812 0.873049 59.1317 1.24545 59.2856L1.39194 59.3656C1.20229 59.2007 1.05351 58.9999 0.955813 58.7769C0.858114 58.5539 0.813812 58.314 0.825948 58.0737Z" fill="#D4088C"/>
<path d="M27.261 65.185L1.25213 51.3069C-0.598993 50.3227 -0.365938 48.6002 1.76485 47.456L26.7417 34.1377C28.8791 32.9996 32.1086 32.8705 33.9597 33.8547L59.9753 47.7328C61.8264 48.7232 61.5933 50.4457 59.4559 51.5837L34.4791 64.9082C32.3416 66.0462 29.1122 66.1693 27.261 65.185Z" fill="url(#paint23_linear_1240_314)"/>
<path d="M59.9752 47.7328L33.9596 33.8547C32.8313 33.3401 31.5698 33.127 30.3173 33.2396C31.231 33.2586 32.128 33.4689 32.9409 33.8547L58.9564 47.7328C60.8076 48.7232 60.5745 50.4457 58.4371 51.5837L33.4602 64.9082C32.361 65.4658 31.1374 65.7816 29.8845 65.8309C31.4796 65.9298 33.0724 65.6099 34.479 64.9082L59.4558 51.5837C61.5933 50.4641 61.8263 48.7232 59.9752 47.7328Z" fill="#6EE8FC"/>
<path d="M30.4504 61.8816C29.6009 61.9033 28.7595 61.7232 28.0067 61.3587L8.6565 51.0301C8.35946 50.9027 8.10538 50.7032 7.92129 50.453C7.7372 50.2028 7.62999 49.9111 7.61108 49.609C7.65788 49.2199 7.81401 48.8488 8.06397 48.5327C8.31394 48.2165 8.64904 47.9662 9.03605 47.8066L27.6205 37.8902C29.2719 37.0105 31.7822 36.9182 33.2138 37.681L52.604 48.0035C52.9002 48.1312 53.1533 48.3309 53.3363 48.5811C53.5192 48.8314 53.6251 49.1229 53.6427 49.4245C53.5955 49.8127 53.4391 50.1828 53.1891 50.4979C52.9391 50.813 52.6043 51.0622 52.2178 51.2208L33.6 61.1557C32.6342 61.6414 31.5501 61.8912 30.4504 61.8816ZM30.7701 37.5457C29.7492 37.5375 28.743 37.7705 27.8469 38.2224L9.24913 48.1634C8.92984 48.2872 8.65088 48.4856 8.43959 48.739C8.2283 48.9924 8.09194 49.2922 8.0439 49.609C8.06578 49.8377 8.1532 50.0568 8.29715 50.2438C8.4411 50.4309 8.63638 50.5791 8.86292 50.6733L28.2331 61.0019C29.5648 61.7032 31.8554 61.617 33.3803 60.7989L51.978 50.8824C52.2973 50.7586 52.5763 50.5603 52.7876 50.3069C52.9989 50.0534 53.1352 49.7536 53.1833 49.4368C53.1621 49.208 53.0749 48.9886 52.9309 48.8015C52.7869 48.6143 52.5912 48.4662 52.3643 48.3726L32.9941 38.0378C32.3101 37.7017 31.5446 37.5323 30.7701 37.5457Z" fill="#480689"/>
<path d="M28.433 65.1848L2.4174 51.3067C0.566281 50.3224 0.799336 48.6 2.93678 47.4558L27.9136 34.1375C28.9975 33.5977 30.1993 33.2907 31.4294 33.2393C29.8123 33.1307 28.1952 33.4509 26.7683 34.1621L1.76485 47.4558C-0.365938 48.6184 -0.598993 50.3224 1.25213 51.3067L27.261 65.1848C28.4076 65.7084 29.6911 65.9217 30.9633 65.8C30.0809 65.7708 29.2166 65.5607 28.433 65.1848Z" fill="#D4088C"/>
</g>
<path d="M61.2604 38.4992H48.3225L33.9597 30.8404C32.1086 29.85 28.8791 29.9792 26.7416 31.1172L12.8982 38.4992H0.000268758V46.4963C-0.0017041 46.8732 0.114944 47.2424 0.336015 47.5592C0.557087 47.8759 0.873049 48.1264 1.24545 48.2803L27.261 62.1522C29.1121 63.1365 32.3416 63.0135 34.4791 61.8754L59.4559 48.5633C60.5679 47.9481 61.1605 47.2222 61.2138 46.5025L61.2604 38.4992Z" fill="url(#paint24_linear_1240_314)"/>
<path d="M0.825948 47.0499V39.0528H13.7172L27.5607 31.6709C29.6914 30.5328 32.9276 30.4405 34.772 31.394L49.1349 39.0528H61.2604V38.4992H48.3225L33.9597 30.8404C32.1086 29.85 28.8791 29.9792 26.7416 31.1172L12.8982 38.4992H0.000268758V46.4963C-0.0017041 46.8732 0.114944 47.2424 0.336015 47.5592C0.557087 47.8759 0.873049 48.1264 1.24545 48.2803L1.39194 48.3602C1.19965 48.1933 1.04931 47.9895 0.95152 47.7631C0.85373 47.5367 0.810866 47.2933 0.825948 47.0499Z" fill="#D4088C"/>
<path d="M27.261 54.1551L1.25213 40.2832C-0.598993 39.2989 -0.365938 37.5764 1.76485 36.4384L26.7417 23.1139C28.8791 21.9759 32.1086 21.8836 33.9597 22.8371L59.9753 36.7152C61.8264 37.6995 61.5933 39.4219 59.4559 40.56L34.4791 53.8844C32.3416 55.0225 29.1122 55.1455 27.261 54.1551Z" fill="url(#paint25_linear_1240_314)"/>
<path d="M59.9752 36.7152L33.9596 22.8371C32.8373 22.3034 31.5754 22.0712 30.3173 22.1666C31.2341 22.197 32.1313 22.42 32.9409 22.8187L58.9564 36.7152C60.8076 37.6995 60.5745 39.4219 58.4371 40.56L33.4602 53.8844C32.3604 54.4413 31.1374 54.759 29.8845 54.8133C31.4802 54.9099 33.0729 54.5879 34.479 53.8844L59.4558 40.56C61.5933 39.4219 61.8263 37.6995 59.9752 36.7152Z" fill="#6EE8FC"/>
<path d="M30.4504 50.8578C29.6009 50.8795 28.7595 50.6995 28.0067 50.3349L8.6565 40.0063C8.35946 39.8789 8.10538 39.6795 7.92129 39.4293C7.7372 39.179 7.62999 38.8874 7.61108 38.5853C7.65834 38.1971 7.81473 37.827 8.0647 37.5119C8.31468 37.1968 8.64955 36.9476 9.03605 36.789L27.6205 26.8664C29.2719 25.9868 31.7822 25.8945 33.2138 26.6634L52.604 36.992C52.9002 37.1198 53.1533 37.3194 53.3363 37.5697C53.5192 37.82 53.6251 38.1115 53.6427 38.4131C53.5959 38.8022 53.4398 39.1733 53.1898 39.4894C52.9399 39.8056 52.6048 40.0559 52.2178 40.2155L33.6 50.1319C32.6342 50.6177 31.5501 50.8675 30.4504 50.8578ZM28.2331 49.9843C29.5648 50.6794 31.8554 50.5995 33.3803 49.7751L51.978 39.8587C52.2973 39.7349 52.5763 39.5366 52.7876 39.2831C52.9989 39.0297 53.1352 38.7299 53.1833 38.4131C53.1614 38.1845 53.074 37.9654 52.93 37.7783C52.7861 37.5913 52.5908 37.443 52.3643 37.3488L32.9941 27.0202C31.6623 26.319 29.3717 26.4051 27.8469 27.2232L9.24913 37.1397C8.92984 37.2635 8.65088 37.4618 8.43959 37.7153C8.2283 37.9687 8.09194 38.2685 8.0439 38.5853C8.0651 38.8141 8.15225 39.0335 8.29628 39.2206C8.44031 39.4078 8.63597 39.5559 8.86292 39.6495L28.2331 49.9843Z" fill="url(#paint26_linear_1240_314)"/>
<path d="M28.433 54.1551L2.4174 40.2831C0.566281 39.2989 0.799336 37.5764 2.93678 36.4384L27.9136 23.1139C28.9931 22.557 30.1951 22.2331 31.4294 22.1666C29.8123 22.058 28.1952 22.3781 26.7683 23.0893L1.76485 36.4384C-0.365938 37.5764 -0.598993 39.2989 1.25213 40.2831L27.261 54.1551C28.4076 54.6787 29.6911 54.892 30.9633 54.7703C30.0809 54.7411 29.2166 54.531 28.433 54.1551Z" fill="#25BFEC"/>
<path d="M26.109 58.615L4.13527 46.8593C4.02795 46.7889 3.93926 46.697 3.87583 46.5905C3.81241 46.4839 3.7759 46.3655 3.76904 46.2441V45.2537C3.76904 45.0015 3.92885 44.8907 4.13527 44.9953L26.109 56.7572C26.2174 56.8266 26.3069 56.9183 26.3704 57.025C26.434 57.1318 26.4699 57.2507 26.4752 57.3724V58.3321C26.4752 58.6089 26.3154 58.7258 26.109 58.615Z" fill="#6DE0F6"/>
<path d="M4.58809 46.6009C4.48077 46.5305 4.39207 46.4386 4.32865 46.3321C4.26523 46.2256 4.22872 46.1072 4.22186 45.9857V45.063L4.10866 44.9953C3.90224 44.8908 3.74243 44.9953 3.74243 45.2537V46.2133C3.74929 46.3348 3.7858 46.4532 3.84922 46.5597C3.91265 46.6663 4.00134 46.7581 4.10866 46.8285L26.0824 58.5843C26.2888 58.695 26.4486 58.5843 26.4486 58.3321V58.2706L4.58809 46.6009Z" fill="#267FE5"/>
<g opacity="0.4">
<path d="M102.991 95.6909H90.0861L75.7232 88.0322C73.8788 87.0479 70.6426 87.1709 68.5119 88.309L54.6684 95.6909H41.7705V103.688C41.7645 104.065 41.8788 104.435 42.099 104.752C42.3193 105.07 42.6358 105.32 43.009 105.472L69.0312 119.362C70.8757 120.347 74.1118 120.224 76.2426 119.086L101.213 105.755C102.325 105.14 102.917 104.414 102.971 103.694L102.991 95.6909Z" fill="url(#paint27_linear_1240_314)"/>
<path d="M42.6161 104.248V96.2508H55.4808L69.3242 88.8688C71.4617 87.7246 74.6911 87.6015 76.5423 88.592L90.8984 96.2508H102.991V95.6971H90.0861L75.7232 88.0383C73.8788 87.0541 70.6426 87.1771 68.5119 88.3151L54.6684 95.6971H41.7705V103.694C41.7645 104.071 41.8788 104.441 42.099 104.758C42.3193 105.076 42.6358 105.326 43.009 105.478L43.1555 105.558C42.9676 105.389 42.822 105.185 42.7289 104.958C42.6357 104.732 42.5972 104.489 42.6161 104.248Z" fill="#D4088C"/>
<path d="M69.0311 111.365L43.0156 97.4809C41.1644 96.4905 41.3975 94.7681 43.5283 93.63L68.5117 80.3056C70.6425 79.1675 73.8787 79.0752 75.7231 80.0287L101.739 93.9068C103.59 94.8911 103.357 96.6197 101.219 97.7578L76.2425 111.076C74.1117 112.22 70.8756 112.343 69.0311 111.365Z" fill="url(#paint28_linear_1240_314)"/>
<path d="M101.739 93.907L75.7231 80.0289C74.5991 79.5008 73.3365 79.2769 72.0807 79.383C72.997 79.4115 73.8942 79.6324 74.7043 80.0289L100.72 93.907C102.571 94.8912 102.338 96.6199 100.2 97.7579L75.2436 111.076C74.147 111.635 72.9257 111.953 71.6746 112.005C73.2681 112.102 74.8587 111.78 76.2624 111.076L101.213 97.7579C103.357 96.6014 103.59 94.8912 101.739 93.907Z" fill="#6EE8FC"/>
<path d="M72.214 108.05C71.3653 108.07 70.5247 107.892 69.7703 107.533L50.4067 97.2165C50.1097 97.0891 49.8556 96.8897 49.6715 96.6395C49.4874 96.3892 49.3802 96.0976 49.3613 95.7955C49.4086 95.4064 49.5657 95.0357 49.817 94.7204C50.0682 94.4051 50.4048 94.1564 50.793 93.9992L69.3841 84.0766C71.0354 83.2031 73.5458 83.1047 74.9774 83.8736L94.3476 94.2022C94.6437 94.3307 94.897 94.5304 95.081 94.7805C95.2649 95.0305 95.3727 95.3216 95.393 95.6233C95.3442 96.0127 95.1866 96.3836 94.9356 96.6997C94.6846 97.0157 94.3488 97.2659 93.9613 97.4257L75.3702 107.342C74.4001 107.821 73.314 108.065 72.214 108.05ZM69.9967 107.176C71.3284 107.877 73.619 107.791 75.1438 106.967L93.7416 97.0504C94.0609 96.9267 94.3399 96.7283 94.5511 96.4749C94.7624 96.2214 94.8988 95.9216 94.9468 95.6048C94.9249 95.3762 94.8375 95.1571 94.6936 94.9701C94.5496 94.783 94.3544 94.6348 94.1278 94.5406L74.7576 84.212C73.4259 83.5107 71.1353 83.5968 69.6105 84.415L51.0127 94.3376C50.6943 94.4609 50.4159 94.6583 50.2047 94.9105C49.9934 95.1628 49.8566 95.4614 49.8075 95.7771C49.827 96.0046 49.9112 96.2234 50.0514 96.4113C50.1917 96.5993 50.3832 96.7497 50.6065 96.8474L69.9967 107.176Z" fill="#480689"/>
<path d="M70.1964 111.365L44.1808 97.4812C42.3297 96.4907 42.5628 94.7683 44.7002 93.6302L69.677 80.3058C70.7588 79.7575 71.9606 79.442 73.1928 79.383C71.5758 79.2758 69.9592 79.5959 68.5317 80.3058L43.5283 93.6302C41.3975 94.7683 41.1644 96.4907 43.0156 97.4812L69.0311 111.365C70.1702 111.904 71.4533 112.129 72.7267 112.011C71.8418 111.973 70.9773 111.752 70.1964 111.365Z" fill="#D4088C"/>
</g>
<g opacity="0.5">
<path d="M102.99 84.6734H90.0858L75.723 77.0084C73.8786 76.0242 70.6424 76.1472 68.5116 77.2853L54.6682 84.6672H41.7703V92.6644C41.7639 93.0421 41.8779 93.4132 42.0981 93.7315C42.3183 94.0498 42.635 94.3012 43.0088 94.4545L69.0244 108.326C70.8688 109.317 74.105 109.194 76.2357 108.05L101.213 94.7559C102.325 94.1408 102.917 93.4149 102.97 92.689L102.99 84.6734Z" fill="url(#paint29_linear_1240_314)"/>
<path d="M42.6159 93.2241V85.227H55.4806L69.324 77.845C71.4615 76.707 74.6909 76.6147 76.542 77.5682L90.8982 85.227H102.99V84.6795H90.0858L75.723 77.0146C73.8786 76.0303 70.6424 76.1533 68.5116 77.2914L54.6682 84.6734H41.7703V92.6705C41.7639 93.0482 41.8779 93.4193 42.0981 93.7377C42.3183 94.056 42.635 94.3074 43.0088 94.4606L43.1553 94.5344C42.9671 94.3658 42.8212 94.1611 42.728 93.9347C42.6348 93.7083 42.5965 93.4657 42.6159 93.2241Z" fill="#D4088C"/>
<path d="M69.0311 100.335L43.0156 86.4573C41.1644 85.473 41.3975 83.7444 43.5283 82.6064L68.5117 69.2881C70.6425 68.1439 73.8787 68.0208 75.7231 69.0112L101.739 82.8832C103.59 83.8736 103.357 85.5961 101.219 86.7341L76.2425 100.059C74.1117 101.197 70.8756 101.32 69.0311 100.335Z" fill="url(#paint30_linear_1240_314)"/>
<path d="M101.739 82.8832L75.7231 69.0113C74.5997 68.4812 73.3371 68.2551 72.0807 68.3592C72.9975 68.3897 73.8947 68.6127 74.7043 69.0113L100.72 82.8832C102.571 83.8737 102.338 85.5961 100.2 86.7342L75.2436 100.059C74.1453 100.613 72.9247 100.928 71.6746 100.981C73.2672 101.077 74.8569 100.757 76.2624 100.059L101.213 86.7588C103.357 85.5961 103.59 83.8737 101.739 82.8832Z" fill="#6EE8FC"/>
<path d="M72.214 97.0259C71.365 97.0498 70.5235 96.8718 69.7703 96.5091L50.4067 86.1805C50.1106 86.052 49.8573 85.8523 49.6733 85.6023C49.4894 85.3523 49.3816 85.0612 49.3613 84.7595C49.4088 84.3697 49.5659 83.9982 49.8171 83.682C50.0682 83.3657 50.4047 83.1158 50.793 82.9571L69.3841 73.0406C71.0354 72.1609 73.5458 72.0687 74.9774 72.8315L94.3476 83.1662C94.6446 83.2936 94.8987 83.4931 95.0828 83.7433C95.2669 83.9935 95.3741 84.2852 95.393 84.5873C95.3444 84.976 95.1868 85.3462 94.9357 85.6613C94.6846 85.9763 94.3487 86.2253 93.9613 86.3835L75.3702 96.3061C74.4002 96.7869 73.3148 97.0345 72.214 97.0259ZM72.5336 72.7207C71.5137 72.7134 70.5082 72.944 69.6105 73.3913L51.0127 83.3139C50.6934 83.4377 50.4144 83.636 50.2032 83.8894C49.9919 84.1429 49.8555 84.4427 49.8075 84.7595C49.8275 84.9862 49.9119 85.2039 50.0522 85.3908C50.1925 85.5777 50.3837 85.727 50.6065 85.8237L69.9767 96.1523C71.3084 96.8536 73.599 96.7675 75.1239 95.9493L93.7216 86.0267C94.04 85.9035 94.3184 85.7061 94.5297 85.4538C94.7409 85.2015 94.8777 84.903 94.9269 84.5873C94.9054 84.3577 94.8183 84.1376 94.6744 83.9495C94.5304 83.7614 94.3349 83.6121 94.1078 83.5169L74.7377 73.1883C74.0572 72.8637 73.2992 72.7029 72.5336 72.7207Z" fill="#480689"/>
<path d="M70.1964 100.335L44.1808 86.4573C42.3297 85.473 42.5628 83.7444 44.7002 82.6063L69.677 69.2881C70.7575 68.7369 71.9601 68.4213 73.1928 68.3653C71.5756 68.255 69.958 68.5752 68.5317 69.2881L43.5283 82.6063C41.3975 83.7444 41.1644 85.473 43.0156 86.4573L69.0311 100.335C70.1719 100.87 71.4535 101.094 72.7267 100.981C71.8422 100.94 70.9785 100.719 70.1964 100.335Z" fill="#D4088C"/>
</g>
<g opacity="0.7">
<path d="M102.991 73.6496H90.086L75.7232 65.9909C73.8787 65.0004 70.6426 65.1235 68.5118 66.2677L54.6683 73.6496H41.7704V81.6468C41.7653 82.0235 41.88 82.3933 42.1001 82.7104C42.3202 83.0275 42.6362 83.2779 43.0089 83.4307L69.0245 97.3088C70.869 98.2931 74.1051 98.1701 76.2359 97.032L101.213 83.7137C102.325 83.0986 102.917 82.3727 102.971 81.6529L102.991 73.6496Z" fill="url(#paint31_linear_1240_314)"/>
<path d="M42.6161 82.2004V74.2033H55.4807L69.3242 66.8213C71.4616 65.6833 74.6911 65.591 76.5422 66.5445L90.8984 74.2094H102.991V73.6558H90.086L75.7232 65.997C73.8787 65.0066 70.6426 65.1296 68.5118 66.2738L54.6683 73.6558H41.7704V81.6529C41.7653 82.0296 41.88 82.3994 42.1001 82.7165C42.3202 83.0336 42.6362 83.2841 43.0089 83.4369L43.1554 83.5169C42.9671 83.347 42.8212 83.1412 42.728 82.9138C42.6348 82.6864 42.5966 82.4429 42.6161 82.2004Z" fill="#D4088C"/>
<path d="M69.0311 89.3116L43.0156 75.4335C41.1644 74.4493 41.3975 72.7268 43.5283 71.5887L68.5117 58.2643C70.6425 57.1262 73.8787 57.0032 75.7231 57.9875L101.739 71.8656C103.59 72.8498 103.357 74.5723 101.219 75.7103L76.2425 89.0348C74.1117 90.1728 70.8756 90.2959 69.0311 89.3116Z" fill="url(#paint32_linear_1240_314)"/>
<path d="M101.739 71.8657L75.7231 57.9876C74.5987 57.4603 73.3369 57.2344 72.0807 57.3355C72.9975 57.366 73.8947 57.589 74.7043 57.9876L100.72 71.8657C102.571 72.8499 102.338 74.5724 100.2 75.7104L75.2436 89.0349C74.1457 89.5909 72.9252 89.9086 71.6746 89.9638C73.2681 90.0606 74.8587 89.7385 76.2624 89.0349L101.213 75.6858C103.357 74.5724 103.59 72.8499 101.739 71.8657Z" fill="#6EE8FC"/>
<path d="M72.214 86.0083C71.3644 86.03 70.523 85.8499 69.7703 85.4854L50.4067 75.1568C50.1097 75.0294 49.8556 74.8299 49.6715 74.5797C49.4874 74.3295 49.3802 74.0378 49.3613 73.7358C49.4088 73.346 49.5659 72.9745 49.8171 72.6582C50.0682 72.342 50.4047 72.0921 50.793 71.9333L69.3841 62.0169C71.0354 61.1372 73.5458 61.0449 74.9774 61.8077L94.3476 72.1425C94.6446 72.2699 94.8987 72.4693 95.0828 72.7196C95.2669 72.9698 95.3741 73.2615 95.393 73.5635C95.3444 73.9522 95.1868 74.3224 94.9357 74.6375C94.6846 74.9526 94.3487 75.2016 93.9613 75.3598L75.3702 85.2824C74.402 85.7681 73.3157 86.0179 72.214 86.0083ZM72.5336 61.697C71.5128 61.6889 70.5066 61.9218 69.6105 62.3737L51.0127 72.2901C50.6934 72.4139 50.4144 72.6123 50.2032 72.8657C49.9919 73.1191 49.8555 73.419 49.8075 73.7358C49.8275 73.9624 49.9119 74.1802 50.0522 74.3671C50.1925 74.5539 50.3837 74.7033 50.6065 74.8L69.9767 85.1286C71.3084 85.8299 73.599 85.7438 75.1239 84.9256L93.7216 75.0091C94.0409 74.8854 94.3199 74.687 94.5312 74.4336C94.7425 74.1801 94.8788 73.8803 94.9269 73.5635C94.9057 73.3347 94.8185 73.1153 94.6745 72.9282C94.5305 72.741 94.3348 72.5929 94.1078 72.4993L74.7576 62.1522C74.07 61.8289 73.3047 61.6723 72.5336 61.697Z" fill="#480689"/>
<path d="M70.1964 89.3116L44.1808 75.4336C42.3297 74.4493 42.5628 72.7268 44.7002 71.5888L69.677 58.2643C70.7588 57.716 71.9606 57.4006 73.1928 57.3416C71.5756 57.2313 69.958 57.5515 68.5317 58.2643L43.5283 71.5888C41.3975 72.7268 41.1644 74.4493 43.0156 75.4336L69.0311 89.3116C70.1752 89.8354 71.4567 90.0487 72.7267 89.9268C71.8443 89.8977 70.98 89.6875 70.1964 89.3116Z" fill="#D4088C"/>
</g>
<path d="M102.991 62.6259H90.086L75.7232 54.9671C73.8787 53.9829 70.6426 54.1059 68.5118 55.2439L54.6683 62.6259H41.7704V70.623C41.7653 70.9997 41.88 71.3695 42.1001 71.6866C42.3202 72.0037 42.6362 72.2542 43.0089 72.407L69.0245 86.2851C70.869 87.2694 74.1051 87.1463 76.2359 86.0083L101.213 72.69C102.325 72.0748 102.917 71.3489 102.971 70.6292L102.991 62.6259Z" fill="url(#paint33_linear_1240_314)"/>
<path d="M42.6161 71.1828V63.1857H55.4807L69.3242 55.8037C71.4616 54.6657 74.6911 54.5734 76.5422 55.5331L90.8984 63.1919H102.991V62.6382H90.086L75.7232 54.9671C73.8787 53.9829 70.6426 54.1059 68.5118 55.2439L54.6683 62.6259H41.7704V70.623C41.7653 70.9997 41.88 71.3695 42.1001 71.6866C42.3202 72.0037 42.6362 72.2542 43.0089 72.407L43.1554 72.487C42.9685 72.3188 42.8234 72.115 42.7302 71.8898C42.6371 71.6646 42.5981 71.4234 42.6161 71.1828Z" fill="#D4088C"/>
<path d="M69.0311 78.288L43.0156 64.416C41.1644 63.4256 41.3975 61.7031 43.5283 60.5651L68.5117 47.2407C70.6425 46.1026 73.8787 45.9796 75.7231 46.9638L101.739 60.8419C103.59 61.8262 103.357 63.5486 101.219 64.6928L76.2425 78.0111C74.1117 79.1492 70.8756 79.2784 69.0311 78.288Z" fill="url(#paint34_linear_1240_314)"/>
<path d="M101.739 60.842L75.7231 46.9639C74.5957 46.4464 73.3333 46.2332 72.0807 46.3487C72.9948 46.3647 73.8926 46.5752 74.7043 46.9639L100.72 60.842C102.571 61.8262 102.338 63.5487 100.2 64.6929L75.2436 78.0112C74.1457 78.5672 72.9252 78.8848 71.6746 78.9401C73.2681 79.0369 74.8587 78.7148 76.2624 78.0112L101.213 64.6929C103.357 63.5487 103.59 61.8262 101.739 60.842Z" fill="#6EE8FC"/>
<path d="M72.2138 74.9046C71.3805 74.9276 70.5549 74.7518 69.8167 74.394L50.4465 64.0654C50.1651 63.9425 49.9246 63.7521 49.7501 63.5141C49.5755 63.276 49.4734 62.999 49.4543 62.712C49.5016 62.338 49.6536 61.9819 49.8953 61.6788C50.137 61.3756 50.4601 61.136 50.8327 60.9834L69.4305 51.0793C71.0552 50.2119 73.5256 50.1196 74.9372 50.8701L94.3074 61.2049C94.5891 61.3256 94.8302 61.5146 95.0049 61.7519C95.1796 61.9891 95.2814 62.2656 95.2995 62.5521C95.2529 62.9262 95.1012 63.2826 94.8594 63.5859C94.6176 63.8891 94.2942 64.1286 93.9212 64.2807L75.3234 74.2033C74.3672 74.6749 73.2977 74.9161 72.2138 74.9046ZM72.5334 50.5933C71.4961 50.5854 70.4738 50.8225 69.5636 51.2823L50.9659 61.1987C50.6351 61.3309 50.3467 61.5396 50.1286 61.8046C49.9105 62.0697 49.77 62.3822 49.7207 62.712C49.7432 62.9579 49.8375 63.1936 49.9934 63.394C50.1493 63.5944 50.3612 63.752 50.6063 63.8501L69.9765 74.1787C71.3082 74.8923 73.6654 74.7938 75.2169 73.9757L93.8147 64.0531C94.1462 63.9219 94.4352 63.7135 94.6535 63.4483C94.8717 63.183 95.0117 62.87 95.0598 62.5398C95.0384 62.296 94.9469 62.062 94.7947 61.8619C94.6425 61.6618 94.4352 61.5029 94.1942 61.4017L74.804 51.0793C74.1039 50.7422 73.3226 50.575 72.5334 50.5933Z" fill="url(#paint35_linear_1240_314)"/>
<path d="M70.1964 78.288L44.1808 64.416C42.3297 63.4256 42.5628 61.7032 44.7002 60.5651L69.677 47.2407C70.7588 46.6923 71.9606 46.3769 73.1928 46.3179C71.5756 46.2076 69.958 46.5278 68.5317 47.2407L43.5283 60.5651C41.3975 61.7032 41.1644 63.4256 43.0156 64.416L69.0311 78.288C70.1752 78.8117 71.4567 79.025 72.7267 78.9031C71.8443 78.874 70.98 78.6638 70.1964 78.288Z" fill="#25BFEC"/>
<path d="M76.9883 82.7418L98.962 70.986C99.0678 70.9147 99.1549 70.8224 99.2171 70.716C99.2794 70.6095 99.315 70.4916 99.3216 70.3708V69.4112C99.3216 69.1651 99.1618 69.0482 98.962 69.1528L76.9883 80.9147C76.8754 80.9871 76.7831 81.0837 76.7194 81.1962C76.6556 81.3086 76.6222 81.4337 76.6221 81.5606V82.5203C76.6221 82.7356 76.7819 82.8525 76.9883 82.7418Z" fill="#6DE0F6"/>
<path d="M98.5091 70.7276C98.6165 70.6572 98.7052 70.5653 98.7686 70.4588C98.832 70.3523 98.8685 70.2339 98.8754 70.1124V69.2143L98.9952 69.1466C99.195 69.0421 99.3548 69.1466 99.3548 69.405V70.3647C99.3483 70.4855 99.3126 70.6034 99.2504 70.7098C99.1881 70.8163 99.101 70.9085 98.9952 70.9798L77.0215 82.7356C76.8151 82.8463 76.6553 82.7356 76.6553 82.4834V82.4526L98.5091 70.7276Z" fill="#267FE5"/>
<path d="M67.919 82.7418L45.9453 70.986C45.8395 70.9147 45.7524 70.8224 45.6901 70.716C45.6279 70.6095 45.5923 70.4916 45.5857 70.3708V69.4112C45.5857 69.1651 45.7455 69.0482 45.9453 69.1528L67.919 80.884C68.0307 80.9575 68.1221 81.0542 68.1857 81.1665C68.2493 81.2787 68.2834 81.4032 68.2852 81.5299V82.4895C68.2919 82.7356 68.1254 82.8525 67.919 82.7418Z" fill="#6DE0F6"/>
<path d="M46.4047 70.7276C46.2963 70.6582 46.2069 70.5666 46.1433 70.4598C46.0798 70.3531 46.0439 70.2342 46.0385 70.1124V69.2143L45.9187 69.1466C45.7189 69.0421 45.5591 69.1466 45.5591 69.405V70.3647C45.5656 70.4855 45.6013 70.6034 45.6635 70.7098C45.7257 70.8163 45.8129 70.9085 45.9187 70.9798L67.919 82.7418C68.1188 82.8525 68.2853 82.7417 68.2853 82.4895V82.4526L46.4047 70.7276Z" fill="#267FE5"/>
<path d="M69.2507 32.0092L43.2818 18.1373C41.4373 17.1469 41.6637 15.4244 43.8011 14.2864L68.7513 0.961903C70.8888 -0.17615 74.1182 -0.268425 75.9693 0.685079L101.985 14.5632C103.836 15.5474 103.603 17.2699 101.466 18.4141L76.4887 31.7324C74.3513 32.8766 71.1218 32.9996 69.2507 32.0092Z" fill="url(#paint36_linear_1240_314)"/>
<path d="M70.3628 26.9034L52.8305 17.5529C51.5853 16.8885 51.7451 15.7074 53.1834 14.9569L70.0166 5.98168C70.7547 5.60174 71.579 5.38712 72.4233 5.35507C73.2675 5.32302 74.1081 5.47443 74.8774 5.79713L92.4098 15.1476C93.655 15.812 93.4952 16.9931 92.0569 17.7375L75.2437 26.7189C74.5022 27.0995 73.6745 27.3144 72.827 27.3464C71.9794 27.3785 71.1355 27.2267 70.3628 26.9034Z" fill="url(#paint37_linear_1240_314)"/>
<path d="M111.034 56.1359L85.0186 42.264C83.1741 41.2736 83.4005 39.5511 85.538 38.4131L110.535 25.0886C112.672 23.9506 115.902 23.8583 117.753 24.8118L143.768 38.6899C145.619 39.6741 145.386 41.3966 143.249 42.5408L118.252 55.8591C116.115 57.0033 112.885 57.1263 111.034 56.1359Z" fill="url(#paint38_linear_1240_314)"/>
<path d="M27.261 54.1551L1.25213 40.2832C-0.598993 39.2989 -0.365938 37.5764 1.76485 36.4384L26.7417 23.1139C28.8791 21.9759 32.1086 21.8836 33.9597 22.8371L59.9753 36.7152C61.8264 37.6995 61.5933 39.4219 59.4559 40.56L34.4791 53.8844C32.3416 55.0225 29.1122 55.1455 27.261 54.1551Z" fill="url(#paint39_linear_1240_314)"/>
<path d="M69.0311 78.288L43.0156 64.416C41.1644 63.4256 41.3975 61.7031 43.5283 60.5651L68.5117 47.2407C70.6425 46.1026 73.8787 45.9796 75.7231 46.9638L101.739 60.8419C103.59 61.8262 103.357 63.5486 101.219 64.6928L76.2425 78.0111C74.1117 79.1492 70.8756 79.2784 69.0311 78.288Z" fill="url(#paint40_linear_1240_314)"/>
<path d="M70.3827 71.9395L54.9146 63.6901C53.8159 63.075 53.949 62.0784 55.2209 61.4017L70.0764 53.4784C70.7288 53.1434 71.4568 52.9539 72.2026 52.925C72.9483 52.8962 73.6909 53.0288 74.3713 53.3123L89.8395 61.5371C90.9382 62.1522 90.805 63.1488 89.5332 63.8316L74.6776 71.7549C74.0274 72.0943 73.3 72.2878 72.554 72.3199C71.808 72.3519 71.0642 72.2216 70.3827 71.9395Z" fill="url(#paint41_linear_1240_314)"/>
<defs>
<linearGradient id="paint0_linear_1240_314" x1="36.2236" y1="57.4155" x2="110.808" y2="57.4155" gradientUnits="userSpaceOnUse">
<stop stop-color="#A31FA9"/>
<stop offset="0.07" stop-color="#8B17A0"/>
<stop offset="0.15" stop-color="#740F98"/>
<stop offset="0.24" stop-color="#640A92"/>
<stop offset="0.34" stop-color="#5B078F"/>
<stop offset="0.48" stop-color="#58068E"/>
<stop offset="0.63" stop-color="#4D22A3"/>
<stop offset="0.94" stop-color="#3168DA"/>
<stop offset="1" stop-color="#2C75E4"/>
</linearGradient>
<linearGradient id="paint1_linear_1240_314" x1="42.479" y1="50.4378" x2="99.5768" y2="65.4813" gradientUnits="userSpaceOnUse">
<stop stop-color="#8D139B"/>
<stop offset="0.17" stop-color="#851BA1"/>
<stop offset="0.43" stop-color="#6E33B2"/>
<stop offset="0.76" stop-color="#4958CD"/>
<stop offset="1" stop-color="#2979E4"/>
</linearGradient>
<linearGradient id="paint2_linear_1240_314" x1="36.2236" y1="46.3917" x2="110.808" y2="46.3917" gradientUnits="userSpaceOnUse">
<stop stop-color="#A31FA9"/>
<stop offset="0.07" stop-color="#8B17A0"/>
<stop offset="0.15" stop-color="#740F98"/>
<stop offset="0.24" stop-color="#640A92"/>
<stop offset="0.34" stop-color="#5B078F"/>
<stop offset="0.48" stop-color="#58068E"/>
<stop offset="0.63" stop-color="#4D22A3"/>
<stop offset="0.94" stop-color="#3168DA"/>
<stop offset="1" stop-color="#2C75E4"/>
</linearGradient>
<linearGradient id="paint3_linear_1240_314" x1="42.4379" y1="39.3915" x2="99.5344" y2="54.4247" gradientUnits="userSpaceOnUse">
<stop stop-color="#8D139B"/>
<stop offset="0.17" stop-color="#851BA1"/>
<stop offset="0.43" stop-color="#6E33B2"/>
<stop offset="0.76" stop-color="#4958CD"/>
<stop offset="1" stop-color="#2979E4"/>
</linearGradient>
<linearGradient id="paint4_linear_1240_314" x1="36.2236" y1="35.3741" x2="110.808" y2="35.3741" gradientUnits="userSpaceOnUse">
<stop stop-color="#A31FA9"/>
<stop offset="0.07" stop-color="#8B17A0"/>
<stop offset="0.15" stop-color="#740F98"/>
<stop offset="0.24" stop-color="#640A92"/>
<stop offset="0.34" stop-color="#5B078F"/>
<stop offset="0.48" stop-color="#58068E"/>
<stop offset="0.63" stop-color="#4D22A3"/>
<stop offset="0.94" stop-color="#3168DA"/>
<stop offset="1" stop-color="#2C75E4"/>
</linearGradient>
<linearGradient id="paint5_linear_1240_314" x1="42.3913" y1="28.3421" x2="99.4891" y2="43.3856" gradientUnits="userSpaceOnUse">
<stop stop-color="#8D139B"/>
<stop offset="0.17" stop-color="#851BA1"/>
<stop offset="0.43" stop-color="#6E33B2"/>
<stop offset="0.76" stop-color="#4958CD"/>
<stop offset="1" stop-color="#2979E4"/>
</linearGradient>
<linearGradient id="paint6_linear_1240_314" x1="36.2236" y1="24.3504" x2="110.808" y2="24.3504" gradientUnits="userSpaceOnUse">
<stop stop-color="#A31FA9"/>
<stop offset="0.07" stop-color="#8B17A0"/>
<stop offset="0.15" stop-color="#740F98"/>
<stop offset="0.24" stop-color="#640A92"/>
<stop offset="0.34" stop-color="#5B078F"/>
<stop offset="0.48" stop-color="#58068E"/>
<stop offset="0.63" stop-color="#4D22A3"/>
<stop offset="0.94" stop-color="#3168DA"/>
<stop offset="1" stop-color="#2C75E4"/>
</linearGradient>
<linearGradient id="paint7_linear_1240_314" x1="42.3378" y1="17.2965" x2="99.4355" y2="32.34" gradientUnits="userSpaceOnUse">
<stop stop-color="#267FE5"/>
<stop offset="0.17" stop-color="#2C87E7"/>
<stop offset="0.44" stop-color="#3D9FEB"/>
<stop offset="0.78" stop-color="#59C4F2"/>
<stop offset="1" stop-color="#6EE1F8"/>
</linearGradient>
<linearGradient id="paint8_linear_1240_314" x1="49.6077" y1="16.3471" x2="95.6326" y2="16.3471" gradientUnits="userSpaceOnUse">
<stop stop-color="#6DE0F6"/>
<stop offset="0.16" stop-color="#68D8F5"/>
<stop offset="0.41" stop-color="#5AC0F1"/>
<stop offset="0.73" stop-color="#439BEA"/>
<stop offset="1" stop-color="#2C75E4"/>
</linearGradient>
<linearGradient id="paint9_linear_1240_314" x1="77.9871" y1="81.5422" x2="152.571" y2="81.5422" gradientUnits="userSpaceOnUse">
<stop stop-color="#A31FA9"/>
<stop offset="0.07" stop-color="#8B17A0"/>
<stop offset="0.15" stop-color="#740F98"/>
<stop offset="0.24" stop-color="#640A92"/>
<stop offset="0.34" stop-color="#5B078F"/>
<stop offset="0.48" stop-color="#58068E"/>
<stop offset="0.63" stop-color="#4D22A3"/>
<stop offset="0.94" stop-color="#3168DA"/>
<stop offset="1" stop-color="#2C75E4"/>
</linearGradient>
<linearGradient id="paint10_linear_1240_314" x1="84.451" y1="74.5692" x2="141.547" y2="89.6025" gradientUnits="userSpaceOnUse">
<stop stop-color="#8D139B"/>
<stop offset="0.17" stop-color="#851BA1"/>
<stop offset="0.43" stop-color="#6E33B2"/>
<stop offset="0.76" stop-color="#4958CD"/>
<stop offset="1" stop-color="#2979E4"/>
</linearGradient>
<linearGradient id="paint11_linear_1240_314" x1="77.9871" y1="70.5185" x2="152.571" y2="70.5185" gradientUnits="userSpaceOnUse">
<stop stop-color="#A31FA9"/>
<stop offset="0.07" stop-color="#8B17A0"/>
<stop offset="0.15" stop-color="#740F98"/>
<stop offset="0.24" stop-color="#640A92"/>
<stop offset="0.34" stop-color="#5B078F"/>
<stop offset="0.48" stop-color="#58068E"/>
<stop offset="0.63" stop-color="#4D22A3"/>
<stop offset="0.94" stop-color="#3168DA"/>
<stop offset="1" stop-color="#2C75E4"/>
</linearGradient>
<linearGradient id="paint12_linear_1240_314" x1="84.4041" y1="63.52" x2="141.502" y2="78.5635" gradientUnits="userSpaceOnUse">
<stop stop-color="#8D139B"/>
<stop offset="0.17" stop-color="#851BA1"/>
<stop offset="0.43" stop-color="#6E33B2"/>
<stop offset="0.76" stop-color="#4958CD"/>
<stop offset="1" stop-color="#2979E4"/>
</linearGradient>
<linearGradient id="paint13_linear_1240_314" x1="77.987" y1="59.5009" x2="152.571" y2="59.5009" gradientUnits="userSpaceOnUse">
<stop stop-color="#A31FA9"/>
<stop offset="0.07" stop-color="#8B17A0"/>
<stop offset="0.15" stop-color="#740F98"/>
<stop offset="0.24" stop-color="#640A92"/>
<stop offset="0.34" stop-color="#5B078F"/>
<stop offset="0.48" stop-color="#58068E"/>
<stop offset="0.63" stop-color="#4D22A3"/>
<stop offset="0.94" stop-color="#3168DA"/>
<stop offset="1" stop-color="#2C75E4"/>
</linearGradient>
<linearGradient id="paint14_linear_1240_314" x1="84.3506" y1="52.4743" x2="141.448" y2="67.5177" gradientUnits="userSpaceOnUse">
<stop stop-color="#8D139B"/>
<stop offset="0.17" stop-color="#851BA1"/>
<stop offset="0.43" stop-color="#6E33B2"/>
<stop offset="0.76" stop-color="#4958CD"/>
<stop offset="1" stop-color="#2979E4"/>
</linearGradient>
<linearGradient id="paint15_linear_1240_314" x1="77.9871" y1="48.4772" x2="152.571" y2="48.4772" gradientUnits="userSpaceOnUse">
<stop stop-color="#A31FA9"/>
<stop offset="0.07" stop-color="#8B17A0"/>
<stop offset="0.15" stop-color="#740F98"/>
<stop offset="0.24" stop-color="#640A92"/>
<stop offset="0.34" stop-color="#5B078F"/>
<stop offset="0.48" stop-color="#58068E"/>
<stop offset="0.63" stop-color="#4D22A3"/>
<stop offset="0.94" stop-color="#3168DA"/>
<stop offset="1" stop-color="#2C75E4"/>
</linearGradient>
<linearGradient id="paint16_linear_1240_314" x1="84.3095" y1="41.4281" x2="141.406" y2="56.4613" gradientUnits="userSpaceOnUse">
<stop stop-color="#267FE5"/>
<stop offset="0.17" stop-color="#2C87E7"/>
<stop offset="0.44" stop-color="#3D9FEB"/>
<stop offset="0.78" stop-color="#59C4F2"/>
<stop offset="1" stop-color="#6EE1F8"/>
</linearGradient>
<linearGradient id="paint17_linear_1240_314" x1="91.3711" y1="40.4739" x2="137.396" y2="40.4739" gradientUnits="userSpaceOnUse">
<stop stop-color="#6DE0F6"/>
<stop offset="0.16" stop-color="#68D8F5"/>
<stop offset="0.41" stop-color="#5AC0F1"/>
<stop offset="0.73" stop-color="#439BEA"/>
<stop offset="1" stop-color="#2C75E4"/>
</linearGradient>
<linearGradient id="paint18_linear_1240_314" x1="-5.78612" y1="79.5675" x2="68.7981" y2="79.5675" gradientUnits="userSpaceOnUse">
<stop stop-color="#A31FA9"/>
<stop offset="0.07" stop-color="#8B17A0"/>
<stop offset="0.15" stop-color="#740F98"/>
<stop offset="0.24" stop-color="#640A92"/>
<stop offset="0.34" stop-color="#5B078F"/>
<stop offset="0.48" stop-color="#58068E"/>
<stop offset="0.63" stop-color="#4D22A3"/>
<stop offset="0.94" stop-color="#3168DA"/>
<stop offset="1" stop-color="#2C75E4"/>
</linearGradient>
<linearGradient id="paint19_linear_1240_314" x1="0.472659" y1="72.6866" x2="57.5704" y2="87.7301" gradientUnits="userSpaceOnUse">
<stop stop-color="#8D139B"/>
<stop offset="0.17" stop-color="#851BA1"/>
<stop offset="0.43" stop-color="#6E33B2"/>
<stop offset="0.76" stop-color="#4958CD"/>
<stop offset="1" stop-color="#2979E4"/>
</linearGradient>
<linearGradient id="paint20_linear_1240_314" x1="-5.78635" y1="68.5438" x2="68.7978" y2="68.5438" gradientUnits="userSpaceOnUse">
<stop stop-color="#A31FA9"/>
<stop offset="0.07" stop-color="#8B17A0"/>
<stop offset="0.15" stop-color="#740F98"/>
<stop offset="0.24" stop-color="#640A92"/>
<stop offset="0.34" stop-color="#5B078F"/>
<stop offset="0.48" stop-color="#58068E"/>
<stop offset="0.63" stop-color="#4D22A3"/>
<stop offset="0.94" stop-color="#3168DA"/>
<stop offset="1" stop-color="#2C75E4"/>
</linearGradient>
<linearGradient id="paint21_linear_1240_314" x1="0.431332" y1="61.6405" x2="57.5181" y2="76.6925" gradientUnits="userSpaceOnUse">
<stop stop-color="#8D139B"/>
<stop offset="0.17" stop-color="#851BA1"/>
<stop offset="0.43" stop-color="#6E33B2"/>
<stop offset="0.76" stop-color="#4958CD"/>
<stop offset="1" stop-color="#2979E4"/>
</linearGradient>
<linearGradient id="paint22_linear_1240_314" x1="-5.78615" y1="57.5262" x2="68.798" y2="57.5262" gradientUnits="userSpaceOnUse">
<stop stop-color="#A31FA9"/>
<stop offset="0.07" stop-color="#8B17A0"/>
<stop offset="0.15" stop-color="#740F98"/>
<stop offset="0.24" stop-color="#640A92"/>
<stop offset="0.34" stop-color="#5B078F"/>
<stop offset="0.48" stop-color="#58068E"/>
<stop offset="0.63" stop-color="#4D22A3"/>
<stop offset="0.94" stop-color="#3168DA"/>
<stop offset="1" stop-color="#2C75E4"/>
</linearGradient>
<linearGradient id="paint23_linear_1240_314" x1="0.37804" y1="50.5948" x2="57.4758" y2="65.6383" gradientUnits="userSpaceOnUse">
<stop stop-color="#8D139B"/>
<stop offset="0.17" stop-color="#851BA1"/>
<stop offset="0.43" stop-color="#6E33B2"/>
<stop offset="0.76" stop-color="#4958CD"/>
<stop offset="1" stop-color="#2979E4"/>
</linearGradient>
<linearGradient id="paint24_linear_1240_314" x1="-5.78615" y1="46.5025" x2="68.798" y2="46.5025" gradientUnits="userSpaceOnUse">
<stop stop-color="#A31FA9"/>
<stop offset="0.07" stop-color="#8B17A0"/>
<stop offset="0.15" stop-color="#740F98"/>
<stop offset="0.24" stop-color="#640A92"/>
<stop offset="0.34" stop-color="#5B078F"/>
<stop offset="0.48" stop-color="#58068E"/>
<stop offset="0.63" stop-color="#4D22A3"/>
<stop offset="0.94" stop-color="#3168DA"/>
<stop offset="1" stop-color="#2C75E4"/>
</linearGradient>
<linearGradient id="paint25_linear_1240_314" x1="0.331162" y1="39.5455" x2="57.4289" y2="54.5889" gradientUnits="userSpaceOnUse">
<stop stop-color="#267FE5"/>
<stop offset="0.17" stop-color="#2C87E7"/>
<stop offset="0.44" stop-color="#3D9FEB"/>
<stop offset="0.78" stop-color="#59C4F2"/>
<stop offset="1" stop-color="#6EE1F8"/>
</linearGradient>
<linearGradient id="paint26_linear_1240_314" x1="7.59777" y1="38.4992" x2="53.6227" y2="38.4992" gradientUnits="userSpaceOnUse">
<stop stop-color="#6DE0F6"/>
<stop offset="0.16" stop-color="#68D8F5"/>
<stop offset="0.41" stop-color="#5AC0F1"/>
<stop offset="0.73" stop-color="#439BEA"/>
<stop offset="1" stop-color="#2C75E4"/>
</linearGradient>
<linearGradient id="paint27_linear_1240_314" x1="35.9774" y1="103.694" x2="110.568" y2="103.694" gradientUnits="userSpaceOnUse">
<stop stop-color="#A31FA9"/>
<stop offset="0.07" stop-color="#8B17A0"/>
<stop offset="0.15" stop-color="#740F98"/>
<stop offset="0.24" stop-color="#640A92"/>
<stop offset="0.34" stop-color="#5B078F"/>
<stop offset="0.48" stop-color="#58068E"/>
<stop offset="0.63" stop-color="#4D22A3"/>
<stop offset="0.94" stop-color="#3168DA"/>
<stop offset="1" stop-color="#2C75E4"/>
</linearGradient>
<linearGradient id="paint28_linear_1240_314" x1="42.4377" y1="96.8218" x2="99.5355" y2="111.865" gradientUnits="userSpaceOnUse">
<stop stop-color="#8D139B"/>
<stop offset="0.17" stop-color="#851BA1"/>
<stop offset="0.43" stop-color="#6E33B2"/>
<stop offset="0.76" stop-color="#4958CD"/>
<stop offset="1" stop-color="#2979E4"/>
</linearGradient>
<linearGradient id="paint29_linear_1240_314" x1="35.9772" y1="92.6705" x2="110.568" y2="92.6705" gradientUnits="userSpaceOnUse">
<stop stop-color="#A31FA9"/>
<stop offset="0.07" stop-color="#8B17A0"/>
<stop offset="0.15" stop-color="#740F98"/>
<stop offset="0.24" stop-color="#640A92"/>
<stop offset="0.34" stop-color="#5B078F"/>
<stop offset="0.48" stop-color="#58068E"/>
<stop offset="0.63" stop-color="#4D22A3"/>
<stop offset="0.94" stop-color="#3168DA"/>
<stop offset="1" stop-color="#2C75E4"/>
</linearGradient>
<linearGradient id="paint30_linear_1240_314" x1="42.3908" y1="85.7726" x2="99.4886" y2="100.816" gradientUnits="userSpaceOnUse">
<stop stop-color="#8D139B"/>
<stop offset="0.17" stop-color="#851BA1"/>
<stop offset="0.43" stop-color="#6E33B2"/>
<stop offset="0.76" stop-color="#4958CD"/>
<stop offset="1" stop-color="#2979E4"/>
</linearGradient>
<linearGradient id="paint31_linear_1240_314" x1="35.9774" y1="81.6529" x2="110.568" y2="81.6529" gradientUnits="userSpaceOnUse">
<stop stop-color="#A31FA9"/>
<stop offset="0.07" stop-color="#8B17A0"/>
<stop offset="0.15" stop-color="#740F98"/>
<stop offset="0.24" stop-color="#640A92"/>
<stop offset="0.34" stop-color="#5B078F"/>
<stop offset="0.48" stop-color="#58068E"/>
<stop offset="0.63" stop-color="#4D22A3"/>
<stop offset="0.94" stop-color="#3168DA"/>
<stop offset="1" stop-color="#2C75E4"/>
</linearGradient>
<linearGradient id="paint32_linear_1240_314" x1="42.344" y1="74.7233" x2="99.4417" y2="89.7667" gradientUnits="userSpaceOnUse">
<stop stop-color="#8D139B"/>
<stop offset="0.17" stop-color="#851BA1"/>
<stop offset="0.43" stop-color="#6E33B2"/>
<stop offset="0.76" stop-color="#4958CD"/>
<stop offset="1" stop-color="#2979E4"/>
</linearGradient>
<linearGradient id="paint33_linear_1240_314" x1="35.9774" y1="70.6292" x2="110.568" y2="70.6292" gradientUnits="userSpaceOnUse">
<stop stop-color="#A31FA9"/>
<stop offset="0.07" stop-color="#8B17A0"/>
<stop offset="0.15" stop-color="#740F98"/>
<stop offset="0.24" stop-color="#640A92"/>
<stop offset="0.34" stop-color="#5B078F"/>
<stop offset="0.48" stop-color="#58068E"/>
<stop offset="0.63" stop-color="#4D22A3"/>
<stop offset="0.94" stop-color="#3168DA"/>
<stop offset="1" stop-color="#2C75E4"/>
</linearGradient>
<linearGradient id="paint34_linear_1240_314" x1="42.2962" y1="63.6807" x2="99.394" y2="78.7241" gradientUnits="userSpaceOnUse">
<stop stop-color="#267FE5"/>
<stop offset="0.17" stop-color="#2C87E7"/>
<stop offset="0.44" stop-color="#3D9FEB"/>
<stop offset="0.78" stop-color="#59C4F2"/>
<stop offset="1" stop-color="#6EE1F8"/>
</linearGradient>
<linearGradient id="paint35_linear_1240_314" x1="49.4543" y1="62.6259" x2="95.2995" y2="62.6259" gradientUnits="userSpaceOnUse">
<stop stop-color="#6DE0F6"/>
<stop offset="0.16" stop-color="#68D8F5"/>
<stop offset="0.41" stop-color="#5AC0F1"/>
<stop offset="0.73" stop-color="#439BEA"/>
<stop offset="1" stop-color="#2C75E4"/>
</linearGradient>
<linearGradient id="paint36_linear_1240_314" x1="42.3378" y1="17.2965" x2="99.4355" y2="32.34" gradientUnits="userSpaceOnUse">
<stop stop-color="#8D139B"/>
<stop offset="0.17" stop-color="#851BA1"/>
<stop offset="0.43" stop-color="#6E33B2"/>
<stop offset="0.76" stop-color="#4958CD"/>
<stop offset="1" stop-color="#2979E4"/>
</linearGradient>
<linearGradient id="paint37_linear_1240_314" x1="52.5097" y1="17.2845" x2="90.9906" y2="27.4214" gradientUnits="userSpaceOnUse">
<stop stop-color="#267FE5"/>
<stop offset="0.17" stop-color="#2C87E7"/>
<stop offset="0.44" stop-color="#3D9FEB"/>
<stop offset="0.78" stop-color="#59C4F2"/>
<stop offset="1" stop-color="#6EE1F8"/>
</linearGradient>
<linearGradient id="paint38_linear_1240_314" x1="84.3095" y1="41.4281" x2="141.406" y2="56.4613" gradientUnits="userSpaceOnUse">
<stop stop-color="#8D139B"/>
<stop offset="0.17" stop-color="#851BA1"/>
<stop offset="0.43" stop-color="#6E33B2"/>
<stop offset="0.76" stop-color="#4958CD"/>
<stop offset="1" stop-color="#2979E4"/>
</linearGradient>
<linearGradient id="paint39_linear_1240_314" x1="0.331162" y1="39.5455" x2="57.4289" y2="54.5889" gradientUnits="userSpaceOnUse">
<stop stop-color="#8D139B"/>
<stop offset="0.17" stop-color="#851BA1"/>
<stop offset="0.43" stop-color="#6E33B2"/>
<stop offset="0.76" stop-color="#4958CD"/>
<stop offset="1" stop-color="#2979E4"/>
</linearGradient>
<linearGradient id="paint40_linear_1240_314" x1="42.2962" y1="63.6807" x2="99.394" y2="78.7241" gradientUnits="userSpaceOnUse">
<stop stop-color="#267FE5"/>
<stop offset="0.17" stop-color="#2C87E7"/>
<stop offset="0.44" stop-color="#3D9FEB"/>
<stop offset="0.78" stop-color="#59C4F2"/>
<stop offset="1" stop-color="#6EE1F8"/>
</linearGradient>
<linearGradient id="paint41_linear_1240_314" x1="55.084" y1="65.363" x2="92.5274" y2="63.0177" gradientUnits="userSpaceOnUse">
<stop stop-color="#A31FA9"/>
<stop offset="0.05" stop-color="#8B17A0"/>
<stop offset="0.11" stop-color="#740F98"/>
<stop offset="0.18" stop-color="#640A92"/>
<stop offset="0.26" stop-color="#5B078F"/>
<stop offset="0.36" stop-color="#58068E"/>
<stop offset="0.54" stop-color="#4D22A3"/>
<stop offset="0.93" stop-color="#3168DA"/>
<stop offset="1" stop-color="#2C75E4"/>
</linearGradient>
</defs>
</svg>
