<svg width="30" height="30" viewBox="0 0 30 30" fill="none" xmlns="http://www.w3.org/2000/svg">
<g id="Frame" clip-path="url(#clip0_1650_892)">
<g id="Group">
<path id="Vector" d="M17.5375 22.3243C17.3757 22.0441 17.0173 21.948 16.7371 22.1099L15.5863 22.7743V21.4454C15.5863 21.1218 15.3239 20.8595 15.0004 20.8595C14.6768 20.8595 14.4145 21.1218 14.4145 21.4454V22.7743L13.2636 22.1099C12.9833 21.9481 12.6251 22.0441 12.4633 22.3243C12.3014 22.6046 12.3975 22.9629 12.6777 23.1247L13.8285 23.7891L12.6777 24.4536C12.3975 24.6154 12.3014 24.9737 12.4633 25.254C12.5017 25.3206 12.5529 25.379 12.614 25.4259C12.675 25.4728 12.7447 25.5071 12.819 25.527C12.8933 25.547 12.9709 25.552 13.0472 25.542C13.1234 25.5319 13.197 25.5069 13.2636 25.4684L14.4145 24.804V26.1329C14.4145 26.4565 14.6768 26.7188 15.0004 26.7188C15.3239 26.7188 15.5863 26.4565 15.5863 26.1329V24.804L16.7371 25.4684C16.8038 25.5069 16.8773 25.5319 16.9536 25.5419C17.0299 25.552 17.1074 25.5469 17.1818 25.527C17.2561 25.5071 17.3258 25.4727 17.3868 25.4259C17.4478 25.379 17.4991 25.3206 17.5375 25.254C17.6993 24.9737 17.6033 24.6154 17.3231 24.4536L16.1722 23.7891L17.3231 23.1247C17.6033 22.9629 17.6993 22.6046 17.5375 22.3243ZM9.51029 22.3243C9.34852 22.0441 8.99017 21.948 8.70992 22.1099L7.5591 22.7743V21.4454C7.5591 21.1218 7.29672 20.8595 6.97317 20.8595C6.64962 20.8595 6.38724 21.1218 6.38724 21.4454V22.7743L5.23642 22.1099C5.10184 22.0322 4.94191 22.0111 4.79182 22.0513C4.64172 22.0916 4.51374 22.1897 4.43604 22.3243C4.27421 22.6046 4.37024 22.9629 4.65049 23.1247L5.80131 23.7891L4.65049 24.4536C4.37024 24.6154 4.27421 24.9737 4.43604 25.254C4.47449 25.3206 4.5257 25.379 4.58674 25.4259C4.64778 25.4728 4.71746 25.5071 4.79179 25.527C4.86612 25.547 4.94365 25.552 5.01994 25.542C5.09623 25.5319 5.16979 25.5069 5.23642 25.4684L6.38724 24.804V26.1329C6.38724 26.4565 6.64962 26.7188 6.97317 26.7188C7.29672 26.7188 7.5591 26.4565 7.5591 26.1329V24.804L8.70992 25.4684C8.77655 25.5069 8.85011 25.5319 8.9264 25.5419C9.00269 25.552 9.08021 25.5469 9.15454 25.527C9.22887 25.5071 9.29854 25.4727 9.35958 25.4259C9.42063 25.379 9.47184 25.3206 9.51029 25.254C9.67213 24.9737 9.5761 24.6154 9.29585 24.4536L8.14502 23.7891L9.29585 23.1247C9.5761 22.9629 9.67207 22.6046 9.51029 22.3243ZM20.4905 25.254C20.5289 25.3206 20.5801 25.379 20.6412 25.4259C20.7022 25.4728 20.7719 25.5071 20.8462 25.527C20.9206 25.547 20.9981 25.552 21.0744 25.542C21.1507 25.5319 21.2242 25.5069 21.2909 25.4684L22.4417 24.804V26.1329C22.4417 26.4565 22.7041 26.7188 23.0276 26.7188C23.3512 26.7188 23.6135 26.4565 23.6135 26.1329V24.804L24.7644 25.4684C24.831 25.5069 24.9045 25.5319 24.9808 25.5419C25.0571 25.552 25.1346 25.5469 25.209 25.527C25.2833 25.5071 25.353 25.4727 25.414 25.4259C25.4751 25.379 25.5263 25.3206 25.5647 25.254C25.7266 24.9737 25.6305 24.6154 25.3503 24.4536L24.1995 23.7891L25.3503 23.1247C25.6305 22.9629 25.7266 22.6046 25.5647 22.3243C25.403 22.0441 25.0446 21.948 24.7644 22.1099L23.6135 22.7743V21.4454C23.6135 21.1218 23.3512 20.8595 23.0276 20.8595C22.7041 20.8595 22.4417 21.1218 22.4417 21.4454V22.7743L21.2909 22.1099C21.0105 21.9481 20.6523 22.0441 20.4905 22.3243C20.3286 22.6046 20.4247 22.9629 20.7049 23.1247L21.8557 23.7891L20.7049 24.4536C20.4247 24.6154 20.3286 24.9737 20.4905 25.254Z" fill="white"/>
<path id="Vector_2" d="M27.0704 17.5783H17.6406C17.3171 17.5783 17.0547 17.8406 17.0547 18.1642C17.0547 18.4878 17.3171 18.7501 17.6406 18.7501H27.0704C28.0396 18.7501 28.8282 19.5387 28.8282 20.5079V27.0703C28.8282 28.0396 28.0396 28.8281 27.0704 28.8281H2.93013C1.96089 28.8281 1.17235 28.0396 1.17235 27.0703V20.5079C1.17235 19.5387 1.96089 18.7501 2.93013 18.7501H12.3673C12.6908 18.7501 12.9532 18.4878 12.9532 18.1642C12.9532 17.8406 12.6908 17.5783 12.3673 17.5783H2.93013C1.31473 17.5783 0.000488281 18.8925 0.000488281 20.5079V27.0703C0.000488281 28.6857 1.31473 30 2.93013 30H27.0704C28.6858 30 30 28.6857 30 27.0703V20.5079C30 18.8925 28.6858 17.5783 27.0704 17.5783ZM15.0003 12.4807C15.3238 12.4807 15.5862 12.2184 15.5862 11.8948V9.39141C15.5862 9.0678 15.3238 8.80548 15.0003 8.80548C14.6767 8.80548 14.4143 9.0678 14.4143 9.39141V11.8948C14.4143 12.2184 14.6766 12.4807 15.0003 12.4807Z" fill="white"/>
<path id="Vector_3" d="M10.7817 16.1721H19.2191C20.576 16.1721 21.68 15.0681 21.68 13.7112V7.57506C21.68 6.21811 20.576 5.11416 19.2191 5.11416H19.1019V4.1015C19.1019 1.83993 17.2619 0 15.0004 0C12.7388 0 10.8989 1.83993 10.8989 4.1015V5.11416H10.7817C9.42475 5.11416 8.3208 6.21811 8.3208 7.57506V13.7112C8.3208 15.0681 9.42475 16.1721 10.7817 16.1721ZM12.0707 4.1015C12.0707 2.48609 13.385 1.17186 15.0004 1.17186C16.6158 1.17186 17.93 2.48609 17.93 4.1015V5.11416H12.0707V4.1015ZM9.49266 7.57506C9.49266 6.86427 10.0709 6.28602 10.7817 6.28602H19.2191C19.9299 6.28602 20.5081 6.86427 20.5081 7.57506V13.7112C20.5081 14.422 19.9299 15.0002 19.2191 15.0002H10.7817C10.0709 15.0002 9.49266 14.422 9.49266 13.7112V7.57506ZM15.0038 18.754C15.1579 18.754 15.3091 18.6914 15.4181 18.5824C15.5277 18.4734 15.5898 18.3222 15.5898 18.1681C15.5898 18.0134 15.5277 17.8628 15.4181 17.7539C15.3091 17.6449 15.1579 17.5822 15.0038 17.5822C14.8497 17.5822 14.6986 17.6449 14.5896 17.7539C14.4801 17.8639 14.4183 18.0128 14.4179 18.1681C14.4179 18.3222 14.4806 18.4734 14.5896 18.5824C14.6986 18.6914 14.8498 18.754 15.0038 18.754Z" fill="white"/>
</g>
</g>
<defs>
<clipPath id="clip0_1650_892">
<rect width="30" height="30" fill="white"/>
</clipPath>
</defs>
</svg>
