<svg width="20" height="20" viewBox="0 0 20 20" fill="none" xmlns="http://www.w3.org/2000/svg">
<path d="M15.8333 5.8335C15.6122 5.8335 15.4003 5.92129 15.244 6.07757C15.0877 6.23385 14.9999 6.44582 14.9999 6.66683V15.9927C14.976 16.4141 14.7866 16.809 14.4728 17.0913C14.1591 17.3737 13.7465 17.5206 13.3249 17.5002H6.67492C6.25333 17.5206 5.84074 17.3737 5.52701 17.0913C5.21328 16.809 5.02382 16.4141 4.99992 15.9927V6.66683C4.99992 6.44582 4.91212 6.23385 4.75584 6.07757C4.59956 5.92129 4.3876 5.8335 4.16659 5.8335C3.94557 5.8335 3.73361 5.92129 3.57733 6.07757C3.42105 6.23385 3.33325 6.44582 3.33325 6.66683V15.9927C3.35704 16.8562 3.72207 17.6751 4.3484 18.27C4.97473 18.865 5.81131 19.1874 6.67492 19.1668H13.3249C14.1885 19.1874 15.0251 18.865 15.6514 18.27C16.2778 17.6751 16.6428 16.8562 16.6666 15.9927V6.66683C16.6666 6.44582 16.5788 6.23385 16.4225 6.07757C16.2662 5.92129 16.0543 5.8335 15.8333 5.8335Z" fill="#373737"/>
<path d="M16.6667 3.3335H13.3333V1.66683C13.3333 1.44582 13.2455 1.23385 13.0893 1.07757C12.933 0.921293 12.721 0.833496 12.5 0.833496H7.5C7.27899 0.833496 7.06702 0.921293 6.91074 1.07757C6.75446 1.23385 6.66667 1.44582 6.66667 1.66683V3.3335H3.33333C3.11232 3.3335 2.90036 3.42129 2.74408 3.57757C2.5878 3.73385 2.5 3.94582 2.5 4.16683C2.5 4.38784 2.5878 4.5998 2.74408 4.75608C2.90036 4.91236 3.11232 5.00016 3.33333 5.00016H16.6667C16.8877 5.00016 17.0996 4.91236 17.2559 4.75608C17.4122 4.5998 17.5 4.38784 17.5 4.16683C17.5 3.94582 17.4122 3.73385 17.2559 3.57757C17.0996 3.42129 16.8877 3.3335 16.6667 3.3335ZM8.33333 3.3335V2.50016H11.6667V3.3335H8.33333Z" fill="#373737"/>
<path d="M9.16667 14.1667V8.33333C9.16667 8.11232 9.07887 7.90036 8.92259 7.74408C8.76631 7.5878 8.55435 7.5 8.33333 7.5C8.11232 7.5 7.90036 7.5878 7.74408 7.74408C7.5878 7.90036 7.5 8.11232 7.5 8.33333V14.1667C7.5 14.3877 7.5878 14.5996 7.74408 14.7559C7.90036 14.9122 8.11232 15 8.33333 15C8.55435 15 8.76631 14.9122 8.92259 14.7559C9.07887 14.5996 9.16667 14.3877 9.16667 14.1667Z" fill="#373737"/>
<path d="M12.4999 14.1667V8.33333C12.4999 8.11232 12.4121 7.90036 12.2558 7.74408C12.0996 7.5878 11.8876 7.5 11.6666 7.5C11.4456 7.5 11.2336 7.5878 11.0773 7.74408C10.921 7.90036 10.8333 8.11232 10.8333 8.33333V14.1667C10.8333 14.3877 10.921 14.5996 11.0773 14.7559C11.2336 14.9122 11.4456 15 11.6666 15C11.8876 15 12.0996 14.9122 12.2558 14.7559C12.4121 14.5996 12.4999 14.3877 12.4999 14.1667Z" fill="#373737"/>
</svg>
